  0
SECTION
  2
HEADER
  9
$ACADVER
  1
AC1014
  9
$HANDSEED
  5
FFFF
  9
$MEASUREMENT
 70
     1
  0
ENDSEC
  0
SECTION
  2
TABLES
  0
TABLE
  2
VPORT
  5
8
330
0
100
AcDbSymbolTable
 70
     4
  0
VPORT
  5
2E
330
8
100
AcDbSymbolTableRecord
100
AcDbViewportTableRecord
  2
*ACTIVE
 70
     0
 10
0.0
 20
0.0
 11
1.0
 21
1.0
 12
210.0
 22
148.5
 13
0.0
 23
0.0
 14
10.0
 24
10.0
 15
10.0
 25
10.0
 16
0.0
 26
0.0
 36
1.0
 17
0.0
 27
0.0
 37
0.0
 40
341.0
 41
1.24
 42
50.0
 43
0.0
 44
0.0
 50
0.0
 51
0.0
 71
     0
 72
   100
 73
     1
 74
     3
 75
     0
 76
     0
 77
     0
 78
     0
  0
ENDTAB
  0
TABLE
  2
LTYPE
  5
5
330
0
100
AcDbSymbolTable
 70
     1
  0
LTYPE
  5
14
330
5
100
AcDbSymbolTableRecord
100
AcDbLinetypeTableRecord
  2
BYBLOCK
 70
     0
  3

 72
    65
 73
     0
 40
0.0
  0
LTYPE
  5
15
330
5
100
AcDbSymbolTableRecord
100
AcDbLinetypeTableRecord
  2
BYLAYER
 70
     0
  3

 72
    65
 73
     0
 40
0.0
  0
LTYPE
  5
16
330
5
100
AcDbSymbolTableRecord
100
AcDbLinetypeTableRecord
  2
CONTINUOUS
 70
     0
  3
Solid line
 72
    65
 73
     0
 40
0.0
  0
ENDTAB
  0
TABLE
  2
LAYER
  5
2
100
AcDbSymbolTable
 70
2
  0
LAYER
  5
50
100
AcDbSymbolTableRecord
100
AcDbLayerTableRecord
  2
0
 70
0
  6
CONTINUOUS
  0
LAYER
  5
51
100
AcDbSymbolTableRecord
100
AcDbLayerTableRecord
  2
Layer_1
 70
0
  6
CONTINUOUS
  0
ENDTAB
  0
TABLE
  2
STYLE
  5
3
330
0
100
AcDbSymbolTable
 70
     1
  0
STYLE
  5
11
330
3
100
AcDbSymbolTableRecord
100
AcDbTextStyleTableRecord
  2
STANDARD
 70
     0
 40
0.0
 41
1.0
 50
0.0
 71
     0
 42
2.5
  3
txt
  4

  0
ENDTAB
  0
TABLE
  2
VIEW
  5
6
330
0
100
AcDbSymbolTable
 70
     0
  0
ENDTAB
  0
TABLE
  2
UCS
  5
7
330
0
100
AcDbSymbolTable
 70
     0
  0
ENDTAB
  0
TABLE
  2
APPID
  5
9
330
0
100
AcDbSymbolTable
 70
     2
  0
APPID
  5
12
330
9
100
AcDbSymbolTableRecord
100
AcDbRegAppTableRecord
  2
ACAD
 70
     0
  0
ENDTAB
  0
TABLE
  2
DIMSTYLE
  5
A
330
0
100
AcDbSymbolTable
 70
     1
  0
DIMSTYLE
105
27
330
A
100
AcDbSymbolTableRecord
100
AcDbDimStyleTableRecord
  2
ISO-25
 70
     0
  3

  4

  5

  6

  7

 40
1.0
 41
2.5
 42
0.625
 43
3.75
 44
1.25
 45
0.0
 46
0.0
 47
0.0
 48
0.0
140
2.5
141
2.5
142
0.0
143
0.03937007874016
144
1.0
145
0.0
146
1.0
147
0.625
 71
     0
 72
     0
 73
     0
 74
     0
 75
     0
 76
     0
 77
     1
 78
     8
170
     0
171
     3
172
     1
173
     0
174
     0
175
     0
176
     0
177
     0
178
     0
270
     2
271
     2
272
     2
273
     2
274
     3
340
11
275
     0
280
     0
281
     0
282
     0
283
     0
284
     8
285
     0
286
     0
287
     3
288
     0
  0
ENDTAB
  0
TABLE
  2
BLOCK_RECORD
  5
1
330
0
100
AcDbSymbolTable
 70
     1
  0
BLOCK_RECORD
  5
1F
330
1
100
AcDbSymbolTableRecord
100
AcDbBlockTableRecord
  2
*MODEL_SPACE
  0
BLOCK_RECORD
  5
1B
330
1
100
AcDbSymbolTableRecord
100
AcDbBlockTableRecord
  2
*PAPER_SPACE
  0
ENDTAB
  0
ENDSEC
  0
SECTION
  2
BLOCKS
  0
BLOCK
  5
20
330
1F
100
AcDbEntity
  8
0
100
AcDbBlockBegin
  2
*MODEL_SPACE
 70
     0
 10
0.0
 20
0.0
 30
0.0
  3
*MODEL_SPACE
  1

  0
ENDBLK
  5
21
330
1F
100
AcDbEntity
  8
0
100
AcDbBlockEnd
  0
BLOCK
  5
1C
330
1B
100
AcDbEntity
 67
     1
  8
0
100
AcDbBlockBegin
  2
*PAPER_SPACE
  1

  0
ENDBLK
  5
1D
330
1B
100
AcDbEntity
 67
     1
  8
0
100
AcDbBlockEnd
  0
ENDSEC
  0
SECTION
  2
ENTITIES
  0
SPLINE
  5
100
100
AcDbEntity
  8
Layer_1
 62
7
100
AcDbSpline
 70
8
 71
3
 72
8
 73
4
 74
0
 40
0
 40
0
 40
0
 40
0
 40
1
 40
1
 40
1
 40
1
 10
42.144833
 20
198.526579
 30
0.0
 10
42.144833
 20
194.168372
 30
0.0
 10
39.824021
 20
190.141224
 30
0.0
 10
36.056624
 20
187.962121
 30
0.0
  0
SPLINE
  5
101
100
AcDbEntity
  8
Layer_1
 62
7
100
AcDbSpline
 70
8
 71
3
 72
8
 73
4
 74
0
 40
0
 40
0
 40
0
 40
0
 40
1
 40
1
 40
1
 40
1
 10
36.056624
 20
187.962121
 30
0.0
 10
32.289227
 20
185.783018
 30
0.0
 10
27.647603
 20
185.783018
 30
0.0
 10
23.880206
 20
187.962121
 30
0.0
  0
SPLINE
  5
102
100
AcDbEntity
  8
Layer_1
 62
7
100
AcDbSpline
 70
8
 71
3
 72
8
 73
4
 74
0
 40
0
 40
0
 40
0
 40
0
 40
1
 40
1
 40
1
 40
1
 10
23.880206
 20
187.962121
 30
0.0
 10
20.112809
 20
190.141224
 30
0.0
 10
17.791997
 20
194.168372
 30
0.0
 10
17.791997
 20
198.526579
 30
0.0
  0
SPLINE
  5
103
100
AcDbEntity
  8
Layer_1
 62
7
100
AcDbSpline
 70
8
 71
3
 72
8
 73
4
 74
0
 40
0
 40
0
 40
0
 40
0
 40
1
 40
1
 40
1
 40
1
 10
17.791997
 20
198.526579
 30
0.0
 10
17.791997
 20
202.884785
 30
0.0
 10
20.112809
 20
206.911933
 30
0.0
 10
23.880206
 20
209.091036
 30
0.0
  0
SPLINE
  5
104
100
AcDbEntity
  8
Layer_1
 62
7
100
AcDbSpline
 70
8
 71
3
 72
8
 73
4
 74
0
 40
0
 40
0
 40
0
 40
0
 40
1
 40
1
 40
1
 40
1
 10
23.880206
 20
209.091036
 30
0.0
 10
27.647603
 20
211.270139
 30
0.0
 10
32.289227
 20
211.270139
 30
0.0
 10
36.056624
 20
209.091036
 30
0.0
  0
SPLINE
  5
105
100
AcDbEntity
  8
Layer_1
 62
7
100
AcDbSpline
 70
8
 71
3
 72
8
 73
4
 74
0
 40
0
 40
0
 40
0
 40
0
 40
1
 40
1
 40
1
 40
1
 10
36.056624
 20
209.091036
 30
0.0
 10
39.824021
 20
206.911933
 30
0.0
 10
42.144833
 20
202.884785
 30
0.0
 10
42.144833
 20
198.526579
 30
0.0
  0
LWPOLYLINE
  5
106
100
AcDbEntity
  8
Layer_1
 62
7
100
AcDbPolyline
 90
19
 70
1
 10
24.530490
 20
193.607871
 30
0.0
 10
22.097862
 20
191.200851
 30
0.0
 10
22.099370
 20
190.872701
 30
0.0
 10
22.305628
 20
190.703392
 30
0.0
 10
22.686803
 20
190.701540
 30
0.0
 10
25.049014
 20
193.063750
 30
0.0
 10
25.977252
 20
192.135510
 30
0.0
 10
26.371750
 20
191.907746
 30
0.0
 10
26.937502
 20
191.828231
 30
0.0
 10
27.334403
 20
191.879444
 30
0.0
 10
27.628879
 20
192.033084
 30
0.0
 10
27.948961
 20
192.250741
 30
0.0
 10
28.979627
 20
193.281407
 30
0.0
 10
24.755714
 20
197.505319
 30
0.0
 10
23.522452
 20
196.272059
 30
0.0
 10
23.323280
 20
195.846551
 30
0.0
 10
23.305172
 20
195.411994
 30
0.0
 10
23.305172
 20
195.040810
 30
0.0
 10
23.547661
 20
194.620805
 30
0.0
  0
LWPOLYLINE
  5
107
100
AcDbEntity
  8
Layer_1
 62
7
100
AcDbPolyline
 90
10
 70
1
 10
25.188271
 20
197.865419
 30
0.0
 10
29.368634
 20
193.685058
 30
0.0
 10
29.832615
 20
194.149039
 30
0.0
 10
30.099553
 20
195.145264
 30
0.0
 10
30.887077
 20
195.932789
 30
0.0
 10
27.398864
 20
199.421003
 30
0.0
 10
26.758265
 20
198.780407
 30
0.0
 10
26.624918
 20
198.703418
 30
0.0
 10
25.849231
 20
198.511537
 30
0.0
 10
25.188271
 20
197.865419
 30
0.0
  0
LWPOLYLINE
  5
108
100
AcDbEntity
  8
Layer_1
 62
7
100
AcDbPolyline
 90
5
 70
1
 10
27.820940
 20
199.817473
 30
0.0
 10
29.101269
 20
201.097805
 30
0.0
 10
32.506946
 20
197.692125
 30
0.0
 10
31.242849
 20
196.428025
 30
0.0
 10
27.820940
 20
199.817473
 30
0.0
  0
LWPOLYLINE
  5
109
100
AcDbEntity
  8
Layer_1
 62
7
100
AcDbPolyline
 90
8
 70
1
 10
29.497642
 20
201.559167
 30
0.0
 10
33.001273
 20
198.055541
 30
0.0
 10
33.336243
 20
198.281871
 30
0.0
 10
34.114827
 20
198.444830
 30
0.0
 10
35.219330
 20
199.549333
 30
0.0
 10
30.991440
 20
203.777227
 30
0.0
 10
29.923147
 20
202.708935
 30
0.0
 10
29.497642
 20
201.559167
 30
0.0
  0
LWPOLYLINE
  5
10a
100
AcDbEntity
  8
Layer_1
 62
7
100
AcDbPolyline
 90
21
 70
1
 10
31.416943
 20
204.130305
 30
0.0
 10
35.572409
 20
199.974839
 30
0.0
 10
36.206139
 20
200.608569
 30
0.0
 10
36.414366
 20
201.034075
 30
0.0
 10
36.486793
 20
201.414315
 30
0.0
 10
36.414366
 20
201.866980
 30
0.0
 10
36.323831
 20
202.174791
 30
0.0
 10
35.183117
 20
203.315508
 30
0.0
 10
37.564134
 20
205.696528
 30
0.0
 10
37.564134
 20
205.696528
 30
0.0
 10
37.566515
 20
205.903802
 30
0.0
 10
37.330660
 20
206.192391
 30
0.0
 10
37.120576
 20
206.194508
 30
0.0
 10
37.120576
 20
206.194508
 30
0.0
 10
34.730505
 20
203.804437
 30
0.0
 10
33.716534
 20
204.818407
 30
0.0
 10
33.426829
 20
204.927045
 30
0.0
 10
32.992272
 20
205.035686
 30
0.0
 10
32.575820
 20
205.035686
 30
0.0
 10
32.322325
 20
204.963259
 30
0.0
 10
32.014515
 20
204.782194
 30
0.0
  0
ENDSEC
  0
SECTION
  2
OBJECTS
  0
DICTIONARY
  5
C
330
0
100
AcDbDictionary
  3
ACAD_GROUP
350
D
  3
ACAD_MLINESTYLE
350
17
  0
DICTIONARY
  5
D
330
C
100
AcDbDictionary
  0
DICTIONARY
  5
1A
330
C
100
AcDbDictionary
  0
DICTIONARY
  5
17
330
C
100
AcDbDictionary
  3
STANDARD
350
18
  0
DICTIONARY
  5
19
330
C
100
AcDbDictionary
  0
ENDSEC
  0
EOF
