<?xml version="1.0" encoding="UTF-8" standalone="no"?>
<svg
   xmlns:dc="http://purl.org/dc/elements/1.1/"
   xmlns:cc="http://creativecommons.org/ns#"
   xmlns:rdf="http://www.w3.org/1999/02/22-rdf-syntax-ns#"
   xmlns:svg="http://www.w3.org/2000/svg"
   xmlns="http://www.w3.org/2000/svg"
   xmlns:sodipodi="http://sodipodi.sourceforge.net/DTD/sodipodi-0.dtd"
   xmlns:inkscape="http://www.inkscape.org/namespaces/inkscape"
   width="793.700787402"
   height="1122.51968504"
   version="1.1"
   id="svg71"
   sodipodi:docname="rysunek.svg"
   inkscape:version="0.92.4 (unknown)">
  <metadata
     id="metadata75">
    <rdf:RDF>
      <cc:Work
         rdf:about="">
        <dc:format>image/svg+xml</dc:format>
        <dc:type
           rdf:resource="http://purl.org/dc/dcmitype/StillImage" />
        <dc:title></dc:title>
      </cc:Work>
    </rdf:RDF>
  </metadata>
  <sodipodi:namedview
     pagecolor="#ffffff"
     bordercolor="#666666"
     borderopacity="1"
     objecttolerance="10"
     gridtolerance="10"
     guidetolerance="10"
     inkscape:pageopacity="0"
     inkscape:pageshadow="2"
     inkscape:window-width="1366"
     inkscape:window-height="704"
     id="namedview73"
     showgrid="false"
     inkscape:zoom="128"
     inkscape:cx="142.09797"
     inkscape:cy="778.42766"
     inkscape:window-x="0"
     inkscape:window-y="27"
     inkscape:window-maximized="1"
     inkscape:current-layer="g69" />
  <desc
     id="desc29">/home/bartosz/projekty/arm/workspace/Thermometer/doc/pcb/rysunek.dxf - scale = 1.000000, origin = (0.000000, 0.000000), method = manual</desc>
  <defs
     id="defs43">
    <marker
       id="DistanceX"
       orient="auto"
       refX="0.0"
       refY="0.0"
       style="overflow:visible">
      <path
         d="M 3,-3 L -3,3 M 0,-5 L  0,5"
         style="stroke:#000000; stroke-width:0.5"
         id="path31" />
    </marker>
    <pattern
       height="8"
       id="Hatch"
       patternUnits="userSpaceOnUse"
       width="8"
       x="0"
       y="0">
      <path
         d="M8 4 l-4,4"
         linecap="square"
         stroke="#000000"
         stroke-width="0.25"
         id="path34" />
      <path
         d="M6 2 l-4,4"
         linecap="square"
         stroke="#000000"
         stroke-width="0.25"
         id="path36" />
      <path
         d="M4 0 l-4,4"
         linecap="square"
         stroke="#000000"
         stroke-width="0.25"
         id="path38" />
    </pattern>
    <symbol
       id="*MODEL_SPACE" />
    <symbol
       id="*PAPER_SPACE" />
  </defs>
  <g
     inkscape:groupmode="layer"
     inkscape:label="0"
     id="g45" />
  <g
     inkscape:groupmode="layer"
     inkscape:label="Layer_1"
     id="g69">
    <path
       d="M 159.287558,372.183009 C 159.287558,388.654972 150.515985,403.875689 136.277004,412.111669"
       style="stroke:#000000;fill:none"
       id="path47" />
    <path
       d="M 136.277004,412.111669 C 122.038023,420.347649 104.494877,420.347649 90.255897,412.111669"
       style="stroke:#000000;fill:none"
       id="path49" />
    <path
       d="M 90.255897,412.111669 C 76.016916,403.875689 67.245343,388.654972 67.245343,372.183009"
       style="stroke:#000000;fill:none"
       id="path51" />
    <path
       d="M 67.245343,372.183009 C 67.245343,355.711049 76.016916,340.490332 90.255897,332.254352"
       style="stroke:#000000;fill:none"
       id="path53" />
    <path
       d="M 90.255897,332.254352 C 104.494877,324.018372 122.038023,324.018372 136.277004,332.254352"
       style="stroke:#000000;fill:none"
       id="path55" />
    <path
       d="M 136.277004,332.254352 C 150.515985,340.490332 159.287558,355.711049 159.287558,372.183009"
       style="stroke:#000000;fill:none"
       id="path57" />
    <path
       d="m 92.713663,390.7734 -9.194185,9.0974 0.0057,1.24025 0.779557,0.63991 1.440664,0.007 8.928041,-8.92804 3.508301,3.50831 1.491016,0.86084 2.138273,0.30053 1.5001,-0.19356 1.11298,-0.58069 1.20976,-0.82264 3.89543,-3.89543 -15.964395,-15.96439 -4.661148,4.66114 -0.752776,1.60822 -0.06844,1.64242 v 1.4029 l 0.916494,1.58742 z"
       style="fill:none;stroke:#000000"
       id="path59"
       inkscape:connector-curvature="0"
       sodipodi:nodetypes="cccccccccccccccccccc" />
    <path
       d="M 95.199764,374.681881 L 110.999562,390.481671 L 112.753191,388.728042 L 113.762090,384.962782 L 116.738559,381.986309 L 103.554762,368.802508 L 101.133600,371.223659 L 100.629611,371.514641 L 97.697881,372.239860 L 95.199764,374.681881 z"
       style="stroke:#000000;fill:none"
       id="path61" />
    <path
       d="M 105.150009,367.304039 L 109.989048,362.464989 L 122.860898,375.336850 L 118.083209,380.114551 L 105.150009,367.304039 z"
       style="stroke:#000000;fill:none"
       id="path63" />
    <path
       d="M 111.487151,360.721259 L 124.729221,373.963310 L 125.995249,373.107889 L 128.937929,372.491981 L 133.112428,368.317482 L 117.133002,352.338040 L 113.095359,356.375679 L 111.487151,360.721259 z"
       style="stroke:#000000;fill:none"
       id="path65" />
    <path
       d="m 118.7412,351.00357 15.7057,15.7057 2.3952,-2.3952 0.787,-1.60821 0.27374,-1.43713 -0.27374,-1.71086 -0.34218,-1.16338 -4.31136,-4.31137 8.99912,-8.99913 v 0 l 0.009,-0.7834 -0.89142,-1.09073 -0.79402,-0.008 v 0 l -9.03334,9.03334 -3.83233,-3.83233 -1.09495,-0.4106 -1.64242,-0.41061 h -1.57399 l -0.95809,0.27374 -1.16338,0.68434 z"
       style="fill:none;stroke:#000000"
       id="path67"
       inkscape:connector-curvature="0"
       sodipodi:nodetypes="cccccccccccccccccccccc" />
  </g>
</svg>
