G04 #@! TF.GenerationSoftware,KiCad,Pcbnew,5.1.2-1.fc30*
G04 #@! TF.CreationDate,2019-08-07T12:15:18+02:00*
G04 #@! TF.ProjectId,term,7465726d-2e6b-4696-9361-645f70636258,rev?*
G04 #@! TF.SameCoordinates,Original*
G04 #@! TF.FileFunction,Legend,Bot*
G04 #@! TF.FilePolarity,Positive*
%FSLAX46Y46*%
G04 Gerber Fmt 4.6, Leading zero omitted, Abs format (unit mm)*
G04 Created by KiCad (PCBNEW 5.1.2-1.fc30) date 2019-08-07 12:15:18*
%MOMM*%
%LPD*%
G04 APERTURE LIST*
%ADD10C,0.120000*%
%ADD11C,0.150000*%
G04 APERTURE END LIST*
D10*
X159744000Y-110638000D02*
X158244000Y-110638000D01*
X158244000Y-110638000D02*
X158244000Y-110368000D01*
X158244000Y-110368000D02*
X155414000Y-110368000D01*
X159744000Y-103738000D02*
X158244000Y-103738000D01*
X158244000Y-103738000D02*
X158244000Y-104008000D01*
X158244000Y-104008000D02*
X157144000Y-104008000D01*
D11*
X185989000Y-108564000D02*
X190439000Y-108564000D01*
X184464000Y-115464000D02*
X190439000Y-115464000D01*
X161475904Y-111140380D02*
X161475904Y-111949904D01*
X161428285Y-112045142D01*
X161380666Y-112092761D01*
X161285428Y-112140380D01*
X161094952Y-112140380D01*
X160999714Y-112092761D01*
X160952095Y-112045142D01*
X160904476Y-111949904D01*
X160904476Y-111140380D01*
X160475904Y-111235619D02*
X160428285Y-111188000D01*
X160333047Y-111140380D01*
X160094952Y-111140380D01*
X159999714Y-111188000D01*
X159952095Y-111235619D01*
X159904476Y-111330857D01*
X159904476Y-111426095D01*
X159952095Y-111568952D01*
X160523523Y-112140380D01*
X159904476Y-112140380D01*
X188975904Y-115766380D02*
X188975904Y-116575904D01*
X188928285Y-116671142D01*
X188880666Y-116718761D01*
X188785428Y-116766380D01*
X188594952Y-116766380D01*
X188499714Y-116718761D01*
X188452095Y-116671142D01*
X188404476Y-116575904D01*
X188404476Y-115766380D01*
X188023523Y-115766380D02*
X187404476Y-115766380D01*
X187737809Y-116147333D01*
X187594952Y-116147333D01*
X187499714Y-116194952D01*
X187452095Y-116242571D01*
X187404476Y-116337809D01*
X187404476Y-116575904D01*
X187452095Y-116671142D01*
X187499714Y-116718761D01*
X187594952Y-116766380D01*
X187880666Y-116766380D01*
X187975904Y-116718761D01*
X188023523Y-116671142D01*
M02*
