G04 #@! TF.GenerationSoftware,KiCad,Pcbnew,5.1.2-1.fc30*
G04 #@! TF.CreationDate,2019-08-07T12:15:18+02:00*
G04 #@! TF.ProjectId,term,7465726d-2e6b-4696-9361-645f70636258,rev?*
G04 #@! TF.SameCoordinates,Original*
G04 #@! TF.FileFunction,Copper,L2,Bot*
G04 #@! TF.FilePolarity,Positive*
%FSLAX46Y46*%
G04 Gerber Fmt 4.6, Leading zero omitted, Abs format (unit mm)*
G04 Created by KiCad (PCBNEW 5.1.2-1.fc30) date 2019-08-07 12:15:18*
%MOMM*%
%LPD*%
G04 APERTURE LIST*
%ADD10O,1.600000X1.600000*%
%ADD11C,1.600000*%
%ADD12R,1.800000X1.800000*%
%ADD13C,1.800000*%
%ADD14C,1.300000*%
%ADD15R,1.300000X1.300000*%
%ADD16R,2.200000X1.200000*%
%ADD17R,6.400000X5.800000*%
%ADD18R,1.450000X0.450000*%
%ADD19R,1.700000X1.700000*%
%ADD20O,1.700000X1.700000*%
%ADD21C,2.000000*%
%ADD22C,1.500000*%
%ADD23C,0.350000*%
%ADD24C,0.250000*%
%ADD25C,0.254000*%
G04 APERTURE END LIST*
D10*
X172760000Y-74600000D03*
D11*
X162600000Y-74600000D03*
D12*
X183134000Y-93980000D03*
D13*
X185674000Y-93980000D03*
X188214000Y-93980000D03*
X190754000Y-93980000D03*
X193294000Y-93980000D03*
X195834000Y-93980000D03*
X195834000Y-78740000D03*
X193294000Y-78740000D03*
X190754000Y-78740000D03*
X188214000Y-78740000D03*
X185674000Y-78740000D03*
X183134000Y-78740000D03*
D14*
X162870000Y-124330000D03*
X164140000Y-125600000D03*
D15*
X161600000Y-125600000D03*
D16*
X156514000Y-109468000D03*
X156514000Y-104908000D03*
D17*
X162814000Y-107188000D03*
D18*
X185264000Y-114939000D03*
X185264000Y-114289000D03*
X185264000Y-113639000D03*
X185264000Y-112989000D03*
X185264000Y-112339000D03*
X185264000Y-111689000D03*
X185264000Y-111039000D03*
X185264000Y-110389000D03*
X185264000Y-109739000D03*
X185264000Y-109089000D03*
X191164000Y-109089000D03*
X191164000Y-109739000D03*
X191164000Y-110389000D03*
X191164000Y-111039000D03*
X191164000Y-111689000D03*
X191164000Y-112339000D03*
X191164000Y-112989000D03*
X191164000Y-113639000D03*
X191164000Y-114289000D03*
X191164000Y-114939000D03*
D19*
X136144000Y-104648000D03*
D20*
X136144000Y-107188000D03*
D21*
X144272000Y-105156000D03*
X144272000Y-110156000D03*
X149218000Y-115570000D03*
X156718000Y-115570000D03*
X156718000Y-123444000D03*
X149218000Y-123444000D03*
D10*
X169672000Y-124206000D03*
D11*
X179832000Y-124206000D03*
X186944000Y-121158000D03*
D10*
X197104000Y-121158000D03*
X170942000Y-118110000D03*
D11*
X160782000Y-118110000D03*
X206502000Y-113030000D03*
D10*
X216662000Y-113030000D03*
X206502000Y-99568000D03*
D11*
X216662000Y-99568000D03*
X185700000Y-74600000D03*
D10*
X175540000Y-74600000D03*
D11*
X197866000Y-76200000D03*
D10*
X208026000Y-76200000D03*
X198374000Y-117348000D03*
D11*
X208534000Y-117348000D03*
X216662000Y-105410000D03*
D10*
X206502000Y-105410000D03*
D22*
X208280000Y-121158000D03*
X206248000Y-80772000D03*
X195326000Y-82296000D03*
X181356000Y-108966000D03*
X178562000Y-96774000D03*
X181102000Y-106172000D03*
X207264000Y-89916000D03*
X198628000Y-86106000D03*
X208788000Y-83820000D03*
X196596000Y-84836000D03*
X179578000Y-81534000D03*
X185420000Y-81788000D03*
X182372000Y-116078000D03*
X180848000Y-118364000D03*
X192278000Y-106426000D03*
X200660000Y-108204000D03*
D23*
X156266000Y-105156000D02*
X156514000Y-104908000D01*
X144272000Y-105156000D02*
X156266000Y-105156000D01*
X192735001Y-111192999D02*
X210760999Y-111192999D01*
X191164000Y-111689000D02*
X192239000Y-111689000D01*
X192239000Y-111689000D02*
X192735001Y-111192999D01*
X210760999Y-111192999D02*
X211836000Y-112268000D01*
X211836000Y-117602000D02*
X211074000Y-118364000D01*
X211328000Y-118110000D02*
X211074000Y-118364000D01*
X211836000Y-112268000D02*
X211836000Y-117602000D01*
X211074000Y-118364000D02*
X208280000Y-121158000D01*
X139112000Y-110156000D02*
X144272000Y-110156000D01*
X136144000Y-107188000D02*
X139112000Y-110156000D01*
X149218000Y-115102000D02*
X149218000Y-115570000D01*
X144272000Y-110156000D02*
X149218000Y-115102000D01*
X155320000Y-109468000D02*
X156514000Y-109468000D01*
X149218000Y-115570000D02*
X155320000Y-109468000D01*
X149218000Y-123444000D02*
X149218000Y-115570000D01*
X185264000Y-119478000D02*
X185264000Y-114939000D01*
X186944000Y-121158000D02*
X185264000Y-119478000D01*
X184068000Y-113030000D02*
X181102000Y-113030000D01*
X185264000Y-112989000D02*
X184109000Y-112989000D01*
X184109000Y-112989000D02*
X184068000Y-113030000D01*
X176063000Y-112989000D02*
X185264000Y-112989000D01*
X170942000Y-118110000D02*
X176063000Y-112989000D01*
X206248000Y-80772000D02*
X196850000Y-80772000D01*
X196850000Y-80772000D02*
X195326000Y-82296000D01*
X177475000Y-111689000D02*
X185264000Y-111689000D01*
X190754000Y-99060000D02*
X178562000Y-99060000D01*
X176276000Y-110490000D02*
X177475000Y-111689000D01*
X178562000Y-99060000D02*
X176276000Y-101346000D01*
X195834000Y-93980000D02*
X190754000Y-99060000D01*
X176276000Y-101346000D02*
X176276000Y-110490000D01*
X193294000Y-78740000D02*
X193294000Y-84582000D01*
X193294000Y-84582000D02*
X196596000Y-87884000D01*
X196596000Y-87884000D02*
X201422000Y-87884000D01*
X201422000Y-87884000D02*
X203200000Y-89662000D01*
X203200000Y-89662000D02*
X203200000Y-95758000D01*
X203200000Y-95758000D02*
X197104000Y-101854000D01*
X197104000Y-101854000D02*
X179324000Y-101854000D01*
X179324000Y-101854000D02*
X179324000Y-110744000D01*
X179619000Y-111039000D02*
X185264000Y-111039000D01*
X179324000Y-110744000D02*
X179619000Y-111039000D01*
X182779000Y-110389000D02*
X185264000Y-110389000D01*
X181356000Y-108966000D02*
X182779000Y-110389000D01*
X183134000Y-78740000D02*
X183134000Y-83312000D01*
X183134000Y-83312000D02*
X177292000Y-89154000D01*
X177292000Y-89154000D02*
X177292000Y-95504000D01*
X177292000Y-95504000D02*
X178562000Y-96774000D01*
X184189000Y-109739000D02*
X185264000Y-109739000D01*
X181851999Y-107401999D02*
X184189000Y-109739000D01*
X181851999Y-106921999D02*
X181851999Y-107401999D01*
X181102000Y-106172000D02*
X181851999Y-106921999D01*
X207264000Y-89916000D02*
X203454000Y-86106000D01*
X203454000Y-86106000D02*
X198628000Y-86106000D01*
X185928000Y-78486000D02*
X185674000Y-78740000D01*
X208788000Y-83820000D02*
X197612000Y-83820000D01*
X197612000Y-83820000D02*
X196596000Y-84836000D01*
X190754000Y-87122000D02*
X190754000Y-93980000D01*
X185420000Y-81788000D02*
X190754000Y-87122000D01*
X216662000Y-102616000D02*
X214630000Y-100584000D01*
X216662000Y-105410000D02*
X216662000Y-102616000D01*
D24*
X214630000Y-81534000D02*
X214630000Y-76330000D01*
D23*
X211452000Y-73152000D02*
X214630000Y-76330000D01*
X179578000Y-80473340D02*
X181102000Y-78949340D01*
X181102000Y-78949340D02*
X181102000Y-75184000D01*
X179578000Y-81534000D02*
X179578000Y-80473340D01*
X181102000Y-75184000D02*
X183134000Y-73152000D01*
X183134000Y-73152000D02*
X211452000Y-73152000D01*
X214630000Y-76330000D02*
X214630000Y-90330000D01*
X214630000Y-100584000D02*
X214630000Y-90330000D01*
X214630000Y-90330000D02*
X214630000Y-81534000D01*
X191164000Y-112339000D02*
X199461000Y-112339000D01*
X199461000Y-112339000D02*
X202946000Y-115824000D01*
X202946000Y-115824000D02*
X202946000Y-122682000D01*
X202946000Y-122682000D02*
X198882000Y-126746000D01*
X179832000Y-124206000D02*
X182880000Y-124206000D01*
X182880000Y-124206000D02*
X185420000Y-126746000D01*
X198882000Y-126746000D02*
X187960000Y-126746000D01*
X185420000Y-126746000D02*
X187960000Y-126746000D01*
X187960000Y-126746000D02*
X185674000Y-126746000D01*
X156584000Y-115570000D02*
X156718000Y-115570000D01*
X159258000Y-118110000D02*
X156718000Y-115570000D01*
X160782000Y-118110000D02*
X159258000Y-118110000D01*
X162514000Y-107188000D02*
X162814000Y-107188000D01*
X156718000Y-112984000D02*
X162514000Y-107188000D01*
X156718000Y-115570000D02*
X156718000Y-112984000D01*
X210734831Y-110389000D02*
X210835831Y-110490000D01*
X191164000Y-110389000D02*
X210734831Y-110389000D01*
X210835831Y-110490000D02*
X211836000Y-110490000D01*
X213291500Y-111945500D02*
X213291500Y-123883500D01*
X211836000Y-110490000D02*
X213291500Y-111945500D01*
X209878990Y-127296010D02*
X209887500Y-127287500D01*
X169096010Y-127296010D02*
X209878990Y-127296010D01*
X213291500Y-123883500D02*
X209887500Y-127287500D01*
X162870000Y-124330000D02*
X163519999Y-123680001D01*
X163519999Y-123680001D02*
X165480001Y-123680001D01*
X165480001Y-123680001D02*
X169096010Y-127296010D01*
X168656000Y-123190000D02*
X169672000Y-124206000D01*
X168656000Y-116078000D02*
X168656000Y-123190000D01*
X185264000Y-112339000D02*
X172395000Y-112339000D01*
X172395000Y-112339000D02*
X168656000Y-116078000D01*
X185264000Y-114289000D02*
X184161000Y-114289000D01*
X184161000Y-114289000D02*
X182372000Y-116078000D01*
X180848000Y-118364000D02*
X180848000Y-114808000D01*
X182017000Y-113639000D02*
X185264000Y-113639000D01*
X180848000Y-114808000D02*
X182017000Y-113639000D01*
X202946000Y-103124000D02*
X206502000Y-99568000D01*
X187140000Y-103124000D02*
X202946000Y-103124000D01*
X185264000Y-109089000D02*
X185264000Y-105000000D01*
X185264000Y-105000000D02*
X187140000Y-103124000D01*
X191164000Y-109089000D02*
X191164000Y-107540000D01*
X191164000Y-107540000D02*
X192278000Y-106426000D01*
X191164000Y-109739000D02*
X199125000Y-109739000D01*
X199125000Y-109739000D02*
X200660000Y-108204000D01*
X191164000Y-112989000D02*
X197063000Y-112989000D01*
X198374000Y-114300000D02*
X198374000Y-117348000D01*
X197063000Y-112989000D02*
X198374000Y-114300000D01*
X191164000Y-113639000D02*
X190089000Y-113639000D01*
X190089000Y-113639000D02*
X187960000Y-111510000D01*
X188759999Y-104610001D02*
X205702001Y-104610001D01*
X205702001Y-104610001D02*
X206502000Y-105410000D01*
X187960000Y-111510000D02*
X187960000Y-105410000D01*
X187960000Y-105410000D02*
X188759999Y-104610001D01*
D25*
G36*
X220015000Y-80152691D02*
G01*
X220015001Y-127715000D01*
X210605512Y-127715000D01*
X213836118Y-124484395D01*
X213867028Y-124459028D01*
X213931962Y-124379905D01*
X213968249Y-124335690D01*
X214037569Y-124206000D01*
X214043463Y-124194973D01*
X214089780Y-124042288D01*
X214101500Y-123923291D01*
X214101500Y-123923288D01*
X214105419Y-123883500D01*
X214101500Y-123843712D01*
X214101500Y-113030000D01*
X215220057Y-113030000D01*
X215247764Y-113311309D01*
X215329818Y-113581808D01*
X215463068Y-113831101D01*
X215642392Y-114049608D01*
X215860899Y-114228932D01*
X216110192Y-114362182D01*
X216380691Y-114444236D01*
X216591508Y-114465000D01*
X216732492Y-114465000D01*
X216943309Y-114444236D01*
X217213808Y-114362182D01*
X217463101Y-114228932D01*
X217681608Y-114049608D01*
X217860932Y-113831101D01*
X217994182Y-113581808D01*
X218076236Y-113311309D01*
X218103943Y-113030000D01*
X218076236Y-112748691D01*
X217994182Y-112478192D01*
X217860932Y-112228899D01*
X217681608Y-112010392D01*
X217463101Y-111831068D01*
X217213808Y-111697818D01*
X216943309Y-111615764D01*
X216732492Y-111595000D01*
X216591508Y-111595000D01*
X216380691Y-111615764D01*
X216110192Y-111697818D01*
X215860899Y-111831068D01*
X215642392Y-112010392D01*
X215463068Y-112228899D01*
X215329818Y-112478192D01*
X215247764Y-112748691D01*
X215220057Y-113030000D01*
X214101500Y-113030000D01*
X214101500Y-111985288D01*
X214105419Y-111945500D01*
X214099934Y-111889812D01*
X214089780Y-111786712D01*
X214043463Y-111634027D01*
X214002783Y-111557919D01*
X213968249Y-111493310D01*
X213892393Y-111400880D01*
X213867028Y-111369972D01*
X213836119Y-111344606D01*
X212436899Y-109945387D01*
X212411528Y-109914472D01*
X212288189Y-109813251D01*
X212147473Y-109738037D01*
X211994788Y-109691720D01*
X211875791Y-109680000D01*
X211875788Y-109680000D01*
X211836000Y-109676081D01*
X211796212Y-109680000D01*
X211126682Y-109680000D01*
X211046304Y-109637037D01*
X210893619Y-109590720D01*
X210774622Y-109579000D01*
X210774619Y-109579000D01*
X210734831Y-109575081D01*
X210695043Y-109579000D01*
X200846684Y-109579000D01*
X201063989Y-109535775D01*
X201316043Y-109431371D01*
X201542886Y-109279799D01*
X201735799Y-109086886D01*
X201887371Y-108860043D01*
X201991775Y-108607989D01*
X202045000Y-108340411D01*
X202045000Y-108067589D01*
X201991775Y-107800011D01*
X201887371Y-107547957D01*
X201735799Y-107321114D01*
X201542886Y-107128201D01*
X201316043Y-106976629D01*
X201063989Y-106872225D01*
X200796411Y-106819000D01*
X200523589Y-106819000D01*
X200256011Y-106872225D01*
X200003957Y-106976629D01*
X199777114Y-107128201D01*
X199584201Y-107321114D01*
X199432629Y-107547957D01*
X199328225Y-107800011D01*
X199275000Y-108067589D01*
X199275000Y-108340411D01*
X199292102Y-108426386D01*
X198789488Y-108929000D01*
X192527072Y-108929000D01*
X192527072Y-108864000D01*
X192514812Y-108739518D01*
X192478502Y-108619820D01*
X192419537Y-108509506D01*
X192340185Y-108412815D01*
X192243494Y-108333463D01*
X192133180Y-108274498D01*
X192013482Y-108238188D01*
X191974000Y-108234299D01*
X191974000Y-107875512D01*
X192055614Y-107793898D01*
X192141589Y-107811000D01*
X192414411Y-107811000D01*
X192681989Y-107757775D01*
X192934043Y-107653371D01*
X193160886Y-107501799D01*
X193353799Y-107308886D01*
X193505371Y-107082043D01*
X193609775Y-106829989D01*
X193663000Y-106562411D01*
X193663000Y-106289589D01*
X193609775Y-106022011D01*
X193505371Y-105769957D01*
X193353799Y-105543114D01*
X193230686Y-105420001D01*
X205061042Y-105420001D01*
X205087764Y-105691309D01*
X205169818Y-105961808D01*
X205303068Y-106211101D01*
X205482392Y-106429608D01*
X205700899Y-106608932D01*
X205950192Y-106742182D01*
X206220691Y-106824236D01*
X206431508Y-106845000D01*
X206572492Y-106845000D01*
X206783309Y-106824236D01*
X207053808Y-106742182D01*
X207303101Y-106608932D01*
X207521608Y-106429608D01*
X207700932Y-106211101D01*
X207834182Y-105961808D01*
X207916236Y-105691309D01*
X207943943Y-105410000D01*
X207916236Y-105128691D01*
X207834182Y-104858192D01*
X207700932Y-104608899D01*
X207521608Y-104390392D01*
X207303101Y-104211068D01*
X207053808Y-104077818D01*
X206783309Y-103995764D01*
X206572492Y-103975000D01*
X206431508Y-103975000D01*
X206229325Y-103994914D01*
X206154190Y-103933252D01*
X206013474Y-103858038D01*
X205860789Y-103811721D01*
X205741792Y-103800001D01*
X205741789Y-103800001D01*
X205702001Y-103796082D01*
X205662213Y-103800001D01*
X203399100Y-103800001D01*
X203521528Y-103699528D01*
X203546900Y-103668612D01*
X206232148Y-100983364D01*
X206431508Y-101003000D01*
X206572492Y-101003000D01*
X206783309Y-100982236D01*
X207053808Y-100900182D01*
X207303101Y-100766932D01*
X207521608Y-100587608D01*
X207700932Y-100369101D01*
X207834182Y-100119808D01*
X207916236Y-99849309D01*
X207943943Y-99568000D01*
X207916236Y-99286691D01*
X207834182Y-99016192D01*
X207700932Y-98766899D01*
X207521608Y-98548392D01*
X207303101Y-98369068D01*
X207053808Y-98235818D01*
X206783309Y-98153764D01*
X206572492Y-98133000D01*
X206431508Y-98133000D01*
X206220691Y-98153764D01*
X205950192Y-98235818D01*
X205700899Y-98369068D01*
X205482392Y-98548392D01*
X205303068Y-98766899D01*
X205169818Y-99016192D01*
X205087764Y-99286691D01*
X205060057Y-99568000D01*
X205086636Y-99837852D01*
X202610488Y-102314000D01*
X197789512Y-102314000D01*
X203744618Y-96358895D01*
X203775528Y-96333528D01*
X203839184Y-96255963D01*
X203876749Y-96210190D01*
X203926048Y-96117957D01*
X203951963Y-96069473D01*
X203998280Y-95916788D01*
X204010000Y-95797791D01*
X204010000Y-95797788D01*
X204013919Y-95758000D01*
X204010000Y-95718212D01*
X204010000Y-89701788D01*
X204013919Y-89662000D01*
X204008258Y-89604526D01*
X203998280Y-89503212D01*
X203958289Y-89371380D01*
X203951963Y-89350526D01*
X203876749Y-89209811D01*
X203800893Y-89117380D01*
X203775528Y-89086472D01*
X203744619Y-89061106D01*
X202022899Y-87339387D01*
X201997528Y-87308472D01*
X201874189Y-87207251D01*
X201733473Y-87132037D01*
X201580788Y-87085720D01*
X201461791Y-87074000D01*
X201461788Y-87074000D01*
X201422000Y-87070081D01*
X201382212Y-87074000D01*
X199618685Y-87074000D01*
X199703799Y-86988886D01*
X199752500Y-86916000D01*
X203118488Y-86916000D01*
X205896102Y-89693614D01*
X205879000Y-89779589D01*
X205879000Y-90052411D01*
X205932225Y-90319989D01*
X206036629Y-90572043D01*
X206188201Y-90798886D01*
X206381114Y-90991799D01*
X206607957Y-91143371D01*
X206860011Y-91247775D01*
X207127589Y-91301000D01*
X207400411Y-91301000D01*
X207667989Y-91247775D01*
X207920043Y-91143371D01*
X208146886Y-90991799D01*
X208339799Y-90798886D01*
X208491371Y-90572043D01*
X208595775Y-90319989D01*
X208649000Y-90052411D01*
X208649000Y-89779589D01*
X208595775Y-89512011D01*
X208491371Y-89259957D01*
X208339799Y-89033114D01*
X208146886Y-88840201D01*
X207920043Y-88688629D01*
X207667989Y-88584225D01*
X207400411Y-88531000D01*
X207127589Y-88531000D01*
X207041614Y-88548102D01*
X204054900Y-85561388D01*
X204029528Y-85530472D01*
X203906189Y-85429251D01*
X203765473Y-85354037D01*
X203612788Y-85307720D01*
X203493791Y-85296000D01*
X203493788Y-85296000D01*
X203454000Y-85292081D01*
X203414212Y-85296000D01*
X199752500Y-85296000D01*
X199703799Y-85223114D01*
X199510886Y-85030201D01*
X199284043Y-84878629D01*
X199031989Y-84774225D01*
X198764411Y-84721000D01*
X198491589Y-84721000D01*
X198224011Y-84774225D01*
X197981000Y-84874883D01*
X197981000Y-84699589D01*
X197967158Y-84630000D01*
X207663500Y-84630000D01*
X207712201Y-84702886D01*
X207905114Y-84895799D01*
X208131957Y-85047371D01*
X208384011Y-85151775D01*
X208651589Y-85205000D01*
X208924411Y-85205000D01*
X209191989Y-85151775D01*
X209444043Y-85047371D01*
X209670886Y-84895799D01*
X209863799Y-84702886D01*
X210015371Y-84476043D01*
X210119775Y-84223989D01*
X210173000Y-83956411D01*
X210173000Y-83683589D01*
X210119775Y-83416011D01*
X210015371Y-83163957D01*
X209863799Y-82937114D01*
X209670886Y-82744201D01*
X209444043Y-82592629D01*
X209191989Y-82488225D01*
X208924411Y-82435000D01*
X208651589Y-82435000D01*
X208384011Y-82488225D01*
X208131957Y-82592629D01*
X207905114Y-82744201D01*
X207712201Y-82937114D01*
X207663500Y-83010000D01*
X197651788Y-83010000D01*
X197612000Y-83006081D01*
X197572212Y-83010000D01*
X197572209Y-83010000D01*
X197453212Y-83021720D01*
X197300527Y-83068037D01*
X197235024Y-83103049D01*
X197159810Y-83143251D01*
X197147673Y-83153212D01*
X197036472Y-83244472D01*
X197011100Y-83275388D01*
X196818386Y-83468102D01*
X196732411Y-83451000D01*
X196459589Y-83451000D01*
X196192011Y-83504225D01*
X195939957Y-83608629D01*
X195713114Y-83760201D01*
X195520201Y-83953114D01*
X195368629Y-84179957D01*
X195264225Y-84432011D01*
X195211000Y-84699589D01*
X195211000Y-84972411D01*
X195264225Y-85239989D01*
X195368629Y-85492043D01*
X195407037Y-85549525D01*
X194104000Y-84246488D01*
X194104000Y-82960081D01*
X194250201Y-83178886D01*
X194443114Y-83371799D01*
X194669957Y-83523371D01*
X194922011Y-83627775D01*
X195189589Y-83681000D01*
X195462411Y-83681000D01*
X195729989Y-83627775D01*
X195982043Y-83523371D01*
X196208886Y-83371799D01*
X196401799Y-83178886D01*
X196553371Y-82952043D01*
X196657775Y-82699989D01*
X196711000Y-82432411D01*
X196711000Y-82159589D01*
X196693898Y-82073614D01*
X197185513Y-81582000D01*
X205123500Y-81582000D01*
X205172201Y-81654886D01*
X205365114Y-81847799D01*
X205591957Y-81999371D01*
X205844011Y-82103775D01*
X206111589Y-82157000D01*
X206384411Y-82157000D01*
X206651989Y-82103775D01*
X206904043Y-81999371D01*
X207130886Y-81847799D01*
X207323799Y-81654886D01*
X207475371Y-81428043D01*
X207579775Y-81175989D01*
X207633000Y-80908411D01*
X207633000Y-80635589D01*
X207579775Y-80368011D01*
X207475371Y-80115957D01*
X207323799Y-79889114D01*
X207130886Y-79696201D01*
X206904043Y-79544629D01*
X206651989Y-79440225D01*
X206384411Y-79387000D01*
X206111589Y-79387000D01*
X205844011Y-79440225D01*
X205591957Y-79544629D01*
X205365114Y-79696201D01*
X205172201Y-79889114D01*
X205123500Y-79962000D01*
X196889787Y-79962000D01*
X196849999Y-79958081D01*
X196810211Y-79962000D01*
X196810209Y-79962000D01*
X196760789Y-79966867D01*
X196812505Y-79932312D01*
X197026312Y-79718505D01*
X197194299Y-79467095D01*
X197310011Y-79187743D01*
X197369000Y-78891184D01*
X197369000Y-78588816D01*
X197310011Y-78292257D01*
X197194299Y-78012905D01*
X197026312Y-77761495D01*
X196812505Y-77547688D01*
X196561095Y-77379701D01*
X196281743Y-77263989D01*
X195985184Y-77205000D01*
X195682816Y-77205000D01*
X195386257Y-77263989D01*
X195106905Y-77379701D01*
X194855495Y-77547688D01*
X194641688Y-77761495D01*
X194564000Y-77877763D01*
X194486312Y-77761495D01*
X194272505Y-77547688D01*
X194021095Y-77379701D01*
X193741743Y-77263989D01*
X193445184Y-77205000D01*
X193142816Y-77205000D01*
X192846257Y-77263989D01*
X192566905Y-77379701D01*
X192315495Y-77547688D01*
X192101688Y-77761495D01*
X192024000Y-77877763D01*
X191946312Y-77761495D01*
X191732505Y-77547688D01*
X191481095Y-77379701D01*
X191201743Y-77263989D01*
X190905184Y-77205000D01*
X190602816Y-77205000D01*
X190306257Y-77263989D01*
X190026905Y-77379701D01*
X189775495Y-77547688D01*
X189561688Y-77761495D01*
X189484000Y-77877763D01*
X189406312Y-77761495D01*
X189192505Y-77547688D01*
X188941095Y-77379701D01*
X188661743Y-77263989D01*
X188365184Y-77205000D01*
X188062816Y-77205000D01*
X187766257Y-77263989D01*
X187486905Y-77379701D01*
X187235495Y-77547688D01*
X187021688Y-77761495D01*
X186944000Y-77877763D01*
X186866312Y-77761495D01*
X186652505Y-77547688D01*
X186401095Y-77379701D01*
X186121743Y-77263989D01*
X185825184Y-77205000D01*
X185522816Y-77205000D01*
X185226257Y-77263989D01*
X184946905Y-77379701D01*
X184695495Y-77547688D01*
X184481688Y-77761495D01*
X184404000Y-77877763D01*
X184326312Y-77761495D01*
X184112505Y-77547688D01*
X183861095Y-77379701D01*
X183581743Y-77263989D01*
X183285184Y-77205000D01*
X182982816Y-77205000D01*
X182686257Y-77263989D01*
X182406905Y-77379701D01*
X182155495Y-77547688D01*
X181941688Y-77761495D01*
X181912000Y-77805926D01*
X181912000Y-76058665D01*
X196431000Y-76058665D01*
X196431000Y-76341335D01*
X196486147Y-76618574D01*
X196594320Y-76879727D01*
X196751363Y-77114759D01*
X196951241Y-77314637D01*
X197186273Y-77471680D01*
X197447426Y-77579853D01*
X197724665Y-77635000D01*
X198007335Y-77635000D01*
X198284574Y-77579853D01*
X198545727Y-77471680D01*
X198780759Y-77314637D01*
X198980637Y-77114759D01*
X199137680Y-76879727D01*
X199245853Y-76618574D01*
X199301000Y-76341335D01*
X199301000Y-76200000D01*
X206584057Y-76200000D01*
X206611764Y-76481309D01*
X206693818Y-76751808D01*
X206827068Y-77001101D01*
X207006392Y-77219608D01*
X207224899Y-77398932D01*
X207474192Y-77532182D01*
X207744691Y-77614236D01*
X207955508Y-77635000D01*
X208096492Y-77635000D01*
X208307309Y-77614236D01*
X208577808Y-77532182D01*
X208827101Y-77398932D01*
X209045608Y-77219608D01*
X209224932Y-77001101D01*
X209358182Y-76751808D01*
X209440236Y-76481309D01*
X209467943Y-76200000D01*
X209440236Y-75918691D01*
X209358182Y-75648192D01*
X209224932Y-75398899D01*
X209045608Y-75180392D01*
X208827101Y-75001068D01*
X208577808Y-74867818D01*
X208307309Y-74785764D01*
X208096492Y-74765000D01*
X207955508Y-74765000D01*
X207744691Y-74785764D01*
X207474192Y-74867818D01*
X207224899Y-75001068D01*
X207006392Y-75180392D01*
X206827068Y-75398899D01*
X206693818Y-75648192D01*
X206611764Y-75918691D01*
X206584057Y-76200000D01*
X199301000Y-76200000D01*
X199301000Y-76058665D01*
X199245853Y-75781426D01*
X199137680Y-75520273D01*
X198980637Y-75285241D01*
X198780759Y-75085363D01*
X198545727Y-74928320D01*
X198284574Y-74820147D01*
X198007335Y-74765000D01*
X197724665Y-74765000D01*
X197447426Y-74820147D01*
X197186273Y-74928320D01*
X196951241Y-75085363D01*
X196751363Y-75285241D01*
X196594320Y-75520273D01*
X196486147Y-75781426D01*
X196431000Y-76058665D01*
X181912000Y-76058665D01*
X181912000Y-75519512D01*
X183469513Y-73962000D01*
X184411036Y-73962000D01*
X184320147Y-74181426D01*
X184265000Y-74458665D01*
X184265000Y-74741335D01*
X184320147Y-75018574D01*
X184428320Y-75279727D01*
X184585363Y-75514759D01*
X184785241Y-75714637D01*
X185020273Y-75871680D01*
X185281426Y-75979853D01*
X185558665Y-76035000D01*
X185841335Y-76035000D01*
X186118574Y-75979853D01*
X186379727Y-75871680D01*
X186614759Y-75714637D01*
X186814637Y-75514759D01*
X186971680Y-75279727D01*
X187079853Y-75018574D01*
X187135000Y-74741335D01*
X187135000Y-74458665D01*
X187079853Y-74181426D01*
X186988964Y-73962000D01*
X211116488Y-73962000D01*
X213820000Y-76665513D01*
X213820001Y-83351791D01*
X213820000Y-90369790D01*
X213820001Y-90369800D01*
X213820000Y-100544212D01*
X213816081Y-100584000D01*
X213820000Y-100623788D01*
X213820000Y-100623790D01*
X213831720Y-100742787D01*
X213878037Y-100895472D01*
X213878038Y-100895473D01*
X213953251Y-101036189D01*
X213969280Y-101055720D01*
X214054472Y-101159528D01*
X214085387Y-101184899D01*
X215852001Y-102951514D01*
X215852000Y-104225365D01*
X215747241Y-104295363D01*
X215547363Y-104495241D01*
X215390320Y-104730273D01*
X215282147Y-104991426D01*
X215227000Y-105268665D01*
X215227000Y-105551335D01*
X215282147Y-105828574D01*
X215390320Y-106089727D01*
X215547363Y-106324759D01*
X215747241Y-106524637D01*
X215982273Y-106681680D01*
X216243426Y-106789853D01*
X216520665Y-106845000D01*
X216803335Y-106845000D01*
X217080574Y-106789853D01*
X217341727Y-106681680D01*
X217576759Y-106524637D01*
X217776637Y-106324759D01*
X217933680Y-106089727D01*
X218041853Y-105828574D01*
X218097000Y-105551335D01*
X218097000Y-105268665D01*
X218041853Y-104991426D01*
X217933680Y-104730273D01*
X217776637Y-104495241D01*
X217576759Y-104295363D01*
X217472000Y-104225365D01*
X217472000Y-102655788D01*
X217475919Y-102616000D01*
X217469268Y-102548472D01*
X217460280Y-102457212D01*
X217413963Y-102304527D01*
X217378951Y-102239024D01*
X217338749Y-102163810D01*
X217262893Y-102071380D01*
X217237528Y-102040472D01*
X217206618Y-102015105D01*
X216065784Y-100874271D01*
X216243426Y-100947853D01*
X216520665Y-101003000D01*
X216803335Y-101003000D01*
X217080574Y-100947853D01*
X217341727Y-100839680D01*
X217576759Y-100682637D01*
X217776637Y-100482759D01*
X217933680Y-100247727D01*
X218041853Y-99986574D01*
X218097000Y-99709335D01*
X218097000Y-99426665D01*
X218041853Y-99149426D01*
X217933680Y-98888273D01*
X217776637Y-98653241D01*
X217576759Y-98453363D01*
X217341727Y-98296320D01*
X217080574Y-98188147D01*
X216803335Y-98133000D01*
X216520665Y-98133000D01*
X216243426Y-98188147D01*
X215982273Y-98296320D01*
X215747241Y-98453363D01*
X215547363Y-98653241D01*
X215440000Y-98813921D01*
X215440000Y-76369788D01*
X215443919Y-76330000D01*
X215431115Y-76200000D01*
X215428280Y-76171212D01*
X215386960Y-76035000D01*
X215381963Y-76018526D01*
X215306749Y-75877811D01*
X215230893Y-75785380D01*
X215205528Y-75754472D01*
X215174619Y-75729106D01*
X212052900Y-72607388D01*
X212027528Y-72576472D01*
X211904189Y-72475251D01*
X211763473Y-72400037D01*
X211610788Y-72353720D01*
X211491791Y-72342000D01*
X211491788Y-72342000D01*
X211452000Y-72338081D01*
X211412212Y-72342000D01*
X183173788Y-72342000D01*
X183134000Y-72338081D01*
X183094212Y-72342000D01*
X183094209Y-72342000D01*
X182975212Y-72353720D01*
X182822527Y-72400037D01*
X182757024Y-72435049D01*
X182681810Y-72475251D01*
X182617796Y-72527786D01*
X182558472Y-72576472D01*
X182533105Y-72607382D01*
X180557383Y-74583105D01*
X180526473Y-74608472D01*
X180501108Y-74639380D01*
X180425251Y-74731811D01*
X180350038Y-74872527D01*
X180303721Y-75025213D01*
X180288081Y-75184000D01*
X180292001Y-75223798D01*
X180292000Y-78613827D01*
X179033383Y-79872445D01*
X179002473Y-79897812D01*
X178977108Y-79928720D01*
X178901251Y-80021151D01*
X178826038Y-80161867D01*
X178782125Y-80306629D01*
X178779721Y-80314553D01*
X178770536Y-80407806D01*
X178695114Y-80458201D01*
X178502201Y-80651114D01*
X178350629Y-80877957D01*
X178246225Y-81130011D01*
X178193000Y-81397589D01*
X178193000Y-81670411D01*
X178246225Y-81937989D01*
X178350629Y-82190043D01*
X178502201Y-82416886D01*
X178695114Y-82609799D01*
X178921957Y-82761371D01*
X179174011Y-82865775D01*
X179441589Y-82919000D01*
X179714411Y-82919000D01*
X179981989Y-82865775D01*
X180234043Y-82761371D01*
X180460886Y-82609799D01*
X180653799Y-82416886D01*
X180805371Y-82190043D01*
X180909775Y-81937989D01*
X180963000Y-81670411D01*
X180963000Y-81397589D01*
X180909775Y-81130011D01*
X180805371Y-80877957D01*
X180653799Y-80651114D01*
X180599769Y-80597084D01*
X181646619Y-79550234D01*
X181677528Y-79524868D01*
X181757345Y-79427609D01*
X181773701Y-79467095D01*
X181941688Y-79718505D01*
X182155495Y-79932312D01*
X182324000Y-80044904D01*
X182324001Y-82976486D01*
X176747388Y-88553100D01*
X176716472Y-88578472D01*
X176646703Y-88663487D01*
X176615251Y-88701811D01*
X176575049Y-88777025D01*
X176540037Y-88842528D01*
X176493720Y-88995213D01*
X176484732Y-89086472D01*
X176478081Y-89154000D01*
X176482000Y-89193788D01*
X176482001Y-95464202D01*
X176478081Y-95504000D01*
X176493721Y-95662787D01*
X176540038Y-95815473D01*
X176615251Y-95956189D01*
X176670852Y-96023939D01*
X176716473Y-96079528D01*
X176747383Y-96104895D01*
X177194102Y-96551614D01*
X177177000Y-96637589D01*
X177177000Y-96910411D01*
X177230225Y-97177989D01*
X177334629Y-97430043D01*
X177486201Y-97656886D01*
X177679114Y-97849799D01*
X177905957Y-98001371D01*
X178158011Y-98105775D01*
X178425589Y-98159000D01*
X178698411Y-98159000D01*
X178965989Y-98105775D01*
X179218043Y-98001371D01*
X179444886Y-97849799D01*
X179637799Y-97656886D01*
X179789371Y-97430043D01*
X179893775Y-97177989D01*
X179947000Y-96910411D01*
X179947000Y-96637589D01*
X179893775Y-96370011D01*
X179789371Y-96117957D01*
X179637799Y-95891114D01*
X179444886Y-95698201D01*
X179218043Y-95546629D01*
X178965989Y-95442225D01*
X178698411Y-95389000D01*
X178425589Y-95389000D01*
X178339614Y-95406102D01*
X178102000Y-95168488D01*
X178102000Y-89489512D01*
X183678618Y-83912895D01*
X183709528Y-83887528D01*
X183810749Y-83764189D01*
X183812881Y-83760201D01*
X183885963Y-83623474D01*
X183896743Y-83587937D01*
X183932280Y-83470788D01*
X183944000Y-83351791D01*
X183944000Y-83351788D01*
X183947919Y-83312000D01*
X183944000Y-83272212D01*
X183944000Y-80044904D01*
X184112505Y-79932312D01*
X184326312Y-79718505D01*
X184404000Y-79602237D01*
X184481688Y-79718505D01*
X184695495Y-79932312D01*
X184946905Y-80100299D01*
X185226257Y-80216011D01*
X185522816Y-80275000D01*
X185825184Y-80275000D01*
X186121743Y-80216011D01*
X186401095Y-80100299D01*
X186652505Y-79932312D01*
X186866312Y-79718505D01*
X186944000Y-79602237D01*
X187021688Y-79718505D01*
X187235495Y-79932312D01*
X187486905Y-80100299D01*
X187766257Y-80216011D01*
X188062816Y-80275000D01*
X188365184Y-80275000D01*
X188661743Y-80216011D01*
X188941095Y-80100299D01*
X189192505Y-79932312D01*
X189406312Y-79718505D01*
X189484000Y-79602237D01*
X189561688Y-79718505D01*
X189775495Y-79932312D01*
X190026905Y-80100299D01*
X190306257Y-80216011D01*
X190602816Y-80275000D01*
X190905184Y-80275000D01*
X191201743Y-80216011D01*
X191481095Y-80100299D01*
X191732505Y-79932312D01*
X191946312Y-79718505D01*
X192024000Y-79602237D01*
X192101688Y-79718505D01*
X192315495Y-79932312D01*
X192484000Y-80044904D01*
X192484001Y-84542202D01*
X192480081Y-84582000D01*
X192495721Y-84740787D01*
X192542038Y-84893473D01*
X192617251Y-85034189D01*
X192672852Y-85101939D01*
X192718473Y-85157528D01*
X192749383Y-85182895D01*
X195995105Y-88428618D01*
X196020472Y-88459528D01*
X196088210Y-88515119D01*
X196143810Y-88560749D01*
X196219024Y-88600951D01*
X196284527Y-88635963D01*
X196437212Y-88682280D01*
X196556209Y-88694000D01*
X196556211Y-88694000D01*
X196595999Y-88697919D01*
X196635787Y-88694000D01*
X201086488Y-88694000D01*
X202390000Y-89997513D01*
X202390001Y-95422486D01*
X196768488Y-101044000D01*
X179363791Y-101044000D01*
X179324000Y-101040081D01*
X179284209Y-101044000D01*
X179165212Y-101055720D01*
X179012527Y-101102037D01*
X178871811Y-101177251D01*
X178748472Y-101278472D01*
X178647251Y-101401811D01*
X178572037Y-101542527D01*
X178525720Y-101695212D01*
X178510081Y-101854000D01*
X178514000Y-101893791D01*
X178514001Y-110704202D01*
X178510081Y-110744000D01*
X178522575Y-110870849D01*
X178523378Y-110879000D01*
X177810513Y-110879000D01*
X177086000Y-110154488D01*
X177086000Y-101681512D01*
X178897513Y-99870000D01*
X190714212Y-99870000D01*
X190754000Y-99873919D01*
X190793788Y-99870000D01*
X190793791Y-99870000D01*
X190912788Y-99858280D01*
X191065473Y-99811963D01*
X191206189Y-99736749D01*
X191329528Y-99635528D01*
X191354900Y-99604612D01*
X195484050Y-95475463D01*
X195682816Y-95515000D01*
X195985184Y-95515000D01*
X196281743Y-95456011D01*
X196561095Y-95340299D01*
X196812505Y-95172312D01*
X197026312Y-94958505D01*
X197194299Y-94707095D01*
X197310011Y-94427743D01*
X197369000Y-94131184D01*
X197369000Y-93828816D01*
X197310011Y-93532257D01*
X197194299Y-93252905D01*
X197026312Y-93001495D01*
X196812505Y-92787688D01*
X196561095Y-92619701D01*
X196281743Y-92503989D01*
X195985184Y-92445000D01*
X195682816Y-92445000D01*
X195386257Y-92503989D01*
X195106905Y-92619701D01*
X194855495Y-92787688D01*
X194641688Y-93001495D01*
X194564000Y-93117763D01*
X194486312Y-93001495D01*
X194272505Y-92787688D01*
X194021095Y-92619701D01*
X193741743Y-92503989D01*
X193445184Y-92445000D01*
X193142816Y-92445000D01*
X192846257Y-92503989D01*
X192566905Y-92619701D01*
X192315495Y-92787688D01*
X192101688Y-93001495D01*
X192024000Y-93117763D01*
X191946312Y-93001495D01*
X191732505Y-92787688D01*
X191564000Y-92675096D01*
X191564000Y-87161787D01*
X191567919Y-87121999D01*
X191563191Y-87074000D01*
X191552280Y-86963212D01*
X191505963Y-86810527D01*
X191430750Y-86669812D01*
X191430749Y-86669810D01*
X191385119Y-86614210D01*
X191329528Y-86546472D01*
X191298619Y-86521106D01*
X186787898Y-82010386D01*
X186805000Y-81924411D01*
X186805000Y-81651589D01*
X186751775Y-81384011D01*
X186647371Y-81131957D01*
X186495799Y-80905114D01*
X186302886Y-80712201D01*
X186076043Y-80560629D01*
X185823989Y-80456225D01*
X185556411Y-80403000D01*
X185283589Y-80403000D01*
X185016011Y-80456225D01*
X184763957Y-80560629D01*
X184537114Y-80712201D01*
X184344201Y-80905114D01*
X184192629Y-81131957D01*
X184088225Y-81384011D01*
X184035000Y-81651589D01*
X184035000Y-81924411D01*
X184088225Y-82191989D01*
X184192629Y-82444043D01*
X184344201Y-82670886D01*
X184537114Y-82863799D01*
X184763957Y-83015371D01*
X185016011Y-83119775D01*
X185283589Y-83173000D01*
X185556411Y-83173000D01*
X185642386Y-83155898D01*
X189944000Y-87457513D01*
X189944001Y-92675096D01*
X189775495Y-92787688D01*
X189561688Y-93001495D01*
X189484000Y-93117763D01*
X189406312Y-93001495D01*
X189192505Y-92787688D01*
X188941095Y-92619701D01*
X188661743Y-92503989D01*
X188365184Y-92445000D01*
X188062816Y-92445000D01*
X187766257Y-92503989D01*
X187486905Y-92619701D01*
X187235495Y-92787688D01*
X187021688Y-93001495D01*
X186944000Y-93117763D01*
X186866312Y-93001495D01*
X186652505Y-92787688D01*
X186401095Y-92619701D01*
X186121743Y-92503989D01*
X185825184Y-92445000D01*
X185522816Y-92445000D01*
X185226257Y-92503989D01*
X184946905Y-92619701D01*
X184695495Y-92787688D01*
X184629056Y-92854127D01*
X184623502Y-92835820D01*
X184564537Y-92725506D01*
X184485185Y-92628815D01*
X184388494Y-92549463D01*
X184278180Y-92490498D01*
X184158482Y-92454188D01*
X184034000Y-92441928D01*
X182234000Y-92441928D01*
X182109518Y-92454188D01*
X181989820Y-92490498D01*
X181879506Y-92549463D01*
X181782815Y-92628815D01*
X181703463Y-92725506D01*
X181644498Y-92835820D01*
X181608188Y-92955518D01*
X181595928Y-93080000D01*
X181595928Y-94880000D01*
X181608188Y-95004482D01*
X181644498Y-95124180D01*
X181703463Y-95234494D01*
X181782815Y-95331185D01*
X181879506Y-95410537D01*
X181989820Y-95469502D01*
X182109518Y-95505812D01*
X182234000Y-95518072D01*
X184034000Y-95518072D01*
X184158482Y-95505812D01*
X184278180Y-95469502D01*
X184388494Y-95410537D01*
X184485185Y-95331185D01*
X184564537Y-95234494D01*
X184623502Y-95124180D01*
X184629056Y-95105873D01*
X184695495Y-95172312D01*
X184946905Y-95340299D01*
X185226257Y-95456011D01*
X185522816Y-95515000D01*
X185825184Y-95515000D01*
X186121743Y-95456011D01*
X186401095Y-95340299D01*
X186652505Y-95172312D01*
X186866312Y-94958505D01*
X186944000Y-94842237D01*
X187021688Y-94958505D01*
X187235495Y-95172312D01*
X187486905Y-95340299D01*
X187766257Y-95456011D01*
X188062816Y-95515000D01*
X188365184Y-95515000D01*
X188661743Y-95456011D01*
X188941095Y-95340299D01*
X189192505Y-95172312D01*
X189406312Y-94958505D01*
X189484000Y-94842237D01*
X189561688Y-94958505D01*
X189775495Y-95172312D01*
X190026905Y-95340299D01*
X190306257Y-95456011D01*
X190602816Y-95515000D01*
X190905184Y-95515000D01*
X191201743Y-95456011D01*
X191481095Y-95340299D01*
X191732505Y-95172312D01*
X191946312Y-94958505D01*
X192024000Y-94842237D01*
X192101688Y-94958505D01*
X192315495Y-95172312D01*
X192566905Y-95340299D01*
X192846257Y-95456011D01*
X193142816Y-95515000D01*
X193153487Y-95515000D01*
X190418488Y-98250000D01*
X178601787Y-98250000D01*
X178561999Y-98246081D01*
X178522211Y-98250000D01*
X178522209Y-98250000D01*
X178403212Y-98261720D01*
X178250527Y-98308037D01*
X178185024Y-98343049D01*
X178109810Y-98383251D01*
X178054210Y-98428881D01*
X177986472Y-98484472D01*
X177961107Y-98515380D01*
X175731387Y-100745101D01*
X175700472Y-100770472D01*
X175630703Y-100855487D01*
X175599251Y-100893811D01*
X175559049Y-100969025D01*
X175524037Y-101034528D01*
X175477720Y-101187213D01*
X175468732Y-101278472D01*
X175462081Y-101346000D01*
X175466000Y-101385788D01*
X175466001Y-110450202D01*
X175462081Y-110490000D01*
X175476305Y-110634410D01*
X175477721Y-110648788D01*
X175504930Y-110738482D01*
X175524038Y-110801473D01*
X175599251Y-110942189D01*
X175654852Y-111009939D01*
X175700473Y-111065528D01*
X175731381Y-111090893D01*
X176169488Y-111529000D01*
X172434791Y-111529000D01*
X172395000Y-111525081D01*
X172236212Y-111540720D01*
X172083526Y-111587037D01*
X171984642Y-111639892D01*
X171942811Y-111662251D01*
X171819472Y-111763472D01*
X171794105Y-111794382D01*
X168111388Y-115477100D01*
X168080472Y-115502472D01*
X168033292Y-115559962D01*
X167979251Y-115625811D01*
X167975625Y-115632595D01*
X167904037Y-115766528D01*
X167857720Y-115919213D01*
X167847578Y-116022188D01*
X167842081Y-116078000D01*
X167846000Y-116117788D01*
X167846001Y-123150202D01*
X167842081Y-123190000D01*
X167851238Y-123282967D01*
X167857721Y-123348788D01*
X167882754Y-123431311D01*
X167904038Y-123501473D01*
X167979251Y-123642189D01*
X168010283Y-123680001D01*
X168080473Y-123765528D01*
X168111383Y-123790895D01*
X168256636Y-123936148D01*
X168230057Y-124206000D01*
X168257764Y-124487309D01*
X168339818Y-124757808D01*
X168473068Y-125007101D01*
X168652392Y-125225608D01*
X168870899Y-125404932D01*
X169120192Y-125538182D01*
X169390691Y-125620236D01*
X169601508Y-125641000D01*
X169742492Y-125641000D01*
X169953309Y-125620236D01*
X170223808Y-125538182D01*
X170473101Y-125404932D01*
X170691608Y-125225608D01*
X170870932Y-125007101D01*
X171004182Y-124757808D01*
X171086236Y-124487309D01*
X171113943Y-124206000D01*
X171086236Y-123924691D01*
X171004182Y-123654192D01*
X170870932Y-123404899D01*
X170691608Y-123186392D01*
X170473101Y-123007068D01*
X170223808Y-122873818D01*
X169953309Y-122791764D01*
X169742492Y-122771000D01*
X169601508Y-122771000D01*
X169466000Y-122784347D01*
X169466000Y-116413512D01*
X172730513Y-113149000D01*
X174757487Y-113149000D01*
X171211852Y-116694636D01*
X171012492Y-116675000D01*
X170871508Y-116675000D01*
X170660691Y-116695764D01*
X170390192Y-116777818D01*
X170140899Y-116911068D01*
X169922392Y-117090392D01*
X169743068Y-117308899D01*
X169609818Y-117558192D01*
X169527764Y-117828691D01*
X169500057Y-118110000D01*
X169527764Y-118391309D01*
X169609818Y-118661808D01*
X169743068Y-118911101D01*
X169922392Y-119129608D01*
X170140899Y-119308932D01*
X170390192Y-119442182D01*
X170660691Y-119524236D01*
X170871508Y-119545000D01*
X171012492Y-119545000D01*
X171223309Y-119524236D01*
X171493808Y-119442182D01*
X171743101Y-119308932D01*
X171961608Y-119129608D01*
X172140932Y-118911101D01*
X172274182Y-118661808D01*
X172356236Y-118391309D01*
X172383943Y-118110000D01*
X172357364Y-117840148D01*
X176398513Y-113799000D01*
X180711488Y-113799000D01*
X180303383Y-114207105D01*
X180272473Y-114232472D01*
X180247108Y-114263380D01*
X180171251Y-114355811D01*
X180119347Y-114452919D01*
X180096038Y-114496527D01*
X180060345Y-114614192D01*
X180049721Y-114649213D01*
X180034081Y-114808000D01*
X180038001Y-114847798D01*
X180038000Y-117239500D01*
X179965114Y-117288201D01*
X179772201Y-117481114D01*
X179620629Y-117707957D01*
X179516225Y-117960011D01*
X179463000Y-118227589D01*
X179463000Y-118500411D01*
X179516225Y-118767989D01*
X179620629Y-119020043D01*
X179772201Y-119246886D01*
X179965114Y-119439799D01*
X180191957Y-119591371D01*
X180444011Y-119695775D01*
X180711589Y-119749000D01*
X180984411Y-119749000D01*
X181251989Y-119695775D01*
X181504043Y-119591371D01*
X181730886Y-119439799D01*
X181923799Y-119246886D01*
X182075371Y-119020043D01*
X182179775Y-118767989D01*
X182233000Y-118500411D01*
X182233000Y-118227589D01*
X182179775Y-117960011D01*
X182075371Y-117707957D01*
X181923799Y-117481114D01*
X181770753Y-117328068D01*
X181968011Y-117409775D01*
X182235589Y-117463000D01*
X182508411Y-117463000D01*
X182775989Y-117409775D01*
X183028043Y-117305371D01*
X183254886Y-117153799D01*
X183447799Y-116960886D01*
X183599371Y-116734043D01*
X183703775Y-116481989D01*
X183757000Y-116214411D01*
X183757000Y-115941589D01*
X183739898Y-115855614D01*
X184039365Y-115556148D01*
X184087815Y-115615185D01*
X184184506Y-115694537D01*
X184294820Y-115753502D01*
X184414518Y-115789812D01*
X184454001Y-115793701D01*
X184454000Y-119438212D01*
X184450081Y-119478000D01*
X184454000Y-119517788D01*
X184454000Y-119517790D01*
X184465720Y-119636787D01*
X184512037Y-119789472D01*
X184512038Y-119789473D01*
X184587251Y-119930189D01*
X184618703Y-119968513D01*
X184688472Y-120053528D01*
X184719387Y-120078899D01*
X185533580Y-120893093D01*
X185509000Y-121016665D01*
X185509000Y-121299335D01*
X185564147Y-121576574D01*
X185672320Y-121837727D01*
X185829363Y-122072759D01*
X186029241Y-122272637D01*
X186264273Y-122429680D01*
X186525426Y-122537853D01*
X186802665Y-122593000D01*
X187085335Y-122593000D01*
X187362574Y-122537853D01*
X187623727Y-122429680D01*
X187858759Y-122272637D01*
X188058637Y-122072759D01*
X188215680Y-121837727D01*
X188323853Y-121576574D01*
X188337684Y-121507039D01*
X195712096Y-121507039D01*
X195752754Y-121641087D01*
X195872963Y-121895420D01*
X196040481Y-122121414D01*
X196248869Y-122310385D01*
X196490119Y-122455070D01*
X196754960Y-122549909D01*
X196977000Y-122428624D01*
X196977000Y-121285000D01*
X197231000Y-121285000D01*
X197231000Y-122428624D01*
X197453040Y-122549909D01*
X197717881Y-122455070D01*
X197959131Y-122310385D01*
X198167519Y-122121414D01*
X198335037Y-121895420D01*
X198455246Y-121641087D01*
X198495904Y-121507039D01*
X198373915Y-121285000D01*
X197231000Y-121285000D01*
X196977000Y-121285000D01*
X195834085Y-121285000D01*
X195712096Y-121507039D01*
X188337684Y-121507039D01*
X188379000Y-121299335D01*
X188379000Y-121016665D01*
X188337685Y-120808961D01*
X195712096Y-120808961D01*
X195834085Y-121031000D01*
X196977000Y-121031000D01*
X196977000Y-119887376D01*
X197231000Y-119887376D01*
X197231000Y-121031000D01*
X198373915Y-121031000D01*
X198495904Y-120808961D01*
X198455246Y-120674913D01*
X198335037Y-120420580D01*
X198167519Y-120194586D01*
X197959131Y-120005615D01*
X197717881Y-119860930D01*
X197453040Y-119766091D01*
X197231000Y-119887376D01*
X196977000Y-119887376D01*
X196754960Y-119766091D01*
X196490119Y-119860930D01*
X196248869Y-120005615D01*
X196040481Y-120194586D01*
X195872963Y-120420580D01*
X195752754Y-120674913D01*
X195712096Y-120808961D01*
X188337685Y-120808961D01*
X188323853Y-120739426D01*
X188215680Y-120478273D01*
X188058637Y-120243241D01*
X187858759Y-120043363D01*
X187623727Y-119886320D01*
X187362574Y-119778147D01*
X187085335Y-119723000D01*
X186802665Y-119723000D01*
X186679093Y-119747580D01*
X186074000Y-119142488D01*
X186074000Y-115793701D01*
X186113482Y-115789812D01*
X186233180Y-115753502D01*
X186343494Y-115694537D01*
X186440185Y-115615185D01*
X186519537Y-115518494D01*
X186578502Y-115408180D01*
X186614812Y-115288482D01*
X186627072Y-115164000D01*
X186627072Y-114714000D01*
X186617223Y-114614000D01*
X186627072Y-114514000D01*
X186627072Y-114064000D01*
X186617223Y-113964000D01*
X186627072Y-113864000D01*
X186627072Y-113414000D01*
X186617223Y-113314000D01*
X186627072Y-113214000D01*
X186627072Y-112764000D01*
X186617223Y-112664000D01*
X186627072Y-112564000D01*
X186627072Y-112114000D01*
X186617223Y-112014000D01*
X186627072Y-111914000D01*
X186627072Y-111464000D01*
X186617223Y-111364000D01*
X186627072Y-111264000D01*
X186627072Y-110814000D01*
X186617223Y-110714000D01*
X186627072Y-110614000D01*
X186627072Y-110164000D01*
X186617223Y-110064000D01*
X186627072Y-109964000D01*
X186627072Y-109514000D01*
X186617223Y-109414000D01*
X186627072Y-109314000D01*
X186627072Y-108864000D01*
X186614812Y-108739518D01*
X186578502Y-108619820D01*
X186519537Y-108509506D01*
X186440185Y-108412815D01*
X186343494Y-108333463D01*
X186233180Y-108274498D01*
X186113482Y-108238188D01*
X186074000Y-108234299D01*
X186074000Y-105335512D01*
X187475513Y-103934000D01*
X188306899Y-103934000D01*
X188184471Y-104034473D01*
X188159104Y-104065383D01*
X187415383Y-104809105D01*
X187384473Y-104834472D01*
X187359108Y-104865380D01*
X187283251Y-104957811D01*
X187227460Y-105062190D01*
X187208038Y-105098527D01*
X187161722Y-105251211D01*
X187161721Y-105251213D01*
X187146081Y-105410000D01*
X187150001Y-105449798D01*
X187150000Y-111470212D01*
X187146081Y-111510000D01*
X187150000Y-111549788D01*
X187150000Y-111549790D01*
X187161720Y-111668787D01*
X187208037Y-111821472D01*
X187242961Y-111886811D01*
X187283251Y-111962189D01*
X187305680Y-111989518D01*
X187384472Y-112085528D01*
X187415387Y-112110899D01*
X189488105Y-114183618D01*
X189513472Y-114214528D01*
X189619668Y-114301680D01*
X189636811Y-114315749D01*
X189777526Y-114390963D01*
X189800928Y-114398062D01*
X189800928Y-114514000D01*
X189810777Y-114614000D01*
X189800928Y-114714000D01*
X189800928Y-115164000D01*
X189813188Y-115288482D01*
X189849498Y-115408180D01*
X189908463Y-115518494D01*
X189987815Y-115615185D01*
X190084506Y-115694537D01*
X190194820Y-115753502D01*
X190314518Y-115789812D01*
X190439000Y-115802072D01*
X191889000Y-115802072D01*
X192013482Y-115789812D01*
X192133180Y-115753502D01*
X192243494Y-115694537D01*
X192340185Y-115615185D01*
X192419537Y-115518494D01*
X192478502Y-115408180D01*
X192514812Y-115288482D01*
X192527072Y-115164000D01*
X192527072Y-114714000D01*
X192517223Y-114614000D01*
X192527072Y-114514000D01*
X192527072Y-114064000D01*
X192517223Y-113964000D01*
X192527072Y-113864000D01*
X192527072Y-113799000D01*
X196727488Y-113799000D01*
X197564000Y-114635512D01*
X197564001Y-116156371D01*
X197354392Y-116328392D01*
X197175068Y-116546899D01*
X197041818Y-116796192D01*
X196959764Y-117066691D01*
X196932057Y-117348000D01*
X196959764Y-117629309D01*
X197041818Y-117899808D01*
X197175068Y-118149101D01*
X197354392Y-118367608D01*
X197572899Y-118546932D01*
X197822192Y-118680182D01*
X198092691Y-118762236D01*
X198303508Y-118783000D01*
X198444492Y-118783000D01*
X198655309Y-118762236D01*
X198925808Y-118680182D01*
X199175101Y-118546932D01*
X199393608Y-118367608D01*
X199572932Y-118149101D01*
X199706182Y-117899808D01*
X199788236Y-117629309D01*
X199815943Y-117348000D01*
X199788236Y-117066691D01*
X199706182Y-116796192D01*
X199572932Y-116546899D01*
X199393608Y-116328392D01*
X199184000Y-116156371D01*
X199184000Y-114339788D01*
X199187919Y-114300000D01*
X199181268Y-114232472D01*
X199172280Y-114141212D01*
X199125963Y-113988527D01*
X199090951Y-113923024D01*
X199050749Y-113847810D01*
X199009696Y-113797788D01*
X198949528Y-113724472D01*
X198918614Y-113699102D01*
X198368512Y-113149000D01*
X199125488Y-113149000D01*
X202136000Y-116159513D01*
X202136001Y-122346486D01*
X198546488Y-125936000D01*
X185755513Y-125936000D01*
X183480900Y-123661387D01*
X183455528Y-123630472D01*
X183332189Y-123529251D01*
X183191473Y-123454037D01*
X183038788Y-123407720D01*
X182919791Y-123396000D01*
X182919788Y-123396000D01*
X182880000Y-123392081D01*
X182840212Y-123396000D01*
X181016635Y-123396000D01*
X180946637Y-123291241D01*
X180746759Y-123091363D01*
X180511727Y-122934320D01*
X180250574Y-122826147D01*
X179973335Y-122771000D01*
X179690665Y-122771000D01*
X179413426Y-122826147D01*
X179152273Y-122934320D01*
X178917241Y-123091363D01*
X178717363Y-123291241D01*
X178560320Y-123526273D01*
X178452147Y-123787426D01*
X178397000Y-124064665D01*
X178397000Y-124347335D01*
X178452147Y-124624574D01*
X178560320Y-124885727D01*
X178717363Y-125120759D01*
X178917241Y-125320637D01*
X179152273Y-125477680D01*
X179413426Y-125585853D01*
X179690665Y-125641000D01*
X179973335Y-125641000D01*
X180250574Y-125585853D01*
X180511727Y-125477680D01*
X180746759Y-125320637D01*
X180946637Y-125120759D01*
X181016635Y-125016000D01*
X182544488Y-125016000D01*
X184014497Y-126486010D01*
X169431523Y-126486010D01*
X166080901Y-123135389D01*
X166055529Y-123104473D01*
X165932190Y-123003252D01*
X165791474Y-122928038D01*
X165638789Y-122881721D01*
X165519792Y-122870001D01*
X165519789Y-122870001D01*
X165480001Y-122866082D01*
X165440213Y-122870001D01*
X163559786Y-122870001D01*
X163519998Y-122866082D01*
X163480210Y-122870001D01*
X163480208Y-122870001D01*
X163361211Y-122881721D01*
X163208526Y-122928038D01*
X163067810Y-123003252D01*
X163012964Y-123048263D01*
X162996561Y-123045000D01*
X162743439Y-123045000D01*
X162495179Y-123094381D01*
X162261324Y-123191247D01*
X162050860Y-123331875D01*
X161871875Y-123510860D01*
X161731247Y-123721324D01*
X161634381Y-123955179D01*
X161585000Y-124203439D01*
X161585000Y-124311928D01*
X160950000Y-124311928D01*
X160825518Y-124324188D01*
X160705820Y-124360498D01*
X160595506Y-124419463D01*
X160498815Y-124498815D01*
X160419463Y-124595506D01*
X160360498Y-124705820D01*
X160324188Y-124825518D01*
X160311928Y-124950000D01*
X160311928Y-126250000D01*
X160324188Y-126374482D01*
X160360498Y-126494180D01*
X160419463Y-126604494D01*
X160498815Y-126701185D01*
X160595506Y-126780537D01*
X160705820Y-126839502D01*
X160825518Y-126875812D01*
X160950000Y-126888072D01*
X162250000Y-126888072D01*
X162374482Y-126875812D01*
X162494180Y-126839502D01*
X162604494Y-126780537D01*
X162701185Y-126701185D01*
X162780537Y-126604494D01*
X162839502Y-126494180D01*
X162842126Y-126485527D01*
X163434078Y-126485527D01*
X163487466Y-126714201D01*
X163717374Y-126820095D01*
X163963524Y-126879102D01*
X164216455Y-126888952D01*
X164466449Y-126849270D01*
X164703896Y-126761578D01*
X164792534Y-126714201D01*
X164845922Y-126485527D01*
X164140000Y-125779605D01*
X163434078Y-126485527D01*
X162842126Y-126485527D01*
X162875812Y-126374482D01*
X162888072Y-126250000D01*
X162888072Y-125909704D01*
X162890730Y-125926449D01*
X162978422Y-126163896D01*
X163025799Y-126252534D01*
X163254473Y-126305922D01*
X163960395Y-125600000D01*
X164319605Y-125600000D01*
X165025527Y-126305922D01*
X165254201Y-126252534D01*
X165360095Y-126022626D01*
X165419102Y-125776476D01*
X165428952Y-125523545D01*
X165389270Y-125273551D01*
X165301578Y-125036104D01*
X165254201Y-124947466D01*
X165025527Y-124894078D01*
X164319605Y-125600000D01*
X163960395Y-125600000D01*
X163946253Y-125585858D01*
X164125858Y-125406253D01*
X164140000Y-125420395D01*
X164845922Y-124714473D01*
X164793515Y-124490001D01*
X165144489Y-124490001D01*
X168369487Y-127715000D01*
X139260366Y-127715000D01*
X137994248Y-124579413D01*
X148262192Y-124579413D01*
X148357956Y-124843814D01*
X148647571Y-124984704D01*
X148959108Y-125066384D01*
X149280595Y-125085718D01*
X149599675Y-125041961D01*
X149904088Y-124936795D01*
X150078044Y-124843814D01*
X150173808Y-124579413D01*
X149218000Y-123623605D01*
X148262192Y-124579413D01*
X137994248Y-124579413D01*
X137561055Y-123506595D01*
X147576282Y-123506595D01*
X147620039Y-123825675D01*
X147725205Y-124130088D01*
X147818186Y-124304044D01*
X148082587Y-124399808D01*
X149038395Y-123444000D01*
X149397605Y-123444000D01*
X150353413Y-124399808D01*
X150617814Y-124304044D01*
X150758704Y-124014429D01*
X150840384Y-123702892D01*
X150859718Y-123381405D01*
X150846219Y-123282967D01*
X155083000Y-123282967D01*
X155083000Y-123605033D01*
X155145832Y-123920912D01*
X155269082Y-124218463D01*
X155448013Y-124486252D01*
X155675748Y-124713987D01*
X155943537Y-124892918D01*
X156241088Y-125016168D01*
X156556967Y-125079000D01*
X156879033Y-125079000D01*
X157194912Y-125016168D01*
X157492463Y-124892918D01*
X157760252Y-124713987D01*
X157987987Y-124486252D01*
X158166918Y-124218463D01*
X158290168Y-123920912D01*
X158353000Y-123605033D01*
X158353000Y-123282967D01*
X158290168Y-122967088D01*
X158166918Y-122669537D01*
X157987987Y-122401748D01*
X157760252Y-122174013D01*
X157492463Y-121995082D01*
X157194912Y-121871832D01*
X156879033Y-121809000D01*
X156556967Y-121809000D01*
X156241088Y-121871832D01*
X155943537Y-121995082D01*
X155675748Y-122174013D01*
X155448013Y-122401748D01*
X155269082Y-122669537D01*
X155145832Y-122967088D01*
X155083000Y-123282967D01*
X150846219Y-123282967D01*
X150815961Y-123062325D01*
X150710795Y-122757912D01*
X150617814Y-122583956D01*
X150353413Y-122488192D01*
X149397605Y-123444000D01*
X149038395Y-123444000D01*
X148082587Y-122488192D01*
X147818186Y-122583956D01*
X147677296Y-122873571D01*
X147595616Y-123185108D01*
X147576282Y-123506595D01*
X137561055Y-123506595D01*
X137077312Y-122308587D01*
X148262192Y-122308587D01*
X149218000Y-123264395D01*
X150173808Y-122308587D01*
X150078044Y-122044186D01*
X149788429Y-121903296D01*
X149476892Y-121821616D01*
X149155405Y-121802282D01*
X148836325Y-121846039D01*
X148531912Y-121951205D01*
X148357956Y-122044186D01*
X148262192Y-122308587D01*
X137077312Y-122308587D01*
X134814808Y-116705413D01*
X148262192Y-116705413D01*
X148357956Y-116969814D01*
X148647571Y-117110704D01*
X148959108Y-117192384D01*
X149280595Y-117211718D01*
X149599675Y-117167961D01*
X149904088Y-117062795D01*
X150078044Y-116969814D01*
X150173808Y-116705413D01*
X149218000Y-115749605D01*
X148262192Y-116705413D01*
X134814808Y-116705413D01*
X134381614Y-115632595D01*
X147576282Y-115632595D01*
X147620039Y-115951675D01*
X147725205Y-116256088D01*
X147818186Y-116430044D01*
X148082587Y-116525808D01*
X149038395Y-115570000D01*
X149397605Y-115570000D01*
X150353413Y-116525808D01*
X150617814Y-116430044D01*
X150758704Y-116140429D01*
X150840384Y-115828892D01*
X150859718Y-115507405D01*
X150846219Y-115408967D01*
X155083000Y-115408967D01*
X155083000Y-115731033D01*
X155145832Y-116046912D01*
X155269082Y-116344463D01*
X155448013Y-116612252D01*
X155675748Y-116839987D01*
X155943537Y-117018918D01*
X156241088Y-117142168D01*
X156556967Y-117205000D01*
X156879033Y-117205000D01*
X157152994Y-117150506D01*
X158657105Y-118654618D01*
X158682472Y-118685528D01*
X158805811Y-118786749D01*
X158946527Y-118861963D01*
X159099212Y-118908280D01*
X159218209Y-118920000D01*
X159218211Y-118920000D01*
X159257999Y-118923919D01*
X159297787Y-118920000D01*
X159597365Y-118920000D01*
X159667363Y-119024759D01*
X159867241Y-119224637D01*
X160102273Y-119381680D01*
X160363426Y-119489853D01*
X160640665Y-119545000D01*
X160923335Y-119545000D01*
X161200574Y-119489853D01*
X161461727Y-119381680D01*
X161696759Y-119224637D01*
X161896637Y-119024759D01*
X162053680Y-118789727D01*
X162161853Y-118528574D01*
X162217000Y-118251335D01*
X162217000Y-117968665D01*
X162161853Y-117691426D01*
X162053680Y-117430273D01*
X161896637Y-117195241D01*
X161696759Y-116995363D01*
X161461727Y-116838320D01*
X161200574Y-116730147D01*
X160923335Y-116675000D01*
X160640665Y-116675000D01*
X160363426Y-116730147D01*
X160102273Y-116838320D01*
X159867241Y-116995363D01*
X159667363Y-117195241D01*
X159597365Y-117300000D01*
X159593513Y-117300000D01*
X158298506Y-116004994D01*
X158353000Y-115731033D01*
X158353000Y-115408967D01*
X158290168Y-115093088D01*
X158166918Y-114795537D01*
X157987987Y-114527748D01*
X157760252Y-114300013D01*
X157528000Y-114144827D01*
X157528000Y-113319512D01*
X160121440Y-110726072D01*
X166014000Y-110726072D01*
X166138482Y-110713812D01*
X166258180Y-110677502D01*
X166368494Y-110618537D01*
X166465185Y-110539185D01*
X166544537Y-110442494D01*
X166603502Y-110332180D01*
X166639812Y-110212482D01*
X166652072Y-110088000D01*
X166652072Y-104288000D01*
X166639812Y-104163518D01*
X166603502Y-104043820D01*
X166544537Y-103933506D01*
X166465185Y-103836815D01*
X166368494Y-103757463D01*
X166258180Y-103698498D01*
X166138482Y-103662188D01*
X166014000Y-103649928D01*
X159614000Y-103649928D01*
X159489518Y-103662188D01*
X159369820Y-103698498D01*
X159259506Y-103757463D01*
X159162815Y-103836815D01*
X159083463Y-103933506D01*
X159024498Y-104043820D01*
X158988188Y-104163518D01*
X158975928Y-104288000D01*
X158975928Y-109580560D01*
X158156644Y-110399844D01*
X158203502Y-110312180D01*
X158239812Y-110192482D01*
X158252072Y-110068000D01*
X158249000Y-109753750D01*
X158090250Y-109595000D01*
X156641000Y-109595000D01*
X156641000Y-110544250D01*
X156799750Y-110703000D01*
X157614000Y-110706072D01*
X157738482Y-110693812D01*
X157858180Y-110657502D01*
X157945844Y-110610644D01*
X156173383Y-112383105D01*
X156142473Y-112408472D01*
X156104722Y-112454472D01*
X156041251Y-112531811D01*
X155966038Y-112672527D01*
X155919721Y-112825212D01*
X155918305Y-112839590D01*
X155904081Y-112984000D01*
X155908001Y-113023798D01*
X155908001Y-114144827D01*
X155675748Y-114300013D01*
X155448013Y-114527748D01*
X155269082Y-114795537D01*
X155145832Y-115093088D01*
X155083000Y-115408967D01*
X150846219Y-115408967D01*
X150815961Y-115188325D01*
X150710795Y-114883912D01*
X150617814Y-114709956D01*
X150353413Y-114614192D01*
X149397605Y-115570000D01*
X149038395Y-115570000D01*
X148082587Y-114614192D01*
X147818186Y-114709956D01*
X147677296Y-114999571D01*
X147595616Y-115311108D01*
X147576282Y-115632595D01*
X134381614Y-115632595D01*
X134289000Y-115403234D01*
X134289000Y-114434587D01*
X148262192Y-114434587D01*
X149218000Y-115390395D01*
X150173808Y-114434587D01*
X150078044Y-114170186D01*
X149788429Y-114029296D01*
X149476892Y-113947616D01*
X149155405Y-113928282D01*
X148836325Y-113972039D01*
X148531912Y-114077205D01*
X148357956Y-114170186D01*
X148262192Y-114434587D01*
X134289000Y-114434587D01*
X134289000Y-111291413D01*
X143316192Y-111291413D01*
X143411956Y-111555814D01*
X143701571Y-111696704D01*
X144013108Y-111778384D01*
X144334595Y-111797718D01*
X144653675Y-111753961D01*
X144958088Y-111648795D01*
X145132044Y-111555814D01*
X145227808Y-111291413D01*
X144272000Y-110335605D01*
X143316192Y-111291413D01*
X134289000Y-111291413D01*
X134289000Y-110218595D01*
X142630282Y-110218595D01*
X142674039Y-110537675D01*
X142779205Y-110842088D01*
X142872186Y-111016044D01*
X143136587Y-111111808D01*
X144092395Y-110156000D01*
X144451605Y-110156000D01*
X145407413Y-111111808D01*
X145671814Y-111016044D01*
X145812704Y-110726429D01*
X145894384Y-110414892D01*
X145913718Y-110093405D01*
X145910235Y-110068000D01*
X154775928Y-110068000D01*
X154788188Y-110192482D01*
X154824498Y-110312180D01*
X154883463Y-110422494D01*
X154962815Y-110519185D01*
X155059506Y-110598537D01*
X155169820Y-110657502D01*
X155289518Y-110693812D01*
X155414000Y-110706072D01*
X156228250Y-110703000D01*
X156387000Y-110544250D01*
X156387000Y-109595000D01*
X154937750Y-109595000D01*
X154779000Y-109753750D01*
X154775928Y-110068000D01*
X145910235Y-110068000D01*
X145869961Y-109774325D01*
X145764795Y-109469912D01*
X145671814Y-109295956D01*
X145407413Y-109200192D01*
X144451605Y-110156000D01*
X144092395Y-110156000D01*
X143136587Y-109200192D01*
X142872186Y-109295956D01*
X142731296Y-109585571D01*
X142649616Y-109897108D01*
X142630282Y-110218595D01*
X134289000Y-110218595D01*
X134289000Y-109020587D01*
X143316192Y-109020587D01*
X144272000Y-109976395D01*
X145227808Y-109020587D01*
X145172543Y-108868000D01*
X154775928Y-108868000D01*
X154779000Y-109182250D01*
X154937750Y-109341000D01*
X156387000Y-109341000D01*
X156387000Y-108391750D01*
X156641000Y-108391750D01*
X156641000Y-109341000D01*
X158090250Y-109341000D01*
X158249000Y-109182250D01*
X158252072Y-108868000D01*
X158239812Y-108743518D01*
X158203502Y-108623820D01*
X158144537Y-108513506D01*
X158065185Y-108416815D01*
X157968494Y-108337463D01*
X157858180Y-108278498D01*
X157738482Y-108242188D01*
X157614000Y-108229928D01*
X156799750Y-108233000D01*
X156641000Y-108391750D01*
X156387000Y-108391750D01*
X156228250Y-108233000D01*
X155414000Y-108229928D01*
X155289518Y-108242188D01*
X155169820Y-108278498D01*
X155059506Y-108337463D01*
X154962815Y-108416815D01*
X154883463Y-108513506D01*
X154824498Y-108623820D01*
X154788188Y-108743518D01*
X154775928Y-108868000D01*
X145172543Y-108868000D01*
X145132044Y-108756186D01*
X144842429Y-108615296D01*
X144530892Y-108533616D01*
X144209405Y-108514282D01*
X143890325Y-108558039D01*
X143585912Y-108663205D01*
X143411956Y-108756186D01*
X143316192Y-109020587D01*
X134289000Y-109020587D01*
X134289000Y-107544890D01*
X134702524Y-107544890D01*
X134747175Y-107692099D01*
X134872359Y-107954920D01*
X135046412Y-108188269D01*
X135262645Y-108383178D01*
X135512748Y-108532157D01*
X135787109Y-108629481D01*
X136017000Y-108508814D01*
X136017000Y-107315000D01*
X136271000Y-107315000D01*
X136271000Y-108508814D01*
X136500891Y-108629481D01*
X136775252Y-108532157D01*
X137025355Y-108383178D01*
X137241588Y-108188269D01*
X137415641Y-107954920D01*
X137540825Y-107692099D01*
X137585476Y-107544890D01*
X137464155Y-107315000D01*
X136271000Y-107315000D01*
X136017000Y-107315000D01*
X134823845Y-107315000D01*
X134702524Y-107544890D01*
X134289000Y-107544890D01*
X134289000Y-103798000D01*
X134655928Y-103798000D01*
X134655928Y-105498000D01*
X134668188Y-105622482D01*
X134704498Y-105742180D01*
X134763463Y-105852494D01*
X134842815Y-105949185D01*
X134939506Y-106028537D01*
X135049820Y-106087502D01*
X135130466Y-106111966D01*
X135046412Y-106187731D01*
X134872359Y-106421080D01*
X134747175Y-106683901D01*
X134702524Y-106831110D01*
X134823845Y-107061000D01*
X136017000Y-107061000D01*
X136017000Y-107041000D01*
X136271000Y-107041000D01*
X136271000Y-107061000D01*
X137464155Y-107061000D01*
X137585476Y-106831110D01*
X137540825Y-106683901D01*
X137415641Y-106421080D01*
X137241588Y-106187731D01*
X137157534Y-106111966D01*
X137238180Y-106087502D01*
X137348494Y-106028537D01*
X137445185Y-105949185D01*
X137524537Y-105852494D01*
X137583502Y-105742180D01*
X137619812Y-105622482D01*
X137632072Y-105498000D01*
X137632072Y-104994967D01*
X142637000Y-104994967D01*
X142637000Y-105317033D01*
X142699832Y-105632912D01*
X142823082Y-105930463D01*
X143002013Y-106198252D01*
X143229748Y-106425987D01*
X143497537Y-106604918D01*
X143795088Y-106728168D01*
X144110967Y-106791000D01*
X144433033Y-106791000D01*
X144748912Y-106728168D01*
X145046463Y-106604918D01*
X145314252Y-106425987D01*
X145541987Y-106198252D01*
X145697173Y-105966000D01*
X154971119Y-105966000D01*
X155059506Y-106038537D01*
X155169820Y-106097502D01*
X155289518Y-106133812D01*
X155414000Y-106146072D01*
X157614000Y-106146072D01*
X157738482Y-106133812D01*
X157858180Y-106097502D01*
X157968494Y-106038537D01*
X158065185Y-105959185D01*
X158144537Y-105862494D01*
X158203502Y-105752180D01*
X158239812Y-105632482D01*
X158252072Y-105508000D01*
X158252072Y-104308000D01*
X158239812Y-104183518D01*
X158203502Y-104063820D01*
X158144537Y-103953506D01*
X158065185Y-103856815D01*
X157968494Y-103777463D01*
X157858180Y-103718498D01*
X157738482Y-103682188D01*
X157614000Y-103669928D01*
X155414000Y-103669928D01*
X155289518Y-103682188D01*
X155169820Y-103718498D01*
X155059506Y-103777463D01*
X154962815Y-103856815D01*
X154883463Y-103953506D01*
X154824498Y-104063820D01*
X154788188Y-104183518D01*
X154775928Y-104308000D01*
X154775928Y-104346000D01*
X145697173Y-104346000D01*
X145541987Y-104113748D01*
X145314252Y-103886013D01*
X145046463Y-103707082D01*
X144748912Y-103583832D01*
X144433033Y-103521000D01*
X144110967Y-103521000D01*
X143795088Y-103583832D01*
X143497537Y-103707082D01*
X143229748Y-103886013D01*
X143002013Y-104113748D01*
X142823082Y-104381537D01*
X142699832Y-104679088D01*
X142637000Y-104994967D01*
X137632072Y-104994967D01*
X137632072Y-103798000D01*
X137619812Y-103673518D01*
X137583502Y-103553820D01*
X137524537Y-103443506D01*
X137445185Y-103346815D01*
X137348494Y-103267463D01*
X137238180Y-103208498D01*
X137118482Y-103172188D01*
X136994000Y-103159928D01*
X135294000Y-103159928D01*
X135169518Y-103172188D01*
X135049820Y-103208498D01*
X134939506Y-103267463D01*
X134842815Y-103346815D01*
X134763463Y-103443506D01*
X134704498Y-103553820D01*
X134668188Y-103673518D01*
X134655928Y-103798000D01*
X134289000Y-103798000D01*
X134289000Y-74458665D01*
X161165000Y-74458665D01*
X161165000Y-74741335D01*
X161220147Y-75018574D01*
X161328320Y-75279727D01*
X161485363Y-75514759D01*
X161685241Y-75714637D01*
X161920273Y-75871680D01*
X162181426Y-75979853D01*
X162458665Y-76035000D01*
X162741335Y-76035000D01*
X163018574Y-75979853D01*
X163279727Y-75871680D01*
X163514759Y-75714637D01*
X163714637Y-75514759D01*
X163871680Y-75279727D01*
X163979853Y-75018574D01*
X164035000Y-74741335D01*
X164035000Y-74600000D01*
X171318057Y-74600000D01*
X171345764Y-74881309D01*
X171427818Y-75151808D01*
X171561068Y-75401101D01*
X171740392Y-75619608D01*
X171958899Y-75798932D01*
X172208192Y-75932182D01*
X172478691Y-76014236D01*
X172689508Y-76035000D01*
X172830492Y-76035000D01*
X173041309Y-76014236D01*
X173311808Y-75932182D01*
X173561101Y-75798932D01*
X173779608Y-75619608D01*
X173958932Y-75401101D01*
X174092182Y-75151808D01*
X174150000Y-74961205D01*
X174207818Y-75151808D01*
X174341068Y-75401101D01*
X174520392Y-75619608D01*
X174738899Y-75798932D01*
X174988192Y-75932182D01*
X175258691Y-76014236D01*
X175469508Y-76035000D01*
X175610492Y-76035000D01*
X175821309Y-76014236D01*
X176091808Y-75932182D01*
X176341101Y-75798932D01*
X176559608Y-75619608D01*
X176738932Y-75401101D01*
X176872182Y-75151808D01*
X176954236Y-74881309D01*
X176981943Y-74600000D01*
X176954236Y-74318691D01*
X176872182Y-74048192D01*
X176738932Y-73798899D01*
X176559608Y-73580392D01*
X176341101Y-73401068D01*
X176091808Y-73267818D01*
X175821309Y-73185764D01*
X175610492Y-73165000D01*
X175469508Y-73165000D01*
X175258691Y-73185764D01*
X174988192Y-73267818D01*
X174738899Y-73401068D01*
X174520392Y-73580392D01*
X174341068Y-73798899D01*
X174207818Y-74048192D01*
X174150000Y-74238795D01*
X174092182Y-74048192D01*
X173958932Y-73798899D01*
X173779608Y-73580392D01*
X173561101Y-73401068D01*
X173311808Y-73267818D01*
X173041309Y-73185764D01*
X172830492Y-73165000D01*
X172689508Y-73165000D01*
X172478691Y-73185764D01*
X172208192Y-73267818D01*
X171958899Y-73401068D01*
X171740392Y-73580392D01*
X171561068Y-73798899D01*
X171427818Y-74048192D01*
X171345764Y-74318691D01*
X171318057Y-74600000D01*
X164035000Y-74600000D01*
X164035000Y-74458665D01*
X163979853Y-74181426D01*
X163871680Y-73920273D01*
X163714637Y-73685241D01*
X163514759Y-73485363D01*
X163279727Y-73328320D01*
X163018574Y-73220147D01*
X162741335Y-73165000D01*
X162458665Y-73165000D01*
X162181426Y-73220147D01*
X161920273Y-73328320D01*
X161685241Y-73485363D01*
X161485363Y-73685241D01*
X161328320Y-73920273D01*
X161220147Y-74181426D01*
X161165000Y-74458665D01*
X134289000Y-74458665D01*
X134289000Y-71685000D01*
X213748909Y-71685000D01*
X220015000Y-80152691D01*
X220015000Y-80152691D01*
G37*
X220015000Y-80152691D02*
X220015001Y-127715000D01*
X210605512Y-127715000D01*
X213836118Y-124484395D01*
X213867028Y-124459028D01*
X213931962Y-124379905D01*
X213968249Y-124335690D01*
X214037569Y-124206000D01*
X214043463Y-124194973D01*
X214089780Y-124042288D01*
X214101500Y-123923291D01*
X214101500Y-123923288D01*
X214105419Y-123883500D01*
X214101500Y-123843712D01*
X214101500Y-113030000D01*
X215220057Y-113030000D01*
X215247764Y-113311309D01*
X215329818Y-113581808D01*
X215463068Y-113831101D01*
X215642392Y-114049608D01*
X215860899Y-114228932D01*
X216110192Y-114362182D01*
X216380691Y-114444236D01*
X216591508Y-114465000D01*
X216732492Y-114465000D01*
X216943309Y-114444236D01*
X217213808Y-114362182D01*
X217463101Y-114228932D01*
X217681608Y-114049608D01*
X217860932Y-113831101D01*
X217994182Y-113581808D01*
X218076236Y-113311309D01*
X218103943Y-113030000D01*
X218076236Y-112748691D01*
X217994182Y-112478192D01*
X217860932Y-112228899D01*
X217681608Y-112010392D01*
X217463101Y-111831068D01*
X217213808Y-111697818D01*
X216943309Y-111615764D01*
X216732492Y-111595000D01*
X216591508Y-111595000D01*
X216380691Y-111615764D01*
X216110192Y-111697818D01*
X215860899Y-111831068D01*
X215642392Y-112010392D01*
X215463068Y-112228899D01*
X215329818Y-112478192D01*
X215247764Y-112748691D01*
X215220057Y-113030000D01*
X214101500Y-113030000D01*
X214101500Y-111985288D01*
X214105419Y-111945500D01*
X214099934Y-111889812D01*
X214089780Y-111786712D01*
X214043463Y-111634027D01*
X214002783Y-111557919D01*
X213968249Y-111493310D01*
X213892393Y-111400880D01*
X213867028Y-111369972D01*
X213836119Y-111344606D01*
X212436899Y-109945387D01*
X212411528Y-109914472D01*
X212288189Y-109813251D01*
X212147473Y-109738037D01*
X211994788Y-109691720D01*
X211875791Y-109680000D01*
X211875788Y-109680000D01*
X211836000Y-109676081D01*
X211796212Y-109680000D01*
X211126682Y-109680000D01*
X211046304Y-109637037D01*
X210893619Y-109590720D01*
X210774622Y-109579000D01*
X210774619Y-109579000D01*
X210734831Y-109575081D01*
X210695043Y-109579000D01*
X200846684Y-109579000D01*
X201063989Y-109535775D01*
X201316043Y-109431371D01*
X201542886Y-109279799D01*
X201735799Y-109086886D01*
X201887371Y-108860043D01*
X201991775Y-108607989D01*
X202045000Y-108340411D01*
X202045000Y-108067589D01*
X201991775Y-107800011D01*
X201887371Y-107547957D01*
X201735799Y-107321114D01*
X201542886Y-107128201D01*
X201316043Y-106976629D01*
X201063989Y-106872225D01*
X200796411Y-106819000D01*
X200523589Y-106819000D01*
X200256011Y-106872225D01*
X200003957Y-106976629D01*
X199777114Y-107128201D01*
X199584201Y-107321114D01*
X199432629Y-107547957D01*
X199328225Y-107800011D01*
X199275000Y-108067589D01*
X199275000Y-108340411D01*
X199292102Y-108426386D01*
X198789488Y-108929000D01*
X192527072Y-108929000D01*
X192527072Y-108864000D01*
X192514812Y-108739518D01*
X192478502Y-108619820D01*
X192419537Y-108509506D01*
X192340185Y-108412815D01*
X192243494Y-108333463D01*
X192133180Y-108274498D01*
X192013482Y-108238188D01*
X191974000Y-108234299D01*
X191974000Y-107875512D01*
X192055614Y-107793898D01*
X192141589Y-107811000D01*
X192414411Y-107811000D01*
X192681989Y-107757775D01*
X192934043Y-107653371D01*
X193160886Y-107501799D01*
X193353799Y-107308886D01*
X193505371Y-107082043D01*
X193609775Y-106829989D01*
X193663000Y-106562411D01*
X193663000Y-106289589D01*
X193609775Y-106022011D01*
X193505371Y-105769957D01*
X193353799Y-105543114D01*
X193230686Y-105420001D01*
X205061042Y-105420001D01*
X205087764Y-105691309D01*
X205169818Y-105961808D01*
X205303068Y-106211101D01*
X205482392Y-106429608D01*
X205700899Y-106608932D01*
X205950192Y-106742182D01*
X206220691Y-106824236D01*
X206431508Y-106845000D01*
X206572492Y-106845000D01*
X206783309Y-106824236D01*
X207053808Y-106742182D01*
X207303101Y-106608932D01*
X207521608Y-106429608D01*
X207700932Y-106211101D01*
X207834182Y-105961808D01*
X207916236Y-105691309D01*
X207943943Y-105410000D01*
X207916236Y-105128691D01*
X207834182Y-104858192D01*
X207700932Y-104608899D01*
X207521608Y-104390392D01*
X207303101Y-104211068D01*
X207053808Y-104077818D01*
X206783309Y-103995764D01*
X206572492Y-103975000D01*
X206431508Y-103975000D01*
X206229325Y-103994914D01*
X206154190Y-103933252D01*
X206013474Y-103858038D01*
X205860789Y-103811721D01*
X205741792Y-103800001D01*
X205741789Y-103800001D01*
X205702001Y-103796082D01*
X205662213Y-103800001D01*
X203399100Y-103800001D01*
X203521528Y-103699528D01*
X203546900Y-103668612D01*
X206232148Y-100983364D01*
X206431508Y-101003000D01*
X206572492Y-101003000D01*
X206783309Y-100982236D01*
X207053808Y-100900182D01*
X207303101Y-100766932D01*
X207521608Y-100587608D01*
X207700932Y-100369101D01*
X207834182Y-100119808D01*
X207916236Y-99849309D01*
X207943943Y-99568000D01*
X207916236Y-99286691D01*
X207834182Y-99016192D01*
X207700932Y-98766899D01*
X207521608Y-98548392D01*
X207303101Y-98369068D01*
X207053808Y-98235818D01*
X206783309Y-98153764D01*
X206572492Y-98133000D01*
X206431508Y-98133000D01*
X206220691Y-98153764D01*
X205950192Y-98235818D01*
X205700899Y-98369068D01*
X205482392Y-98548392D01*
X205303068Y-98766899D01*
X205169818Y-99016192D01*
X205087764Y-99286691D01*
X205060057Y-99568000D01*
X205086636Y-99837852D01*
X202610488Y-102314000D01*
X197789512Y-102314000D01*
X203744618Y-96358895D01*
X203775528Y-96333528D01*
X203839184Y-96255963D01*
X203876749Y-96210190D01*
X203926048Y-96117957D01*
X203951963Y-96069473D01*
X203998280Y-95916788D01*
X204010000Y-95797791D01*
X204010000Y-95797788D01*
X204013919Y-95758000D01*
X204010000Y-95718212D01*
X204010000Y-89701788D01*
X204013919Y-89662000D01*
X204008258Y-89604526D01*
X203998280Y-89503212D01*
X203958289Y-89371380D01*
X203951963Y-89350526D01*
X203876749Y-89209811D01*
X203800893Y-89117380D01*
X203775528Y-89086472D01*
X203744619Y-89061106D01*
X202022899Y-87339387D01*
X201997528Y-87308472D01*
X201874189Y-87207251D01*
X201733473Y-87132037D01*
X201580788Y-87085720D01*
X201461791Y-87074000D01*
X201461788Y-87074000D01*
X201422000Y-87070081D01*
X201382212Y-87074000D01*
X199618685Y-87074000D01*
X199703799Y-86988886D01*
X199752500Y-86916000D01*
X203118488Y-86916000D01*
X205896102Y-89693614D01*
X205879000Y-89779589D01*
X205879000Y-90052411D01*
X205932225Y-90319989D01*
X206036629Y-90572043D01*
X206188201Y-90798886D01*
X206381114Y-90991799D01*
X206607957Y-91143371D01*
X206860011Y-91247775D01*
X207127589Y-91301000D01*
X207400411Y-91301000D01*
X207667989Y-91247775D01*
X207920043Y-91143371D01*
X208146886Y-90991799D01*
X208339799Y-90798886D01*
X208491371Y-90572043D01*
X208595775Y-90319989D01*
X208649000Y-90052411D01*
X208649000Y-89779589D01*
X208595775Y-89512011D01*
X208491371Y-89259957D01*
X208339799Y-89033114D01*
X208146886Y-88840201D01*
X207920043Y-88688629D01*
X207667989Y-88584225D01*
X207400411Y-88531000D01*
X207127589Y-88531000D01*
X207041614Y-88548102D01*
X204054900Y-85561388D01*
X204029528Y-85530472D01*
X203906189Y-85429251D01*
X203765473Y-85354037D01*
X203612788Y-85307720D01*
X203493791Y-85296000D01*
X203493788Y-85296000D01*
X203454000Y-85292081D01*
X203414212Y-85296000D01*
X199752500Y-85296000D01*
X199703799Y-85223114D01*
X199510886Y-85030201D01*
X199284043Y-84878629D01*
X199031989Y-84774225D01*
X198764411Y-84721000D01*
X198491589Y-84721000D01*
X198224011Y-84774225D01*
X197981000Y-84874883D01*
X197981000Y-84699589D01*
X197967158Y-84630000D01*
X207663500Y-84630000D01*
X207712201Y-84702886D01*
X207905114Y-84895799D01*
X208131957Y-85047371D01*
X208384011Y-85151775D01*
X208651589Y-85205000D01*
X208924411Y-85205000D01*
X209191989Y-85151775D01*
X209444043Y-85047371D01*
X209670886Y-84895799D01*
X209863799Y-84702886D01*
X210015371Y-84476043D01*
X210119775Y-84223989D01*
X210173000Y-83956411D01*
X210173000Y-83683589D01*
X210119775Y-83416011D01*
X210015371Y-83163957D01*
X209863799Y-82937114D01*
X209670886Y-82744201D01*
X209444043Y-82592629D01*
X209191989Y-82488225D01*
X208924411Y-82435000D01*
X208651589Y-82435000D01*
X208384011Y-82488225D01*
X208131957Y-82592629D01*
X207905114Y-82744201D01*
X207712201Y-82937114D01*
X207663500Y-83010000D01*
X197651788Y-83010000D01*
X197612000Y-83006081D01*
X197572212Y-83010000D01*
X197572209Y-83010000D01*
X197453212Y-83021720D01*
X197300527Y-83068037D01*
X197235024Y-83103049D01*
X197159810Y-83143251D01*
X197147673Y-83153212D01*
X197036472Y-83244472D01*
X197011100Y-83275388D01*
X196818386Y-83468102D01*
X196732411Y-83451000D01*
X196459589Y-83451000D01*
X196192011Y-83504225D01*
X195939957Y-83608629D01*
X195713114Y-83760201D01*
X195520201Y-83953114D01*
X195368629Y-84179957D01*
X195264225Y-84432011D01*
X195211000Y-84699589D01*
X195211000Y-84972411D01*
X195264225Y-85239989D01*
X195368629Y-85492043D01*
X195407037Y-85549525D01*
X194104000Y-84246488D01*
X194104000Y-82960081D01*
X194250201Y-83178886D01*
X194443114Y-83371799D01*
X194669957Y-83523371D01*
X194922011Y-83627775D01*
X195189589Y-83681000D01*
X195462411Y-83681000D01*
X195729989Y-83627775D01*
X195982043Y-83523371D01*
X196208886Y-83371799D01*
X196401799Y-83178886D01*
X196553371Y-82952043D01*
X196657775Y-82699989D01*
X196711000Y-82432411D01*
X196711000Y-82159589D01*
X196693898Y-82073614D01*
X197185513Y-81582000D01*
X205123500Y-81582000D01*
X205172201Y-81654886D01*
X205365114Y-81847799D01*
X205591957Y-81999371D01*
X205844011Y-82103775D01*
X206111589Y-82157000D01*
X206384411Y-82157000D01*
X206651989Y-82103775D01*
X206904043Y-81999371D01*
X207130886Y-81847799D01*
X207323799Y-81654886D01*
X207475371Y-81428043D01*
X207579775Y-81175989D01*
X207633000Y-80908411D01*
X207633000Y-80635589D01*
X207579775Y-80368011D01*
X207475371Y-80115957D01*
X207323799Y-79889114D01*
X207130886Y-79696201D01*
X206904043Y-79544629D01*
X206651989Y-79440225D01*
X206384411Y-79387000D01*
X206111589Y-79387000D01*
X205844011Y-79440225D01*
X205591957Y-79544629D01*
X205365114Y-79696201D01*
X205172201Y-79889114D01*
X205123500Y-79962000D01*
X196889787Y-79962000D01*
X196849999Y-79958081D01*
X196810211Y-79962000D01*
X196810209Y-79962000D01*
X196760789Y-79966867D01*
X196812505Y-79932312D01*
X197026312Y-79718505D01*
X197194299Y-79467095D01*
X197310011Y-79187743D01*
X197369000Y-78891184D01*
X197369000Y-78588816D01*
X197310011Y-78292257D01*
X197194299Y-78012905D01*
X197026312Y-77761495D01*
X196812505Y-77547688D01*
X196561095Y-77379701D01*
X196281743Y-77263989D01*
X195985184Y-77205000D01*
X195682816Y-77205000D01*
X195386257Y-77263989D01*
X195106905Y-77379701D01*
X194855495Y-77547688D01*
X194641688Y-77761495D01*
X194564000Y-77877763D01*
X194486312Y-77761495D01*
X194272505Y-77547688D01*
X194021095Y-77379701D01*
X193741743Y-77263989D01*
X193445184Y-77205000D01*
X193142816Y-77205000D01*
X192846257Y-77263989D01*
X192566905Y-77379701D01*
X192315495Y-77547688D01*
X192101688Y-77761495D01*
X192024000Y-77877763D01*
X191946312Y-77761495D01*
X191732505Y-77547688D01*
X191481095Y-77379701D01*
X191201743Y-77263989D01*
X190905184Y-77205000D01*
X190602816Y-77205000D01*
X190306257Y-77263989D01*
X190026905Y-77379701D01*
X189775495Y-77547688D01*
X189561688Y-77761495D01*
X189484000Y-77877763D01*
X189406312Y-77761495D01*
X189192505Y-77547688D01*
X188941095Y-77379701D01*
X188661743Y-77263989D01*
X188365184Y-77205000D01*
X188062816Y-77205000D01*
X187766257Y-77263989D01*
X187486905Y-77379701D01*
X187235495Y-77547688D01*
X187021688Y-77761495D01*
X186944000Y-77877763D01*
X186866312Y-77761495D01*
X186652505Y-77547688D01*
X186401095Y-77379701D01*
X186121743Y-77263989D01*
X185825184Y-77205000D01*
X185522816Y-77205000D01*
X185226257Y-77263989D01*
X184946905Y-77379701D01*
X184695495Y-77547688D01*
X184481688Y-77761495D01*
X184404000Y-77877763D01*
X184326312Y-77761495D01*
X184112505Y-77547688D01*
X183861095Y-77379701D01*
X183581743Y-77263989D01*
X183285184Y-77205000D01*
X182982816Y-77205000D01*
X182686257Y-77263989D01*
X182406905Y-77379701D01*
X182155495Y-77547688D01*
X181941688Y-77761495D01*
X181912000Y-77805926D01*
X181912000Y-76058665D01*
X196431000Y-76058665D01*
X196431000Y-76341335D01*
X196486147Y-76618574D01*
X196594320Y-76879727D01*
X196751363Y-77114759D01*
X196951241Y-77314637D01*
X197186273Y-77471680D01*
X197447426Y-77579853D01*
X197724665Y-77635000D01*
X198007335Y-77635000D01*
X198284574Y-77579853D01*
X198545727Y-77471680D01*
X198780759Y-77314637D01*
X198980637Y-77114759D01*
X199137680Y-76879727D01*
X199245853Y-76618574D01*
X199301000Y-76341335D01*
X199301000Y-76200000D01*
X206584057Y-76200000D01*
X206611764Y-76481309D01*
X206693818Y-76751808D01*
X206827068Y-77001101D01*
X207006392Y-77219608D01*
X207224899Y-77398932D01*
X207474192Y-77532182D01*
X207744691Y-77614236D01*
X207955508Y-77635000D01*
X208096492Y-77635000D01*
X208307309Y-77614236D01*
X208577808Y-77532182D01*
X208827101Y-77398932D01*
X209045608Y-77219608D01*
X209224932Y-77001101D01*
X209358182Y-76751808D01*
X209440236Y-76481309D01*
X209467943Y-76200000D01*
X209440236Y-75918691D01*
X209358182Y-75648192D01*
X209224932Y-75398899D01*
X209045608Y-75180392D01*
X208827101Y-75001068D01*
X208577808Y-74867818D01*
X208307309Y-74785764D01*
X208096492Y-74765000D01*
X207955508Y-74765000D01*
X207744691Y-74785764D01*
X207474192Y-74867818D01*
X207224899Y-75001068D01*
X207006392Y-75180392D01*
X206827068Y-75398899D01*
X206693818Y-75648192D01*
X206611764Y-75918691D01*
X206584057Y-76200000D01*
X199301000Y-76200000D01*
X199301000Y-76058665D01*
X199245853Y-75781426D01*
X199137680Y-75520273D01*
X198980637Y-75285241D01*
X198780759Y-75085363D01*
X198545727Y-74928320D01*
X198284574Y-74820147D01*
X198007335Y-74765000D01*
X197724665Y-74765000D01*
X197447426Y-74820147D01*
X197186273Y-74928320D01*
X196951241Y-75085363D01*
X196751363Y-75285241D01*
X196594320Y-75520273D01*
X196486147Y-75781426D01*
X196431000Y-76058665D01*
X181912000Y-76058665D01*
X181912000Y-75519512D01*
X183469513Y-73962000D01*
X184411036Y-73962000D01*
X184320147Y-74181426D01*
X184265000Y-74458665D01*
X184265000Y-74741335D01*
X184320147Y-75018574D01*
X184428320Y-75279727D01*
X184585363Y-75514759D01*
X184785241Y-75714637D01*
X185020273Y-75871680D01*
X185281426Y-75979853D01*
X185558665Y-76035000D01*
X185841335Y-76035000D01*
X186118574Y-75979853D01*
X186379727Y-75871680D01*
X186614759Y-75714637D01*
X186814637Y-75514759D01*
X186971680Y-75279727D01*
X187079853Y-75018574D01*
X187135000Y-74741335D01*
X187135000Y-74458665D01*
X187079853Y-74181426D01*
X186988964Y-73962000D01*
X211116488Y-73962000D01*
X213820000Y-76665513D01*
X213820001Y-83351791D01*
X213820000Y-90369790D01*
X213820001Y-90369800D01*
X213820000Y-100544212D01*
X213816081Y-100584000D01*
X213820000Y-100623788D01*
X213820000Y-100623790D01*
X213831720Y-100742787D01*
X213878037Y-100895472D01*
X213878038Y-100895473D01*
X213953251Y-101036189D01*
X213969280Y-101055720D01*
X214054472Y-101159528D01*
X214085387Y-101184899D01*
X215852001Y-102951514D01*
X215852000Y-104225365D01*
X215747241Y-104295363D01*
X215547363Y-104495241D01*
X215390320Y-104730273D01*
X215282147Y-104991426D01*
X215227000Y-105268665D01*
X215227000Y-105551335D01*
X215282147Y-105828574D01*
X215390320Y-106089727D01*
X215547363Y-106324759D01*
X215747241Y-106524637D01*
X215982273Y-106681680D01*
X216243426Y-106789853D01*
X216520665Y-106845000D01*
X216803335Y-106845000D01*
X217080574Y-106789853D01*
X217341727Y-106681680D01*
X217576759Y-106524637D01*
X217776637Y-106324759D01*
X217933680Y-106089727D01*
X218041853Y-105828574D01*
X218097000Y-105551335D01*
X218097000Y-105268665D01*
X218041853Y-104991426D01*
X217933680Y-104730273D01*
X217776637Y-104495241D01*
X217576759Y-104295363D01*
X217472000Y-104225365D01*
X217472000Y-102655788D01*
X217475919Y-102616000D01*
X217469268Y-102548472D01*
X217460280Y-102457212D01*
X217413963Y-102304527D01*
X217378951Y-102239024D01*
X217338749Y-102163810D01*
X217262893Y-102071380D01*
X217237528Y-102040472D01*
X217206618Y-102015105D01*
X216065784Y-100874271D01*
X216243426Y-100947853D01*
X216520665Y-101003000D01*
X216803335Y-101003000D01*
X217080574Y-100947853D01*
X217341727Y-100839680D01*
X217576759Y-100682637D01*
X217776637Y-100482759D01*
X217933680Y-100247727D01*
X218041853Y-99986574D01*
X218097000Y-99709335D01*
X218097000Y-99426665D01*
X218041853Y-99149426D01*
X217933680Y-98888273D01*
X217776637Y-98653241D01*
X217576759Y-98453363D01*
X217341727Y-98296320D01*
X217080574Y-98188147D01*
X216803335Y-98133000D01*
X216520665Y-98133000D01*
X216243426Y-98188147D01*
X215982273Y-98296320D01*
X215747241Y-98453363D01*
X215547363Y-98653241D01*
X215440000Y-98813921D01*
X215440000Y-76369788D01*
X215443919Y-76330000D01*
X215431115Y-76200000D01*
X215428280Y-76171212D01*
X215386960Y-76035000D01*
X215381963Y-76018526D01*
X215306749Y-75877811D01*
X215230893Y-75785380D01*
X215205528Y-75754472D01*
X215174619Y-75729106D01*
X212052900Y-72607388D01*
X212027528Y-72576472D01*
X211904189Y-72475251D01*
X211763473Y-72400037D01*
X211610788Y-72353720D01*
X211491791Y-72342000D01*
X211491788Y-72342000D01*
X211452000Y-72338081D01*
X211412212Y-72342000D01*
X183173788Y-72342000D01*
X183134000Y-72338081D01*
X183094212Y-72342000D01*
X183094209Y-72342000D01*
X182975212Y-72353720D01*
X182822527Y-72400037D01*
X182757024Y-72435049D01*
X182681810Y-72475251D01*
X182617796Y-72527786D01*
X182558472Y-72576472D01*
X182533105Y-72607382D01*
X180557383Y-74583105D01*
X180526473Y-74608472D01*
X180501108Y-74639380D01*
X180425251Y-74731811D01*
X180350038Y-74872527D01*
X180303721Y-75025213D01*
X180288081Y-75184000D01*
X180292001Y-75223798D01*
X180292000Y-78613827D01*
X179033383Y-79872445D01*
X179002473Y-79897812D01*
X178977108Y-79928720D01*
X178901251Y-80021151D01*
X178826038Y-80161867D01*
X178782125Y-80306629D01*
X178779721Y-80314553D01*
X178770536Y-80407806D01*
X178695114Y-80458201D01*
X178502201Y-80651114D01*
X178350629Y-80877957D01*
X178246225Y-81130011D01*
X178193000Y-81397589D01*
X178193000Y-81670411D01*
X178246225Y-81937989D01*
X178350629Y-82190043D01*
X178502201Y-82416886D01*
X178695114Y-82609799D01*
X178921957Y-82761371D01*
X179174011Y-82865775D01*
X179441589Y-82919000D01*
X179714411Y-82919000D01*
X179981989Y-82865775D01*
X180234043Y-82761371D01*
X180460886Y-82609799D01*
X180653799Y-82416886D01*
X180805371Y-82190043D01*
X180909775Y-81937989D01*
X180963000Y-81670411D01*
X180963000Y-81397589D01*
X180909775Y-81130011D01*
X180805371Y-80877957D01*
X180653799Y-80651114D01*
X180599769Y-80597084D01*
X181646619Y-79550234D01*
X181677528Y-79524868D01*
X181757345Y-79427609D01*
X181773701Y-79467095D01*
X181941688Y-79718505D01*
X182155495Y-79932312D01*
X182324000Y-80044904D01*
X182324001Y-82976486D01*
X176747388Y-88553100D01*
X176716472Y-88578472D01*
X176646703Y-88663487D01*
X176615251Y-88701811D01*
X176575049Y-88777025D01*
X176540037Y-88842528D01*
X176493720Y-88995213D01*
X176484732Y-89086472D01*
X176478081Y-89154000D01*
X176482000Y-89193788D01*
X176482001Y-95464202D01*
X176478081Y-95504000D01*
X176493721Y-95662787D01*
X176540038Y-95815473D01*
X176615251Y-95956189D01*
X176670852Y-96023939D01*
X176716473Y-96079528D01*
X176747383Y-96104895D01*
X177194102Y-96551614D01*
X177177000Y-96637589D01*
X177177000Y-96910411D01*
X177230225Y-97177989D01*
X177334629Y-97430043D01*
X177486201Y-97656886D01*
X177679114Y-97849799D01*
X177905957Y-98001371D01*
X178158011Y-98105775D01*
X178425589Y-98159000D01*
X178698411Y-98159000D01*
X178965989Y-98105775D01*
X179218043Y-98001371D01*
X179444886Y-97849799D01*
X179637799Y-97656886D01*
X179789371Y-97430043D01*
X179893775Y-97177989D01*
X179947000Y-96910411D01*
X179947000Y-96637589D01*
X179893775Y-96370011D01*
X179789371Y-96117957D01*
X179637799Y-95891114D01*
X179444886Y-95698201D01*
X179218043Y-95546629D01*
X178965989Y-95442225D01*
X178698411Y-95389000D01*
X178425589Y-95389000D01*
X178339614Y-95406102D01*
X178102000Y-95168488D01*
X178102000Y-89489512D01*
X183678618Y-83912895D01*
X183709528Y-83887528D01*
X183810749Y-83764189D01*
X183812881Y-83760201D01*
X183885963Y-83623474D01*
X183896743Y-83587937D01*
X183932280Y-83470788D01*
X183944000Y-83351791D01*
X183944000Y-83351788D01*
X183947919Y-83312000D01*
X183944000Y-83272212D01*
X183944000Y-80044904D01*
X184112505Y-79932312D01*
X184326312Y-79718505D01*
X184404000Y-79602237D01*
X184481688Y-79718505D01*
X184695495Y-79932312D01*
X184946905Y-80100299D01*
X185226257Y-80216011D01*
X185522816Y-80275000D01*
X185825184Y-80275000D01*
X186121743Y-80216011D01*
X186401095Y-80100299D01*
X186652505Y-79932312D01*
X186866312Y-79718505D01*
X186944000Y-79602237D01*
X187021688Y-79718505D01*
X187235495Y-79932312D01*
X187486905Y-80100299D01*
X187766257Y-80216011D01*
X188062816Y-80275000D01*
X188365184Y-80275000D01*
X188661743Y-80216011D01*
X188941095Y-80100299D01*
X189192505Y-79932312D01*
X189406312Y-79718505D01*
X189484000Y-79602237D01*
X189561688Y-79718505D01*
X189775495Y-79932312D01*
X190026905Y-80100299D01*
X190306257Y-80216011D01*
X190602816Y-80275000D01*
X190905184Y-80275000D01*
X191201743Y-80216011D01*
X191481095Y-80100299D01*
X191732505Y-79932312D01*
X191946312Y-79718505D01*
X192024000Y-79602237D01*
X192101688Y-79718505D01*
X192315495Y-79932312D01*
X192484000Y-80044904D01*
X192484001Y-84542202D01*
X192480081Y-84582000D01*
X192495721Y-84740787D01*
X192542038Y-84893473D01*
X192617251Y-85034189D01*
X192672852Y-85101939D01*
X192718473Y-85157528D01*
X192749383Y-85182895D01*
X195995105Y-88428618D01*
X196020472Y-88459528D01*
X196088210Y-88515119D01*
X196143810Y-88560749D01*
X196219024Y-88600951D01*
X196284527Y-88635963D01*
X196437212Y-88682280D01*
X196556209Y-88694000D01*
X196556211Y-88694000D01*
X196595999Y-88697919D01*
X196635787Y-88694000D01*
X201086488Y-88694000D01*
X202390000Y-89997513D01*
X202390001Y-95422486D01*
X196768488Y-101044000D01*
X179363791Y-101044000D01*
X179324000Y-101040081D01*
X179284209Y-101044000D01*
X179165212Y-101055720D01*
X179012527Y-101102037D01*
X178871811Y-101177251D01*
X178748472Y-101278472D01*
X178647251Y-101401811D01*
X178572037Y-101542527D01*
X178525720Y-101695212D01*
X178510081Y-101854000D01*
X178514000Y-101893791D01*
X178514001Y-110704202D01*
X178510081Y-110744000D01*
X178522575Y-110870849D01*
X178523378Y-110879000D01*
X177810513Y-110879000D01*
X177086000Y-110154488D01*
X177086000Y-101681512D01*
X178897513Y-99870000D01*
X190714212Y-99870000D01*
X190754000Y-99873919D01*
X190793788Y-99870000D01*
X190793791Y-99870000D01*
X190912788Y-99858280D01*
X191065473Y-99811963D01*
X191206189Y-99736749D01*
X191329528Y-99635528D01*
X191354900Y-99604612D01*
X195484050Y-95475463D01*
X195682816Y-95515000D01*
X195985184Y-95515000D01*
X196281743Y-95456011D01*
X196561095Y-95340299D01*
X196812505Y-95172312D01*
X197026312Y-94958505D01*
X197194299Y-94707095D01*
X197310011Y-94427743D01*
X197369000Y-94131184D01*
X197369000Y-93828816D01*
X197310011Y-93532257D01*
X197194299Y-93252905D01*
X197026312Y-93001495D01*
X196812505Y-92787688D01*
X196561095Y-92619701D01*
X196281743Y-92503989D01*
X195985184Y-92445000D01*
X195682816Y-92445000D01*
X195386257Y-92503989D01*
X195106905Y-92619701D01*
X194855495Y-92787688D01*
X194641688Y-93001495D01*
X194564000Y-93117763D01*
X194486312Y-93001495D01*
X194272505Y-92787688D01*
X194021095Y-92619701D01*
X193741743Y-92503989D01*
X193445184Y-92445000D01*
X193142816Y-92445000D01*
X192846257Y-92503989D01*
X192566905Y-92619701D01*
X192315495Y-92787688D01*
X192101688Y-93001495D01*
X192024000Y-93117763D01*
X191946312Y-93001495D01*
X191732505Y-92787688D01*
X191564000Y-92675096D01*
X191564000Y-87161787D01*
X191567919Y-87121999D01*
X191563191Y-87074000D01*
X191552280Y-86963212D01*
X191505963Y-86810527D01*
X191430750Y-86669812D01*
X191430749Y-86669810D01*
X191385119Y-86614210D01*
X191329528Y-86546472D01*
X191298619Y-86521106D01*
X186787898Y-82010386D01*
X186805000Y-81924411D01*
X186805000Y-81651589D01*
X186751775Y-81384011D01*
X186647371Y-81131957D01*
X186495799Y-80905114D01*
X186302886Y-80712201D01*
X186076043Y-80560629D01*
X185823989Y-80456225D01*
X185556411Y-80403000D01*
X185283589Y-80403000D01*
X185016011Y-80456225D01*
X184763957Y-80560629D01*
X184537114Y-80712201D01*
X184344201Y-80905114D01*
X184192629Y-81131957D01*
X184088225Y-81384011D01*
X184035000Y-81651589D01*
X184035000Y-81924411D01*
X184088225Y-82191989D01*
X184192629Y-82444043D01*
X184344201Y-82670886D01*
X184537114Y-82863799D01*
X184763957Y-83015371D01*
X185016011Y-83119775D01*
X185283589Y-83173000D01*
X185556411Y-83173000D01*
X185642386Y-83155898D01*
X189944000Y-87457513D01*
X189944001Y-92675096D01*
X189775495Y-92787688D01*
X189561688Y-93001495D01*
X189484000Y-93117763D01*
X189406312Y-93001495D01*
X189192505Y-92787688D01*
X188941095Y-92619701D01*
X188661743Y-92503989D01*
X188365184Y-92445000D01*
X188062816Y-92445000D01*
X187766257Y-92503989D01*
X187486905Y-92619701D01*
X187235495Y-92787688D01*
X187021688Y-93001495D01*
X186944000Y-93117763D01*
X186866312Y-93001495D01*
X186652505Y-92787688D01*
X186401095Y-92619701D01*
X186121743Y-92503989D01*
X185825184Y-92445000D01*
X185522816Y-92445000D01*
X185226257Y-92503989D01*
X184946905Y-92619701D01*
X184695495Y-92787688D01*
X184629056Y-92854127D01*
X184623502Y-92835820D01*
X184564537Y-92725506D01*
X184485185Y-92628815D01*
X184388494Y-92549463D01*
X184278180Y-92490498D01*
X184158482Y-92454188D01*
X184034000Y-92441928D01*
X182234000Y-92441928D01*
X182109518Y-92454188D01*
X181989820Y-92490498D01*
X181879506Y-92549463D01*
X181782815Y-92628815D01*
X181703463Y-92725506D01*
X181644498Y-92835820D01*
X181608188Y-92955518D01*
X181595928Y-93080000D01*
X181595928Y-94880000D01*
X181608188Y-95004482D01*
X181644498Y-95124180D01*
X181703463Y-95234494D01*
X181782815Y-95331185D01*
X181879506Y-95410537D01*
X181989820Y-95469502D01*
X182109518Y-95505812D01*
X182234000Y-95518072D01*
X184034000Y-95518072D01*
X184158482Y-95505812D01*
X184278180Y-95469502D01*
X184388494Y-95410537D01*
X184485185Y-95331185D01*
X184564537Y-95234494D01*
X184623502Y-95124180D01*
X184629056Y-95105873D01*
X184695495Y-95172312D01*
X184946905Y-95340299D01*
X185226257Y-95456011D01*
X185522816Y-95515000D01*
X185825184Y-95515000D01*
X186121743Y-95456011D01*
X186401095Y-95340299D01*
X186652505Y-95172312D01*
X186866312Y-94958505D01*
X186944000Y-94842237D01*
X187021688Y-94958505D01*
X187235495Y-95172312D01*
X187486905Y-95340299D01*
X187766257Y-95456011D01*
X188062816Y-95515000D01*
X188365184Y-95515000D01*
X188661743Y-95456011D01*
X188941095Y-95340299D01*
X189192505Y-95172312D01*
X189406312Y-94958505D01*
X189484000Y-94842237D01*
X189561688Y-94958505D01*
X189775495Y-95172312D01*
X190026905Y-95340299D01*
X190306257Y-95456011D01*
X190602816Y-95515000D01*
X190905184Y-95515000D01*
X191201743Y-95456011D01*
X191481095Y-95340299D01*
X191732505Y-95172312D01*
X191946312Y-94958505D01*
X192024000Y-94842237D01*
X192101688Y-94958505D01*
X192315495Y-95172312D01*
X192566905Y-95340299D01*
X192846257Y-95456011D01*
X193142816Y-95515000D01*
X193153487Y-95515000D01*
X190418488Y-98250000D01*
X178601787Y-98250000D01*
X178561999Y-98246081D01*
X178522211Y-98250000D01*
X178522209Y-98250000D01*
X178403212Y-98261720D01*
X178250527Y-98308037D01*
X178185024Y-98343049D01*
X178109810Y-98383251D01*
X178054210Y-98428881D01*
X177986472Y-98484472D01*
X177961107Y-98515380D01*
X175731387Y-100745101D01*
X175700472Y-100770472D01*
X175630703Y-100855487D01*
X175599251Y-100893811D01*
X175559049Y-100969025D01*
X175524037Y-101034528D01*
X175477720Y-101187213D01*
X175468732Y-101278472D01*
X175462081Y-101346000D01*
X175466000Y-101385788D01*
X175466001Y-110450202D01*
X175462081Y-110490000D01*
X175476305Y-110634410D01*
X175477721Y-110648788D01*
X175504930Y-110738482D01*
X175524038Y-110801473D01*
X175599251Y-110942189D01*
X175654852Y-111009939D01*
X175700473Y-111065528D01*
X175731381Y-111090893D01*
X176169488Y-111529000D01*
X172434791Y-111529000D01*
X172395000Y-111525081D01*
X172236212Y-111540720D01*
X172083526Y-111587037D01*
X171984642Y-111639892D01*
X171942811Y-111662251D01*
X171819472Y-111763472D01*
X171794105Y-111794382D01*
X168111388Y-115477100D01*
X168080472Y-115502472D01*
X168033292Y-115559962D01*
X167979251Y-115625811D01*
X167975625Y-115632595D01*
X167904037Y-115766528D01*
X167857720Y-115919213D01*
X167847578Y-116022188D01*
X167842081Y-116078000D01*
X167846000Y-116117788D01*
X167846001Y-123150202D01*
X167842081Y-123190000D01*
X167851238Y-123282967D01*
X167857721Y-123348788D01*
X167882754Y-123431311D01*
X167904038Y-123501473D01*
X167979251Y-123642189D01*
X168010283Y-123680001D01*
X168080473Y-123765528D01*
X168111383Y-123790895D01*
X168256636Y-123936148D01*
X168230057Y-124206000D01*
X168257764Y-124487309D01*
X168339818Y-124757808D01*
X168473068Y-125007101D01*
X168652392Y-125225608D01*
X168870899Y-125404932D01*
X169120192Y-125538182D01*
X169390691Y-125620236D01*
X169601508Y-125641000D01*
X169742492Y-125641000D01*
X169953309Y-125620236D01*
X170223808Y-125538182D01*
X170473101Y-125404932D01*
X170691608Y-125225608D01*
X170870932Y-125007101D01*
X171004182Y-124757808D01*
X171086236Y-124487309D01*
X171113943Y-124206000D01*
X171086236Y-123924691D01*
X171004182Y-123654192D01*
X170870932Y-123404899D01*
X170691608Y-123186392D01*
X170473101Y-123007068D01*
X170223808Y-122873818D01*
X169953309Y-122791764D01*
X169742492Y-122771000D01*
X169601508Y-122771000D01*
X169466000Y-122784347D01*
X169466000Y-116413512D01*
X172730513Y-113149000D01*
X174757487Y-113149000D01*
X171211852Y-116694636D01*
X171012492Y-116675000D01*
X170871508Y-116675000D01*
X170660691Y-116695764D01*
X170390192Y-116777818D01*
X170140899Y-116911068D01*
X169922392Y-117090392D01*
X169743068Y-117308899D01*
X169609818Y-117558192D01*
X169527764Y-117828691D01*
X169500057Y-118110000D01*
X169527764Y-118391309D01*
X169609818Y-118661808D01*
X169743068Y-118911101D01*
X169922392Y-119129608D01*
X170140899Y-119308932D01*
X170390192Y-119442182D01*
X170660691Y-119524236D01*
X170871508Y-119545000D01*
X171012492Y-119545000D01*
X171223309Y-119524236D01*
X171493808Y-119442182D01*
X171743101Y-119308932D01*
X171961608Y-119129608D01*
X172140932Y-118911101D01*
X172274182Y-118661808D01*
X172356236Y-118391309D01*
X172383943Y-118110000D01*
X172357364Y-117840148D01*
X176398513Y-113799000D01*
X180711488Y-113799000D01*
X180303383Y-114207105D01*
X180272473Y-114232472D01*
X180247108Y-114263380D01*
X180171251Y-114355811D01*
X180119347Y-114452919D01*
X180096038Y-114496527D01*
X180060345Y-114614192D01*
X180049721Y-114649213D01*
X180034081Y-114808000D01*
X180038001Y-114847798D01*
X180038000Y-117239500D01*
X179965114Y-117288201D01*
X179772201Y-117481114D01*
X179620629Y-117707957D01*
X179516225Y-117960011D01*
X179463000Y-118227589D01*
X179463000Y-118500411D01*
X179516225Y-118767989D01*
X179620629Y-119020043D01*
X179772201Y-119246886D01*
X179965114Y-119439799D01*
X180191957Y-119591371D01*
X180444011Y-119695775D01*
X180711589Y-119749000D01*
X180984411Y-119749000D01*
X181251989Y-119695775D01*
X181504043Y-119591371D01*
X181730886Y-119439799D01*
X181923799Y-119246886D01*
X182075371Y-119020043D01*
X182179775Y-118767989D01*
X182233000Y-118500411D01*
X182233000Y-118227589D01*
X182179775Y-117960011D01*
X182075371Y-117707957D01*
X181923799Y-117481114D01*
X181770753Y-117328068D01*
X181968011Y-117409775D01*
X182235589Y-117463000D01*
X182508411Y-117463000D01*
X182775989Y-117409775D01*
X183028043Y-117305371D01*
X183254886Y-117153799D01*
X183447799Y-116960886D01*
X183599371Y-116734043D01*
X183703775Y-116481989D01*
X183757000Y-116214411D01*
X183757000Y-115941589D01*
X183739898Y-115855614D01*
X184039365Y-115556148D01*
X184087815Y-115615185D01*
X184184506Y-115694537D01*
X184294820Y-115753502D01*
X184414518Y-115789812D01*
X184454001Y-115793701D01*
X184454000Y-119438212D01*
X184450081Y-119478000D01*
X184454000Y-119517788D01*
X184454000Y-119517790D01*
X184465720Y-119636787D01*
X184512037Y-119789472D01*
X184512038Y-119789473D01*
X184587251Y-119930189D01*
X184618703Y-119968513D01*
X184688472Y-120053528D01*
X184719387Y-120078899D01*
X185533580Y-120893093D01*
X185509000Y-121016665D01*
X185509000Y-121299335D01*
X185564147Y-121576574D01*
X185672320Y-121837727D01*
X185829363Y-122072759D01*
X186029241Y-122272637D01*
X186264273Y-122429680D01*
X186525426Y-122537853D01*
X186802665Y-122593000D01*
X187085335Y-122593000D01*
X187362574Y-122537853D01*
X187623727Y-122429680D01*
X187858759Y-122272637D01*
X188058637Y-122072759D01*
X188215680Y-121837727D01*
X188323853Y-121576574D01*
X188337684Y-121507039D01*
X195712096Y-121507039D01*
X195752754Y-121641087D01*
X195872963Y-121895420D01*
X196040481Y-122121414D01*
X196248869Y-122310385D01*
X196490119Y-122455070D01*
X196754960Y-122549909D01*
X196977000Y-122428624D01*
X196977000Y-121285000D01*
X197231000Y-121285000D01*
X197231000Y-122428624D01*
X197453040Y-122549909D01*
X197717881Y-122455070D01*
X197959131Y-122310385D01*
X198167519Y-122121414D01*
X198335037Y-121895420D01*
X198455246Y-121641087D01*
X198495904Y-121507039D01*
X198373915Y-121285000D01*
X197231000Y-121285000D01*
X196977000Y-121285000D01*
X195834085Y-121285000D01*
X195712096Y-121507039D01*
X188337684Y-121507039D01*
X188379000Y-121299335D01*
X188379000Y-121016665D01*
X188337685Y-120808961D01*
X195712096Y-120808961D01*
X195834085Y-121031000D01*
X196977000Y-121031000D01*
X196977000Y-119887376D01*
X197231000Y-119887376D01*
X197231000Y-121031000D01*
X198373915Y-121031000D01*
X198495904Y-120808961D01*
X198455246Y-120674913D01*
X198335037Y-120420580D01*
X198167519Y-120194586D01*
X197959131Y-120005615D01*
X197717881Y-119860930D01*
X197453040Y-119766091D01*
X197231000Y-119887376D01*
X196977000Y-119887376D01*
X196754960Y-119766091D01*
X196490119Y-119860930D01*
X196248869Y-120005615D01*
X196040481Y-120194586D01*
X195872963Y-120420580D01*
X195752754Y-120674913D01*
X195712096Y-120808961D01*
X188337685Y-120808961D01*
X188323853Y-120739426D01*
X188215680Y-120478273D01*
X188058637Y-120243241D01*
X187858759Y-120043363D01*
X187623727Y-119886320D01*
X187362574Y-119778147D01*
X187085335Y-119723000D01*
X186802665Y-119723000D01*
X186679093Y-119747580D01*
X186074000Y-119142488D01*
X186074000Y-115793701D01*
X186113482Y-115789812D01*
X186233180Y-115753502D01*
X186343494Y-115694537D01*
X186440185Y-115615185D01*
X186519537Y-115518494D01*
X186578502Y-115408180D01*
X186614812Y-115288482D01*
X186627072Y-115164000D01*
X186627072Y-114714000D01*
X186617223Y-114614000D01*
X186627072Y-114514000D01*
X186627072Y-114064000D01*
X186617223Y-113964000D01*
X186627072Y-113864000D01*
X186627072Y-113414000D01*
X186617223Y-113314000D01*
X186627072Y-113214000D01*
X186627072Y-112764000D01*
X186617223Y-112664000D01*
X186627072Y-112564000D01*
X186627072Y-112114000D01*
X186617223Y-112014000D01*
X186627072Y-111914000D01*
X186627072Y-111464000D01*
X186617223Y-111364000D01*
X186627072Y-111264000D01*
X186627072Y-110814000D01*
X186617223Y-110714000D01*
X186627072Y-110614000D01*
X186627072Y-110164000D01*
X186617223Y-110064000D01*
X186627072Y-109964000D01*
X186627072Y-109514000D01*
X186617223Y-109414000D01*
X186627072Y-109314000D01*
X186627072Y-108864000D01*
X186614812Y-108739518D01*
X186578502Y-108619820D01*
X186519537Y-108509506D01*
X186440185Y-108412815D01*
X186343494Y-108333463D01*
X186233180Y-108274498D01*
X186113482Y-108238188D01*
X186074000Y-108234299D01*
X186074000Y-105335512D01*
X187475513Y-103934000D01*
X188306899Y-103934000D01*
X188184471Y-104034473D01*
X188159104Y-104065383D01*
X187415383Y-104809105D01*
X187384473Y-104834472D01*
X187359108Y-104865380D01*
X187283251Y-104957811D01*
X187227460Y-105062190D01*
X187208038Y-105098527D01*
X187161722Y-105251211D01*
X187161721Y-105251213D01*
X187146081Y-105410000D01*
X187150001Y-105449798D01*
X187150000Y-111470212D01*
X187146081Y-111510000D01*
X187150000Y-111549788D01*
X187150000Y-111549790D01*
X187161720Y-111668787D01*
X187208037Y-111821472D01*
X187242961Y-111886811D01*
X187283251Y-111962189D01*
X187305680Y-111989518D01*
X187384472Y-112085528D01*
X187415387Y-112110899D01*
X189488105Y-114183618D01*
X189513472Y-114214528D01*
X189619668Y-114301680D01*
X189636811Y-114315749D01*
X189777526Y-114390963D01*
X189800928Y-114398062D01*
X189800928Y-114514000D01*
X189810777Y-114614000D01*
X189800928Y-114714000D01*
X189800928Y-115164000D01*
X189813188Y-115288482D01*
X189849498Y-115408180D01*
X189908463Y-115518494D01*
X189987815Y-115615185D01*
X190084506Y-115694537D01*
X190194820Y-115753502D01*
X190314518Y-115789812D01*
X190439000Y-115802072D01*
X191889000Y-115802072D01*
X192013482Y-115789812D01*
X192133180Y-115753502D01*
X192243494Y-115694537D01*
X192340185Y-115615185D01*
X192419537Y-115518494D01*
X192478502Y-115408180D01*
X192514812Y-115288482D01*
X192527072Y-115164000D01*
X192527072Y-114714000D01*
X192517223Y-114614000D01*
X192527072Y-114514000D01*
X192527072Y-114064000D01*
X192517223Y-113964000D01*
X192527072Y-113864000D01*
X192527072Y-113799000D01*
X196727488Y-113799000D01*
X197564000Y-114635512D01*
X197564001Y-116156371D01*
X197354392Y-116328392D01*
X197175068Y-116546899D01*
X197041818Y-116796192D01*
X196959764Y-117066691D01*
X196932057Y-117348000D01*
X196959764Y-117629309D01*
X197041818Y-117899808D01*
X197175068Y-118149101D01*
X197354392Y-118367608D01*
X197572899Y-118546932D01*
X197822192Y-118680182D01*
X198092691Y-118762236D01*
X198303508Y-118783000D01*
X198444492Y-118783000D01*
X198655309Y-118762236D01*
X198925808Y-118680182D01*
X199175101Y-118546932D01*
X199393608Y-118367608D01*
X199572932Y-118149101D01*
X199706182Y-117899808D01*
X199788236Y-117629309D01*
X199815943Y-117348000D01*
X199788236Y-117066691D01*
X199706182Y-116796192D01*
X199572932Y-116546899D01*
X199393608Y-116328392D01*
X199184000Y-116156371D01*
X199184000Y-114339788D01*
X199187919Y-114300000D01*
X199181268Y-114232472D01*
X199172280Y-114141212D01*
X199125963Y-113988527D01*
X199090951Y-113923024D01*
X199050749Y-113847810D01*
X199009696Y-113797788D01*
X198949528Y-113724472D01*
X198918614Y-113699102D01*
X198368512Y-113149000D01*
X199125488Y-113149000D01*
X202136000Y-116159513D01*
X202136001Y-122346486D01*
X198546488Y-125936000D01*
X185755513Y-125936000D01*
X183480900Y-123661387D01*
X183455528Y-123630472D01*
X183332189Y-123529251D01*
X183191473Y-123454037D01*
X183038788Y-123407720D01*
X182919791Y-123396000D01*
X182919788Y-123396000D01*
X182880000Y-123392081D01*
X182840212Y-123396000D01*
X181016635Y-123396000D01*
X180946637Y-123291241D01*
X180746759Y-123091363D01*
X180511727Y-122934320D01*
X180250574Y-122826147D01*
X179973335Y-122771000D01*
X179690665Y-122771000D01*
X179413426Y-122826147D01*
X179152273Y-122934320D01*
X178917241Y-123091363D01*
X178717363Y-123291241D01*
X178560320Y-123526273D01*
X178452147Y-123787426D01*
X178397000Y-124064665D01*
X178397000Y-124347335D01*
X178452147Y-124624574D01*
X178560320Y-124885727D01*
X178717363Y-125120759D01*
X178917241Y-125320637D01*
X179152273Y-125477680D01*
X179413426Y-125585853D01*
X179690665Y-125641000D01*
X179973335Y-125641000D01*
X180250574Y-125585853D01*
X180511727Y-125477680D01*
X180746759Y-125320637D01*
X180946637Y-125120759D01*
X181016635Y-125016000D01*
X182544488Y-125016000D01*
X184014497Y-126486010D01*
X169431523Y-126486010D01*
X166080901Y-123135389D01*
X166055529Y-123104473D01*
X165932190Y-123003252D01*
X165791474Y-122928038D01*
X165638789Y-122881721D01*
X165519792Y-122870001D01*
X165519789Y-122870001D01*
X165480001Y-122866082D01*
X165440213Y-122870001D01*
X163559786Y-122870001D01*
X163519998Y-122866082D01*
X163480210Y-122870001D01*
X163480208Y-122870001D01*
X163361211Y-122881721D01*
X163208526Y-122928038D01*
X163067810Y-123003252D01*
X163012964Y-123048263D01*
X162996561Y-123045000D01*
X162743439Y-123045000D01*
X162495179Y-123094381D01*
X162261324Y-123191247D01*
X162050860Y-123331875D01*
X161871875Y-123510860D01*
X161731247Y-123721324D01*
X161634381Y-123955179D01*
X161585000Y-124203439D01*
X161585000Y-124311928D01*
X160950000Y-124311928D01*
X160825518Y-124324188D01*
X160705820Y-124360498D01*
X160595506Y-124419463D01*
X160498815Y-124498815D01*
X160419463Y-124595506D01*
X160360498Y-124705820D01*
X160324188Y-124825518D01*
X160311928Y-124950000D01*
X160311928Y-126250000D01*
X160324188Y-126374482D01*
X160360498Y-126494180D01*
X160419463Y-126604494D01*
X160498815Y-126701185D01*
X160595506Y-126780537D01*
X160705820Y-126839502D01*
X160825518Y-126875812D01*
X160950000Y-126888072D01*
X162250000Y-126888072D01*
X162374482Y-126875812D01*
X162494180Y-126839502D01*
X162604494Y-126780537D01*
X162701185Y-126701185D01*
X162780537Y-126604494D01*
X162839502Y-126494180D01*
X162842126Y-126485527D01*
X163434078Y-126485527D01*
X163487466Y-126714201D01*
X163717374Y-126820095D01*
X163963524Y-126879102D01*
X164216455Y-126888952D01*
X164466449Y-126849270D01*
X164703896Y-126761578D01*
X164792534Y-126714201D01*
X164845922Y-126485527D01*
X164140000Y-125779605D01*
X163434078Y-126485527D01*
X162842126Y-126485527D01*
X162875812Y-126374482D01*
X162888072Y-126250000D01*
X162888072Y-125909704D01*
X162890730Y-125926449D01*
X162978422Y-126163896D01*
X163025799Y-126252534D01*
X163254473Y-126305922D01*
X163960395Y-125600000D01*
X164319605Y-125600000D01*
X165025527Y-126305922D01*
X165254201Y-126252534D01*
X165360095Y-126022626D01*
X165419102Y-125776476D01*
X165428952Y-125523545D01*
X165389270Y-125273551D01*
X165301578Y-125036104D01*
X165254201Y-124947466D01*
X165025527Y-124894078D01*
X164319605Y-125600000D01*
X163960395Y-125600000D01*
X163946253Y-125585858D01*
X164125858Y-125406253D01*
X164140000Y-125420395D01*
X164845922Y-124714473D01*
X164793515Y-124490001D01*
X165144489Y-124490001D01*
X168369487Y-127715000D01*
X139260366Y-127715000D01*
X137994248Y-124579413D01*
X148262192Y-124579413D01*
X148357956Y-124843814D01*
X148647571Y-124984704D01*
X148959108Y-125066384D01*
X149280595Y-125085718D01*
X149599675Y-125041961D01*
X149904088Y-124936795D01*
X150078044Y-124843814D01*
X150173808Y-124579413D01*
X149218000Y-123623605D01*
X148262192Y-124579413D01*
X137994248Y-124579413D01*
X137561055Y-123506595D01*
X147576282Y-123506595D01*
X147620039Y-123825675D01*
X147725205Y-124130088D01*
X147818186Y-124304044D01*
X148082587Y-124399808D01*
X149038395Y-123444000D01*
X149397605Y-123444000D01*
X150353413Y-124399808D01*
X150617814Y-124304044D01*
X150758704Y-124014429D01*
X150840384Y-123702892D01*
X150859718Y-123381405D01*
X150846219Y-123282967D01*
X155083000Y-123282967D01*
X155083000Y-123605033D01*
X155145832Y-123920912D01*
X155269082Y-124218463D01*
X155448013Y-124486252D01*
X155675748Y-124713987D01*
X155943537Y-124892918D01*
X156241088Y-125016168D01*
X156556967Y-125079000D01*
X156879033Y-125079000D01*
X157194912Y-125016168D01*
X157492463Y-124892918D01*
X157760252Y-124713987D01*
X157987987Y-124486252D01*
X158166918Y-124218463D01*
X158290168Y-123920912D01*
X158353000Y-123605033D01*
X158353000Y-123282967D01*
X158290168Y-122967088D01*
X158166918Y-122669537D01*
X157987987Y-122401748D01*
X157760252Y-122174013D01*
X157492463Y-121995082D01*
X157194912Y-121871832D01*
X156879033Y-121809000D01*
X156556967Y-121809000D01*
X156241088Y-121871832D01*
X155943537Y-121995082D01*
X155675748Y-122174013D01*
X155448013Y-122401748D01*
X155269082Y-122669537D01*
X155145832Y-122967088D01*
X155083000Y-123282967D01*
X150846219Y-123282967D01*
X150815961Y-123062325D01*
X150710795Y-122757912D01*
X150617814Y-122583956D01*
X150353413Y-122488192D01*
X149397605Y-123444000D01*
X149038395Y-123444000D01*
X148082587Y-122488192D01*
X147818186Y-122583956D01*
X147677296Y-122873571D01*
X147595616Y-123185108D01*
X147576282Y-123506595D01*
X137561055Y-123506595D01*
X137077312Y-122308587D01*
X148262192Y-122308587D01*
X149218000Y-123264395D01*
X150173808Y-122308587D01*
X150078044Y-122044186D01*
X149788429Y-121903296D01*
X149476892Y-121821616D01*
X149155405Y-121802282D01*
X148836325Y-121846039D01*
X148531912Y-121951205D01*
X148357956Y-122044186D01*
X148262192Y-122308587D01*
X137077312Y-122308587D01*
X134814808Y-116705413D01*
X148262192Y-116705413D01*
X148357956Y-116969814D01*
X148647571Y-117110704D01*
X148959108Y-117192384D01*
X149280595Y-117211718D01*
X149599675Y-117167961D01*
X149904088Y-117062795D01*
X150078044Y-116969814D01*
X150173808Y-116705413D01*
X149218000Y-115749605D01*
X148262192Y-116705413D01*
X134814808Y-116705413D01*
X134381614Y-115632595D01*
X147576282Y-115632595D01*
X147620039Y-115951675D01*
X147725205Y-116256088D01*
X147818186Y-116430044D01*
X148082587Y-116525808D01*
X149038395Y-115570000D01*
X149397605Y-115570000D01*
X150353413Y-116525808D01*
X150617814Y-116430044D01*
X150758704Y-116140429D01*
X150840384Y-115828892D01*
X150859718Y-115507405D01*
X150846219Y-115408967D01*
X155083000Y-115408967D01*
X155083000Y-115731033D01*
X155145832Y-116046912D01*
X155269082Y-116344463D01*
X155448013Y-116612252D01*
X155675748Y-116839987D01*
X155943537Y-117018918D01*
X156241088Y-117142168D01*
X156556967Y-117205000D01*
X156879033Y-117205000D01*
X157152994Y-117150506D01*
X158657105Y-118654618D01*
X158682472Y-118685528D01*
X158805811Y-118786749D01*
X158946527Y-118861963D01*
X159099212Y-118908280D01*
X159218209Y-118920000D01*
X159218211Y-118920000D01*
X159257999Y-118923919D01*
X159297787Y-118920000D01*
X159597365Y-118920000D01*
X159667363Y-119024759D01*
X159867241Y-119224637D01*
X160102273Y-119381680D01*
X160363426Y-119489853D01*
X160640665Y-119545000D01*
X160923335Y-119545000D01*
X161200574Y-119489853D01*
X161461727Y-119381680D01*
X161696759Y-119224637D01*
X161896637Y-119024759D01*
X162053680Y-118789727D01*
X162161853Y-118528574D01*
X162217000Y-118251335D01*
X162217000Y-117968665D01*
X162161853Y-117691426D01*
X162053680Y-117430273D01*
X161896637Y-117195241D01*
X161696759Y-116995363D01*
X161461727Y-116838320D01*
X161200574Y-116730147D01*
X160923335Y-116675000D01*
X160640665Y-116675000D01*
X160363426Y-116730147D01*
X160102273Y-116838320D01*
X159867241Y-116995363D01*
X159667363Y-117195241D01*
X159597365Y-117300000D01*
X159593513Y-117300000D01*
X158298506Y-116004994D01*
X158353000Y-115731033D01*
X158353000Y-115408967D01*
X158290168Y-115093088D01*
X158166918Y-114795537D01*
X157987987Y-114527748D01*
X157760252Y-114300013D01*
X157528000Y-114144827D01*
X157528000Y-113319512D01*
X160121440Y-110726072D01*
X166014000Y-110726072D01*
X166138482Y-110713812D01*
X166258180Y-110677502D01*
X166368494Y-110618537D01*
X166465185Y-110539185D01*
X166544537Y-110442494D01*
X166603502Y-110332180D01*
X166639812Y-110212482D01*
X166652072Y-110088000D01*
X166652072Y-104288000D01*
X166639812Y-104163518D01*
X166603502Y-104043820D01*
X166544537Y-103933506D01*
X166465185Y-103836815D01*
X166368494Y-103757463D01*
X166258180Y-103698498D01*
X166138482Y-103662188D01*
X166014000Y-103649928D01*
X159614000Y-103649928D01*
X159489518Y-103662188D01*
X159369820Y-103698498D01*
X159259506Y-103757463D01*
X159162815Y-103836815D01*
X159083463Y-103933506D01*
X159024498Y-104043820D01*
X158988188Y-104163518D01*
X158975928Y-104288000D01*
X158975928Y-109580560D01*
X158156644Y-110399844D01*
X158203502Y-110312180D01*
X158239812Y-110192482D01*
X158252072Y-110068000D01*
X158249000Y-109753750D01*
X158090250Y-109595000D01*
X156641000Y-109595000D01*
X156641000Y-110544250D01*
X156799750Y-110703000D01*
X157614000Y-110706072D01*
X157738482Y-110693812D01*
X157858180Y-110657502D01*
X157945844Y-110610644D01*
X156173383Y-112383105D01*
X156142473Y-112408472D01*
X156104722Y-112454472D01*
X156041251Y-112531811D01*
X155966038Y-112672527D01*
X155919721Y-112825212D01*
X155918305Y-112839590D01*
X155904081Y-112984000D01*
X155908001Y-113023798D01*
X155908001Y-114144827D01*
X155675748Y-114300013D01*
X155448013Y-114527748D01*
X155269082Y-114795537D01*
X155145832Y-115093088D01*
X155083000Y-115408967D01*
X150846219Y-115408967D01*
X150815961Y-115188325D01*
X150710795Y-114883912D01*
X150617814Y-114709956D01*
X150353413Y-114614192D01*
X149397605Y-115570000D01*
X149038395Y-115570000D01*
X148082587Y-114614192D01*
X147818186Y-114709956D01*
X147677296Y-114999571D01*
X147595616Y-115311108D01*
X147576282Y-115632595D01*
X134381614Y-115632595D01*
X134289000Y-115403234D01*
X134289000Y-114434587D01*
X148262192Y-114434587D01*
X149218000Y-115390395D01*
X150173808Y-114434587D01*
X150078044Y-114170186D01*
X149788429Y-114029296D01*
X149476892Y-113947616D01*
X149155405Y-113928282D01*
X148836325Y-113972039D01*
X148531912Y-114077205D01*
X148357956Y-114170186D01*
X148262192Y-114434587D01*
X134289000Y-114434587D01*
X134289000Y-111291413D01*
X143316192Y-111291413D01*
X143411956Y-111555814D01*
X143701571Y-111696704D01*
X144013108Y-111778384D01*
X144334595Y-111797718D01*
X144653675Y-111753961D01*
X144958088Y-111648795D01*
X145132044Y-111555814D01*
X145227808Y-111291413D01*
X144272000Y-110335605D01*
X143316192Y-111291413D01*
X134289000Y-111291413D01*
X134289000Y-110218595D01*
X142630282Y-110218595D01*
X142674039Y-110537675D01*
X142779205Y-110842088D01*
X142872186Y-111016044D01*
X143136587Y-111111808D01*
X144092395Y-110156000D01*
X144451605Y-110156000D01*
X145407413Y-111111808D01*
X145671814Y-111016044D01*
X145812704Y-110726429D01*
X145894384Y-110414892D01*
X145913718Y-110093405D01*
X145910235Y-110068000D01*
X154775928Y-110068000D01*
X154788188Y-110192482D01*
X154824498Y-110312180D01*
X154883463Y-110422494D01*
X154962815Y-110519185D01*
X155059506Y-110598537D01*
X155169820Y-110657502D01*
X155289518Y-110693812D01*
X155414000Y-110706072D01*
X156228250Y-110703000D01*
X156387000Y-110544250D01*
X156387000Y-109595000D01*
X154937750Y-109595000D01*
X154779000Y-109753750D01*
X154775928Y-110068000D01*
X145910235Y-110068000D01*
X145869961Y-109774325D01*
X145764795Y-109469912D01*
X145671814Y-109295956D01*
X145407413Y-109200192D01*
X144451605Y-110156000D01*
X144092395Y-110156000D01*
X143136587Y-109200192D01*
X142872186Y-109295956D01*
X142731296Y-109585571D01*
X142649616Y-109897108D01*
X142630282Y-110218595D01*
X134289000Y-110218595D01*
X134289000Y-109020587D01*
X143316192Y-109020587D01*
X144272000Y-109976395D01*
X145227808Y-109020587D01*
X145172543Y-108868000D01*
X154775928Y-108868000D01*
X154779000Y-109182250D01*
X154937750Y-109341000D01*
X156387000Y-109341000D01*
X156387000Y-108391750D01*
X156641000Y-108391750D01*
X156641000Y-109341000D01*
X158090250Y-109341000D01*
X158249000Y-109182250D01*
X158252072Y-108868000D01*
X158239812Y-108743518D01*
X158203502Y-108623820D01*
X158144537Y-108513506D01*
X158065185Y-108416815D01*
X157968494Y-108337463D01*
X157858180Y-108278498D01*
X157738482Y-108242188D01*
X157614000Y-108229928D01*
X156799750Y-108233000D01*
X156641000Y-108391750D01*
X156387000Y-108391750D01*
X156228250Y-108233000D01*
X155414000Y-108229928D01*
X155289518Y-108242188D01*
X155169820Y-108278498D01*
X155059506Y-108337463D01*
X154962815Y-108416815D01*
X154883463Y-108513506D01*
X154824498Y-108623820D01*
X154788188Y-108743518D01*
X154775928Y-108868000D01*
X145172543Y-108868000D01*
X145132044Y-108756186D01*
X144842429Y-108615296D01*
X144530892Y-108533616D01*
X144209405Y-108514282D01*
X143890325Y-108558039D01*
X143585912Y-108663205D01*
X143411956Y-108756186D01*
X143316192Y-109020587D01*
X134289000Y-109020587D01*
X134289000Y-107544890D01*
X134702524Y-107544890D01*
X134747175Y-107692099D01*
X134872359Y-107954920D01*
X135046412Y-108188269D01*
X135262645Y-108383178D01*
X135512748Y-108532157D01*
X135787109Y-108629481D01*
X136017000Y-108508814D01*
X136017000Y-107315000D01*
X136271000Y-107315000D01*
X136271000Y-108508814D01*
X136500891Y-108629481D01*
X136775252Y-108532157D01*
X137025355Y-108383178D01*
X137241588Y-108188269D01*
X137415641Y-107954920D01*
X137540825Y-107692099D01*
X137585476Y-107544890D01*
X137464155Y-107315000D01*
X136271000Y-107315000D01*
X136017000Y-107315000D01*
X134823845Y-107315000D01*
X134702524Y-107544890D01*
X134289000Y-107544890D01*
X134289000Y-103798000D01*
X134655928Y-103798000D01*
X134655928Y-105498000D01*
X134668188Y-105622482D01*
X134704498Y-105742180D01*
X134763463Y-105852494D01*
X134842815Y-105949185D01*
X134939506Y-106028537D01*
X135049820Y-106087502D01*
X135130466Y-106111966D01*
X135046412Y-106187731D01*
X134872359Y-106421080D01*
X134747175Y-106683901D01*
X134702524Y-106831110D01*
X134823845Y-107061000D01*
X136017000Y-107061000D01*
X136017000Y-107041000D01*
X136271000Y-107041000D01*
X136271000Y-107061000D01*
X137464155Y-107061000D01*
X137585476Y-106831110D01*
X137540825Y-106683901D01*
X137415641Y-106421080D01*
X137241588Y-106187731D01*
X137157534Y-106111966D01*
X137238180Y-106087502D01*
X137348494Y-106028537D01*
X137445185Y-105949185D01*
X137524537Y-105852494D01*
X137583502Y-105742180D01*
X137619812Y-105622482D01*
X137632072Y-105498000D01*
X137632072Y-104994967D01*
X142637000Y-104994967D01*
X142637000Y-105317033D01*
X142699832Y-105632912D01*
X142823082Y-105930463D01*
X143002013Y-106198252D01*
X143229748Y-106425987D01*
X143497537Y-106604918D01*
X143795088Y-106728168D01*
X144110967Y-106791000D01*
X144433033Y-106791000D01*
X144748912Y-106728168D01*
X145046463Y-106604918D01*
X145314252Y-106425987D01*
X145541987Y-106198252D01*
X145697173Y-105966000D01*
X154971119Y-105966000D01*
X155059506Y-106038537D01*
X155169820Y-106097502D01*
X155289518Y-106133812D01*
X155414000Y-106146072D01*
X157614000Y-106146072D01*
X157738482Y-106133812D01*
X157858180Y-106097502D01*
X157968494Y-106038537D01*
X158065185Y-105959185D01*
X158144537Y-105862494D01*
X158203502Y-105752180D01*
X158239812Y-105632482D01*
X158252072Y-105508000D01*
X158252072Y-104308000D01*
X158239812Y-104183518D01*
X158203502Y-104063820D01*
X158144537Y-103953506D01*
X158065185Y-103856815D01*
X157968494Y-103777463D01*
X157858180Y-103718498D01*
X157738482Y-103682188D01*
X157614000Y-103669928D01*
X155414000Y-103669928D01*
X155289518Y-103682188D01*
X155169820Y-103718498D01*
X155059506Y-103777463D01*
X154962815Y-103856815D01*
X154883463Y-103953506D01*
X154824498Y-104063820D01*
X154788188Y-104183518D01*
X154775928Y-104308000D01*
X154775928Y-104346000D01*
X145697173Y-104346000D01*
X145541987Y-104113748D01*
X145314252Y-103886013D01*
X145046463Y-103707082D01*
X144748912Y-103583832D01*
X144433033Y-103521000D01*
X144110967Y-103521000D01*
X143795088Y-103583832D01*
X143497537Y-103707082D01*
X143229748Y-103886013D01*
X143002013Y-104113748D01*
X142823082Y-104381537D01*
X142699832Y-104679088D01*
X142637000Y-104994967D01*
X137632072Y-104994967D01*
X137632072Y-103798000D01*
X137619812Y-103673518D01*
X137583502Y-103553820D01*
X137524537Y-103443506D01*
X137445185Y-103346815D01*
X137348494Y-103267463D01*
X137238180Y-103208498D01*
X137118482Y-103172188D01*
X136994000Y-103159928D01*
X135294000Y-103159928D01*
X135169518Y-103172188D01*
X135049820Y-103208498D01*
X134939506Y-103267463D01*
X134842815Y-103346815D01*
X134763463Y-103443506D01*
X134704498Y-103553820D01*
X134668188Y-103673518D01*
X134655928Y-103798000D01*
X134289000Y-103798000D01*
X134289000Y-74458665D01*
X161165000Y-74458665D01*
X161165000Y-74741335D01*
X161220147Y-75018574D01*
X161328320Y-75279727D01*
X161485363Y-75514759D01*
X161685241Y-75714637D01*
X161920273Y-75871680D01*
X162181426Y-75979853D01*
X162458665Y-76035000D01*
X162741335Y-76035000D01*
X163018574Y-75979853D01*
X163279727Y-75871680D01*
X163514759Y-75714637D01*
X163714637Y-75514759D01*
X163871680Y-75279727D01*
X163979853Y-75018574D01*
X164035000Y-74741335D01*
X164035000Y-74600000D01*
X171318057Y-74600000D01*
X171345764Y-74881309D01*
X171427818Y-75151808D01*
X171561068Y-75401101D01*
X171740392Y-75619608D01*
X171958899Y-75798932D01*
X172208192Y-75932182D01*
X172478691Y-76014236D01*
X172689508Y-76035000D01*
X172830492Y-76035000D01*
X173041309Y-76014236D01*
X173311808Y-75932182D01*
X173561101Y-75798932D01*
X173779608Y-75619608D01*
X173958932Y-75401101D01*
X174092182Y-75151808D01*
X174150000Y-74961205D01*
X174207818Y-75151808D01*
X174341068Y-75401101D01*
X174520392Y-75619608D01*
X174738899Y-75798932D01*
X174988192Y-75932182D01*
X175258691Y-76014236D01*
X175469508Y-76035000D01*
X175610492Y-76035000D01*
X175821309Y-76014236D01*
X176091808Y-75932182D01*
X176341101Y-75798932D01*
X176559608Y-75619608D01*
X176738932Y-75401101D01*
X176872182Y-75151808D01*
X176954236Y-74881309D01*
X176981943Y-74600000D01*
X176954236Y-74318691D01*
X176872182Y-74048192D01*
X176738932Y-73798899D01*
X176559608Y-73580392D01*
X176341101Y-73401068D01*
X176091808Y-73267818D01*
X175821309Y-73185764D01*
X175610492Y-73165000D01*
X175469508Y-73165000D01*
X175258691Y-73185764D01*
X174988192Y-73267818D01*
X174738899Y-73401068D01*
X174520392Y-73580392D01*
X174341068Y-73798899D01*
X174207818Y-74048192D01*
X174150000Y-74238795D01*
X174092182Y-74048192D01*
X173958932Y-73798899D01*
X173779608Y-73580392D01*
X173561101Y-73401068D01*
X173311808Y-73267818D01*
X173041309Y-73185764D01*
X172830492Y-73165000D01*
X172689508Y-73165000D01*
X172478691Y-73185764D01*
X172208192Y-73267818D01*
X171958899Y-73401068D01*
X171740392Y-73580392D01*
X171561068Y-73798899D01*
X171427818Y-74048192D01*
X171345764Y-74318691D01*
X171318057Y-74600000D01*
X164035000Y-74600000D01*
X164035000Y-74458665D01*
X163979853Y-74181426D01*
X163871680Y-73920273D01*
X163714637Y-73685241D01*
X163514759Y-73485363D01*
X163279727Y-73328320D01*
X163018574Y-73220147D01*
X162741335Y-73165000D01*
X162458665Y-73165000D01*
X162181426Y-73220147D01*
X161920273Y-73328320D01*
X161685241Y-73485363D01*
X161485363Y-73685241D01*
X161328320Y-73920273D01*
X161220147Y-74181426D01*
X161165000Y-74458665D01*
X134289000Y-74458665D01*
X134289000Y-71685000D01*
X213748909Y-71685000D01*
X220015000Y-80152691D01*
G36*
X210524358Y-111241963D02*
G01*
X210677043Y-111288280D01*
X210796040Y-111300000D01*
X210835831Y-111303919D01*
X210875622Y-111300000D01*
X211500488Y-111300000D01*
X212481500Y-112281013D01*
X212481501Y-123547986D01*
X209543478Y-126486010D01*
X200287502Y-126486010D01*
X203490618Y-123282895D01*
X203521528Y-123257528D01*
X203575923Y-123191247D01*
X203622749Y-123134190D01*
X203670421Y-123045000D01*
X203697963Y-122993473D01*
X203744280Y-122840788D01*
X203756000Y-122721791D01*
X203756000Y-122721788D01*
X203759919Y-122682000D01*
X203756000Y-122642212D01*
X203756000Y-117206665D01*
X207099000Y-117206665D01*
X207099000Y-117489335D01*
X207154147Y-117766574D01*
X207262320Y-118027727D01*
X207419363Y-118262759D01*
X207619241Y-118462637D01*
X207854273Y-118619680D01*
X208115426Y-118727853D01*
X208392665Y-118783000D01*
X208675335Y-118783000D01*
X208952574Y-118727853D01*
X209213727Y-118619680D01*
X209448759Y-118462637D01*
X209648637Y-118262759D01*
X209805680Y-118027727D01*
X209913853Y-117766574D01*
X209969000Y-117489335D01*
X209969000Y-117206665D01*
X209913853Y-116929426D01*
X209805680Y-116668273D01*
X209648637Y-116433241D01*
X209448759Y-116233363D01*
X209213727Y-116076320D01*
X208952574Y-115968147D01*
X208675335Y-115913000D01*
X208392665Y-115913000D01*
X208115426Y-115968147D01*
X207854273Y-116076320D01*
X207619241Y-116233363D01*
X207419363Y-116433241D01*
X207262320Y-116668273D01*
X207154147Y-116929426D01*
X207099000Y-117206665D01*
X203756000Y-117206665D01*
X203756000Y-115863787D01*
X203759919Y-115823999D01*
X203756000Y-115784209D01*
X203744280Y-115665212D01*
X203697963Y-115512527D01*
X203662951Y-115447024D01*
X203622749Y-115371810D01*
X203547172Y-115279720D01*
X203521528Y-115248472D01*
X203490619Y-115223106D01*
X201156178Y-112888665D01*
X205067000Y-112888665D01*
X205067000Y-113171335D01*
X205122147Y-113448574D01*
X205230320Y-113709727D01*
X205387363Y-113944759D01*
X205587241Y-114144637D01*
X205822273Y-114301680D01*
X206083426Y-114409853D01*
X206360665Y-114465000D01*
X206643335Y-114465000D01*
X206920574Y-114409853D01*
X207181727Y-114301680D01*
X207416759Y-114144637D01*
X207616637Y-113944759D01*
X207773680Y-113709727D01*
X207881853Y-113448574D01*
X207937000Y-113171335D01*
X207937000Y-112888665D01*
X207881853Y-112611426D01*
X207773680Y-112350273D01*
X207616637Y-112115241D01*
X207416759Y-111915363D01*
X207181727Y-111758320D01*
X206920574Y-111650147D01*
X206643335Y-111595000D01*
X206360665Y-111595000D01*
X206083426Y-111650147D01*
X205822273Y-111758320D01*
X205587241Y-111915363D01*
X205387363Y-112115241D01*
X205230320Y-112350273D01*
X205122147Y-112611426D01*
X205067000Y-112888665D01*
X201156178Y-112888665D01*
X200061900Y-111794388D01*
X200036528Y-111763472D01*
X199913189Y-111662251D01*
X199772473Y-111587037D01*
X199619788Y-111540720D01*
X199500791Y-111529000D01*
X199500788Y-111529000D01*
X199461000Y-111525081D01*
X199421212Y-111529000D01*
X192467373Y-111529000D01*
X192478502Y-111508180D01*
X192491753Y-111464497D01*
X192524000Y-111432250D01*
X192516905Y-111367227D01*
X192527072Y-111264000D01*
X192527072Y-111199000D01*
X210443980Y-111199000D01*
X210524358Y-111241963D01*
X210524358Y-111241963D01*
G37*
X210524358Y-111241963D02*
X210677043Y-111288280D01*
X210796040Y-111300000D01*
X210835831Y-111303919D01*
X210875622Y-111300000D01*
X211500488Y-111300000D01*
X212481500Y-112281013D01*
X212481501Y-123547986D01*
X209543478Y-126486010D01*
X200287502Y-126486010D01*
X203490618Y-123282895D01*
X203521528Y-123257528D01*
X203575923Y-123191247D01*
X203622749Y-123134190D01*
X203670421Y-123045000D01*
X203697963Y-122993473D01*
X203744280Y-122840788D01*
X203756000Y-122721791D01*
X203756000Y-122721788D01*
X203759919Y-122682000D01*
X203756000Y-122642212D01*
X203756000Y-117206665D01*
X207099000Y-117206665D01*
X207099000Y-117489335D01*
X207154147Y-117766574D01*
X207262320Y-118027727D01*
X207419363Y-118262759D01*
X207619241Y-118462637D01*
X207854273Y-118619680D01*
X208115426Y-118727853D01*
X208392665Y-118783000D01*
X208675335Y-118783000D01*
X208952574Y-118727853D01*
X209213727Y-118619680D01*
X209448759Y-118462637D01*
X209648637Y-118262759D01*
X209805680Y-118027727D01*
X209913853Y-117766574D01*
X209969000Y-117489335D01*
X209969000Y-117206665D01*
X209913853Y-116929426D01*
X209805680Y-116668273D01*
X209648637Y-116433241D01*
X209448759Y-116233363D01*
X209213727Y-116076320D01*
X208952574Y-115968147D01*
X208675335Y-115913000D01*
X208392665Y-115913000D01*
X208115426Y-115968147D01*
X207854273Y-116076320D01*
X207619241Y-116233363D01*
X207419363Y-116433241D01*
X207262320Y-116668273D01*
X207154147Y-116929426D01*
X207099000Y-117206665D01*
X203756000Y-117206665D01*
X203756000Y-115863787D01*
X203759919Y-115823999D01*
X203756000Y-115784209D01*
X203744280Y-115665212D01*
X203697963Y-115512527D01*
X203662951Y-115447024D01*
X203622749Y-115371810D01*
X203547172Y-115279720D01*
X203521528Y-115248472D01*
X203490619Y-115223106D01*
X201156178Y-112888665D01*
X205067000Y-112888665D01*
X205067000Y-113171335D01*
X205122147Y-113448574D01*
X205230320Y-113709727D01*
X205387363Y-113944759D01*
X205587241Y-114144637D01*
X205822273Y-114301680D01*
X206083426Y-114409853D01*
X206360665Y-114465000D01*
X206643335Y-114465000D01*
X206920574Y-114409853D01*
X207181727Y-114301680D01*
X207416759Y-114144637D01*
X207616637Y-113944759D01*
X207773680Y-113709727D01*
X207881853Y-113448574D01*
X207937000Y-113171335D01*
X207937000Y-112888665D01*
X207881853Y-112611426D01*
X207773680Y-112350273D01*
X207616637Y-112115241D01*
X207416759Y-111915363D01*
X207181727Y-111758320D01*
X206920574Y-111650147D01*
X206643335Y-111595000D01*
X206360665Y-111595000D01*
X206083426Y-111650147D01*
X205822273Y-111758320D01*
X205587241Y-111915363D01*
X205387363Y-112115241D01*
X205230320Y-112350273D01*
X205122147Y-112611426D01*
X205067000Y-112888665D01*
X201156178Y-112888665D01*
X200061900Y-111794388D01*
X200036528Y-111763472D01*
X199913189Y-111662251D01*
X199772473Y-111587037D01*
X199619788Y-111540720D01*
X199500791Y-111529000D01*
X199500788Y-111529000D01*
X199461000Y-111525081D01*
X199421212Y-111529000D01*
X192467373Y-111529000D01*
X192478502Y-111508180D01*
X192491753Y-111464497D01*
X192524000Y-111432250D01*
X192516905Y-111367227D01*
X192527072Y-111264000D01*
X192527072Y-111199000D01*
X210443980Y-111199000D01*
X210524358Y-111241963D01*
M02*
