G04 #@! TF.GenerationSoftware,KiCad,Pcbnew,5.1.2-1.fc30*
G04 #@! TF.CreationDate,2019-08-07T12:15:18+02:00*
G04 #@! TF.ProjectId,term,7465726d-2e6b-4696-9361-645f70636258,rev?*
G04 #@! TF.SameCoordinates,Original*
G04 #@! TF.FileFunction,Legend,Top*
G04 #@! TF.FilePolarity,Positive*
%FSLAX46Y46*%
G04 Gerber Fmt 4.6, Leading zero omitted, Abs format (unit mm)*
G04 Created by KiCad (PCBNEW 5.1.2-1.fc30) date 2019-08-07 12:15:18*
%MOMM*%
%LPD*%
G04 APERTURE LIST*
%ADD10C,0.150000*%
%ADD11C,0.120000*%
G04 APERTURE END LIST*
D10*
X230517619Y-96080952D02*
X230517619Y-95604761D01*
X230041428Y-95557142D01*
X230089047Y-95604761D01*
X230136666Y-95700000D01*
X230136666Y-95938095D01*
X230089047Y-96033333D01*
X230041428Y-96080952D01*
X229946190Y-96128571D01*
X229708095Y-96128571D01*
X229612857Y-96080952D01*
X229565238Y-96033333D01*
X229517619Y-95938095D01*
X229517619Y-95700000D01*
X229565238Y-95604761D01*
X229612857Y-95557142D01*
X230517619Y-96461904D02*
X230517619Y-97128571D01*
X229517619Y-96700000D01*
X229565238Y-97557142D02*
X229517619Y-97557142D01*
X229422380Y-97509523D01*
X229374761Y-97461904D01*
X230184285Y-98414285D02*
X229517619Y-98414285D01*
X230565238Y-98176190D02*
X229850952Y-97938095D01*
X229850952Y-98557142D01*
X230517619Y-99128571D02*
X230517619Y-99223809D01*
X230470000Y-99319047D01*
X230422380Y-99366666D01*
X230327142Y-99414285D01*
X230136666Y-99461904D01*
X229898571Y-99461904D01*
X229708095Y-99414285D01*
X229612857Y-99366666D01*
X229565238Y-99319047D01*
X229517619Y-99223809D01*
X229517619Y-99128571D01*
X229565238Y-99033333D01*
X229612857Y-98985714D01*
X229708095Y-98938095D01*
X229898571Y-98890476D01*
X230136666Y-98890476D01*
X230327142Y-98938095D01*
X230422380Y-98985714D01*
X230470000Y-99033333D01*
X230517619Y-99128571D01*
X230517619Y-100080952D02*
X230517619Y-100176190D01*
X230470000Y-100271428D01*
X230422380Y-100319047D01*
X230327142Y-100366666D01*
X230136666Y-100414285D01*
X229898571Y-100414285D01*
X229708095Y-100366666D01*
X229612857Y-100319047D01*
X229565238Y-100271428D01*
X229517619Y-100176190D01*
X229517619Y-100080952D01*
X229565238Y-99985714D01*
X229612857Y-99938095D01*
X229708095Y-99890476D01*
X229898571Y-99842857D01*
X230136666Y-99842857D01*
X230327142Y-99890476D01*
X230422380Y-99938095D01*
X230470000Y-99985714D01*
X230517619Y-100080952D01*
X229517619Y-101604761D02*
X230184285Y-101604761D01*
X230089047Y-101604761D02*
X230136666Y-101652380D01*
X230184285Y-101747619D01*
X230184285Y-101890476D01*
X230136666Y-101985714D01*
X230041428Y-102033333D01*
X229517619Y-102033333D01*
X230041428Y-102033333D02*
X230136666Y-102080952D01*
X230184285Y-102176190D01*
X230184285Y-102319047D01*
X230136666Y-102414285D01*
X230041428Y-102461904D01*
X229517619Y-102461904D01*
X229517619Y-102938095D02*
X230184285Y-102938095D01*
X230089047Y-102938095D02*
X230136666Y-102985714D01*
X230184285Y-103080952D01*
X230184285Y-103223809D01*
X230136666Y-103319047D01*
X230041428Y-103366666D01*
X229517619Y-103366666D01*
X230041428Y-103366666D02*
X230136666Y-103414285D01*
X230184285Y-103509523D01*
X230184285Y-103652380D01*
X230136666Y-103747619D01*
X230041428Y-103795238D01*
X229517619Y-103795238D01*
D11*
X228700000Y-71000000D02*
X228700000Y-128400000D01*
X220700000Y-71000000D02*
X229286421Y-71000000D01*
X220700000Y-128400000D02*
X229286421Y-128400000D01*
X228700000Y-128400000D02*
X228113579Y-127273496D01*
X228700000Y-128400000D02*
X229286421Y-127273496D01*
X228700000Y-71000000D02*
X228113579Y-72126504D01*
X228700000Y-71000000D02*
X229286421Y-72126504D01*
X171720000Y-74600000D02*
X170950000Y-74600000D01*
X163640000Y-74600000D02*
X164410000Y-74600000D01*
X170950000Y-73230000D02*
X164410000Y-73230000D01*
X170950000Y-75970000D02*
X170950000Y-73230000D01*
X164410000Y-75970000D02*
X170950000Y-75970000D01*
X164410000Y-73230000D02*
X164410000Y-75970000D01*
X164214000Y-95980000D02*
X164214000Y-76740000D01*
X164214000Y-95980000D02*
X214754000Y-95980000D01*
X214754000Y-95980000D02*
X214754000Y-76740000D01*
X214754000Y-76740000D02*
X164214000Y-76740000D01*
X182134000Y-96230000D02*
X184134000Y-96230000D01*
X161070000Y-127450000D02*
X164670000Y-127450000D01*
X161031522Y-127438478D02*
G75*
G02X162870000Y-123000000I1838478J1838478D01*
G01*
X164708478Y-127438478D02*
G75*
G03X162870000Y-123000000I-1838478J1838478D01*
G01*
X134814000Y-108518000D02*
X137474000Y-108518000D01*
X134814000Y-105918000D02*
X134814000Y-108518000D01*
X137474000Y-105918000D02*
X137474000Y-108518000D01*
X134814000Y-105918000D02*
X137474000Y-105918000D01*
X134814000Y-104648000D02*
X134814000Y-103318000D01*
X134814000Y-103318000D02*
X136144000Y-103318000D01*
X146892000Y-102286000D02*
X146892000Y-113026000D01*
X141652000Y-102286000D02*
X141652000Y-113026000D01*
X146892000Y-102286000D02*
X141652000Y-102286000D01*
X146892000Y-113026000D02*
X141652000Y-113026000D01*
X148848000Y-114314000D02*
X148848000Y-112950000D01*
X148848000Y-118190000D02*
X148848000Y-116826000D01*
X157088000Y-114314000D02*
X157088000Y-112950000D01*
X157088000Y-118190000D02*
X157088000Y-116826000D01*
X157088000Y-112950000D02*
X148848000Y-112950000D01*
X157088000Y-118190000D02*
X148848000Y-118190000D01*
X157088000Y-126064000D02*
X148848000Y-126064000D01*
X157088000Y-120824000D02*
X148848000Y-120824000D01*
X157088000Y-126064000D02*
X157088000Y-124700000D01*
X157088000Y-122188000D02*
X157088000Y-120824000D01*
X148848000Y-126064000D02*
X148848000Y-124700000D01*
X148848000Y-122188000D02*
X148848000Y-120824000D01*
X170712000Y-124206000D02*
X171482000Y-124206000D01*
X178792000Y-124206000D02*
X178022000Y-124206000D01*
X171482000Y-125576000D02*
X178022000Y-125576000D01*
X171482000Y-122836000D02*
X171482000Y-125576000D01*
X178022000Y-122836000D02*
X171482000Y-122836000D01*
X178022000Y-125576000D02*
X178022000Y-122836000D01*
X188754000Y-119788000D02*
X188754000Y-122528000D01*
X188754000Y-122528000D02*
X195294000Y-122528000D01*
X195294000Y-122528000D02*
X195294000Y-119788000D01*
X195294000Y-119788000D02*
X188754000Y-119788000D01*
X187984000Y-121158000D02*
X188754000Y-121158000D01*
X196064000Y-121158000D02*
X195294000Y-121158000D01*
X169902000Y-118110000D02*
X169132000Y-118110000D01*
X161822000Y-118110000D02*
X162592000Y-118110000D01*
X169132000Y-116740000D02*
X162592000Y-116740000D01*
X169132000Y-119480000D02*
X169132000Y-116740000D01*
X162592000Y-119480000D02*
X169132000Y-119480000D01*
X162592000Y-116740000D02*
X162592000Y-119480000D01*
X208312000Y-111660000D02*
X208312000Y-114400000D01*
X208312000Y-114400000D02*
X214852000Y-114400000D01*
X214852000Y-114400000D02*
X214852000Y-111660000D01*
X214852000Y-111660000D02*
X208312000Y-111660000D01*
X207542000Y-113030000D02*
X208312000Y-113030000D01*
X215622000Y-113030000D02*
X214852000Y-113030000D01*
X207542000Y-99568000D02*
X208312000Y-99568000D01*
X215622000Y-99568000D02*
X214852000Y-99568000D01*
X208312000Y-100938000D02*
X214852000Y-100938000D01*
X208312000Y-98198000D02*
X208312000Y-100938000D01*
X214852000Y-98198000D02*
X208312000Y-98198000D01*
X214852000Y-100938000D02*
X214852000Y-98198000D01*
X183890000Y-75970000D02*
X183890000Y-73230000D01*
X183890000Y-73230000D02*
X177350000Y-73230000D01*
X177350000Y-73230000D02*
X177350000Y-75970000D01*
X177350000Y-75970000D02*
X183890000Y-75970000D01*
X184660000Y-74600000D02*
X183890000Y-74600000D01*
X176580000Y-74600000D02*
X177350000Y-74600000D01*
X199676000Y-74830000D02*
X199676000Y-77570000D01*
X199676000Y-77570000D02*
X206216000Y-77570000D01*
X206216000Y-77570000D02*
X206216000Y-74830000D01*
X206216000Y-74830000D02*
X199676000Y-74830000D01*
X198906000Y-76200000D02*
X199676000Y-76200000D01*
X206986000Y-76200000D02*
X206216000Y-76200000D01*
X199414000Y-117348000D02*
X200184000Y-117348000D01*
X207494000Y-117348000D02*
X206724000Y-117348000D01*
X200184000Y-118718000D02*
X206724000Y-118718000D01*
X200184000Y-115978000D02*
X200184000Y-118718000D01*
X206724000Y-115978000D02*
X200184000Y-115978000D01*
X206724000Y-118718000D02*
X206724000Y-115978000D01*
X214852000Y-106780000D02*
X214852000Y-104040000D01*
X214852000Y-104040000D02*
X208312000Y-104040000D01*
X208312000Y-104040000D02*
X208312000Y-106780000D01*
X208312000Y-106780000D02*
X214852000Y-106780000D01*
X215622000Y-105410000D02*
X214852000Y-105410000D01*
X207542000Y-105410000D02*
X208312000Y-105410000D01*
D10*
X167513333Y-72682380D02*
X167180000Y-72206190D01*
X166941904Y-72682380D02*
X166941904Y-71682380D01*
X167322857Y-71682380D01*
X167418095Y-71730000D01*
X167465714Y-71777619D01*
X167513333Y-71872857D01*
X167513333Y-72015714D01*
X167465714Y-72110952D01*
X167418095Y-72158571D01*
X167322857Y-72206190D01*
X166941904Y-72206190D01*
X167846666Y-71682380D02*
X168465714Y-71682380D01*
X168132380Y-72063333D01*
X168275238Y-72063333D01*
X168370476Y-72110952D01*
X168418095Y-72158571D01*
X168465714Y-72253809D01*
X168465714Y-72491904D01*
X168418095Y-72587142D01*
X168370476Y-72634761D01*
X168275238Y-72682380D01*
X167989523Y-72682380D01*
X167894285Y-72634761D01*
X167846666Y-72587142D01*
X162436380Y-95181904D02*
X163245904Y-95181904D01*
X163341142Y-95134285D01*
X163388761Y-95086666D01*
X163436380Y-94991428D01*
X163436380Y-94800952D01*
X163388761Y-94705714D01*
X163341142Y-94658095D01*
X163245904Y-94610476D01*
X162436380Y-94610476D01*
X162769714Y-93705714D02*
X163436380Y-93705714D01*
X162388761Y-93943809D02*
X163103047Y-94181904D01*
X163103047Y-93562857D01*
X162108095Y-121492380D02*
X162108095Y-122301904D01*
X162155714Y-122397142D01*
X162203333Y-122444761D01*
X162298571Y-122492380D01*
X162489047Y-122492380D01*
X162584285Y-122444761D01*
X162631904Y-122397142D01*
X162679523Y-122301904D01*
X162679523Y-121492380D01*
X163679523Y-122492380D02*
X163108095Y-122492380D01*
X163393809Y-122492380D02*
X163393809Y-121492380D01*
X163298571Y-121635238D01*
X163203333Y-121730476D01*
X163108095Y-121778095D01*
X135358285Y-102246571D02*
X135501142Y-102294190D01*
X135548761Y-102341809D01*
X135596380Y-102437047D01*
X135596380Y-102579904D01*
X135548761Y-102675142D01*
X135501142Y-102722761D01*
X135405904Y-102770380D01*
X135024952Y-102770380D01*
X135024952Y-101770380D01*
X135358285Y-101770380D01*
X135453523Y-101818000D01*
X135501142Y-101865619D01*
X135548761Y-101960857D01*
X135548761Y-102056095D01*
X135501142Y-102151333D01*
X135453523Y-102198952D01*
X135358285Y-102246571D01*
X135024952Y-102246571D01*
X135882095Y-101770380D02*
X136453523Y-101770380D01*
X136167809Y-102770380D02*
X136167809Y-101770380D01*
X137310666Y-102770380D02*
X136739238Y-102770380D01*
X137024952Y-102770380D02*
X137024952Y-101770380D01*
X136929714Y-101913238D01*
X136834476Y-102008476D01*
X136739238Y-102056095D01*
X139041142Y-112942666D02*
X139088761Y-112990285D01*
X139136380Y-113133142D01*
X139136380Y-113228380D01*
X139088761Y-113371238D01*
X138993523Y-113466476D01*
X138898285Y-113514095D01*
X138707809Y-113561714D01*
X138564952Y-113561714D01*
X138374476Y-113514095D01*
X138279238Y-113466476D01*
X138184000Y-113371238D01*
X138136380Y-113228380D01*
X138136380Y-113133142D01*
X138184000Y-112990285D01*
X138231619Y-112942666D01*
X139136380Y-111990285D02*
X139136380Y-112561714D01*
X139136380Y-112276000D02*
X138136380Y-112276000D01*
X138279238Y-112371238D01*
X138374476Y-112466476D01*
X138422095Y-112561714D01*
X152801333Y-119677142D02*
X152753714Y-119724761D01*
X152610857Y-119772380D01*
X152515619Y-119772380D01*
X152372761Y-119724761D01*
X152277523Y-119629523D01*
X152229904Y-119534285D01*
X152182285Y-119343809D01*
X152182285Y-119200952D01*
X152229904Y-119010476D01*
X152277523Y-118915238D01*
X152372761Y-118820000D01*
X152515619Y-118772380D01*
X152610857Y-118772380D01*
X152753714Y-118820000D01*
X152801333Y-118867619D01*
X153182285Y-118867619D02*
X153229904Y-118820000D01*
X153325142Y-118772380D01*
X153563238Y-118772380D01*
X153658476Y-118820000D01*
X153706095Y-118867619D01*
X153753714Y-118962857D01*
X153753714Y-119058095D01*
X153706095Y-119200952D01*
X153134666Y-119772380D01*
X153753714Y-119772380D01*
X144105333Y-123039142D02*
X144057714Y-123086761D01*
X143914857Y-123134380D01*
X143819619Y-123134380D01*
X143676761Y-123086761D01*
X143581523Y-122991523D01*
X143533904Y-122896285D01*
X143486285Y-122705809D01*
X143486285Y-122562952D01*
X143533904Y-122372476D01*
X143581523Y-122277238D01*
X143676761Y-122182000D01*
X143819619Y-122134380D01*
X143914857Y-122134380D01*
X144057714Y-122182000D01*
X144105333Y-122229619D01*
X144438666Y-122134380D02*
X145057714Y-122134380D01*
X144724380Y-122515333D01*
X144867238Y-122515333D01*
X144962476Y-122562952D01*
X145010095Y-122610571D01*
X145057714Y-122705809D01*
X145057714Y-122943904D01*
X145010095Y-123039142D01*
X144962476Y-123086761D01*
X144867238Y-123134380D01*
X144581523Y-123134380D01*
X144486285Y-123086761D01*
X144438666Y-123039142D01*
X174585333Y-127028380D02*
X174109142Y-127028380D01*
X174109142Y-126028380D01*
X175442476Y-127028380D02*
X174871047Y-127028380D01*
X175156761Y-127028380D02*
X175156761Y-126028380D01*
X175061523Y-126171238D01*
X174966285Y-126266476D01*
X174871047Y-126314095D01*
X191857333Y-119240380D02*
X191524000Y-118764190D01*
X191285904Y-119240380D02*
X191285904Y-118240380D01*
X191666857Y-118240380D01*
X191762095Y-118288000D01*
X191809714Y-118335619D01*
X191857333Y-118430857D01*
X191857333Y-118573714D01*
X191809714Y-118668952D01*
X191762095Y-118716571D01*
X191666857Y-118764190D01*
X191285904Y-118764190D01*
X192809714Y-119240380D02*
X192238285Y-119240380D01*
X192524000Y-119240380D02*
X192524000Y-118240380D01*
X192428761Y-118383238D01*
X192333523Y-118478476D01*
X192238285Y-118526095D01*
X165695333Y-116192380D02*
X165362000Y-115716190D01*
X165123904Y-116192380D02*
X165123904Y-115192380D01*
X165504857Y-115192380D01*
X165600095Y-115240000D01*
X165647714Y-115287619D01*
X165695333Y-115382857D01*
X165695333Y-115525714D01*
X165647714Y-115620952D01*
X165600095Y-115668571D01*
X165504857Y-115716190D01*
X165123904Y-115716190D01*
X166076285Y-115287619D02*
X166123904Y-115240000D01*
X166219142Y-115192380D01*
X166457238Y-115192380D01*
X166552476Y-115240000D01*
X166600095Y-115287619D01*
X166647714Y-115382857D01*
X166647714Y-115478095D01*
X166600095Y-115620952D01*
X166028666Y-116192380D01*
X166647714Y-116192380D01*
X211415333Y-111112380D02*
X211082000Y-110636190D01*
X210843904Y-111112380D02*
X210843904Y-110112380D01*
X211224857Y-110112380D01*
X211320095Y-110160000D01*
X211367714Y-110207619D01*
X211415333Y-110302857D01*
X211415333Y-110445714D01*
X211367714Y-110540952D01*
X211320095Y-110588571D01*
X211224857Y-110636190D01*
X210843904Y-110636190D01*
X212272476Y-110445714D02*
X212272476Y-111112380D01*
X212034380Y-110064761D02*
X211796285Y-110779047D01*
X212415333Y-110779047D01*
X211415333Y-102390380D02*
X211082000Y-101914190D01*
X210843904Y-102390380D02*
X210843904Y-101390380D01*
X211224857Y-101390380D01*
X211320095Y-101438000D01*
X211367714Y-101485619D01*
X211415333Y-101580857D01*
X211415333Y-101723714D01*
X211367714Y-101818952D01*
X211320095Y-101866571D01*
X211224857Y-101914190D01*
X210843904Y-101914190D01*
X212320095Y-101390380D02*
X211843904Y-101390380D01*
X211796285Y-101866571D01*
X211843904Y-101818952D01*
X211939142Y-101771333D01*
X212177238Y-101771333D01*
X212272476Y-101818952D01*
X212320095Y-101866571D01*
X212367714Y-101961809D01*
X212367714Y-102199904D01*
X212320095Y-102295142D01*
X212272476Y-102342761D01*
X212177238Y-102390380D01*
X211939142Y-102390380D01*
X211843904Y-102342761D01*
X211796285Y-102295142D01*
X180453333Y-77422380D02*
X180120000Y-76946190D01*
X179881904Y-77422380D02*
X179881904Y-76422380D01*
X180262857Y-76422380D01*
X180358095Y-76470000D01*
X180405714Y-76517619D01*
X180453333Y-76612857D01*
X180453333Y-76755714D01*
X180405714Y-76850952D01*
X180358095Y-76898571D01*
X180262857Y-76946190D01*
X179881904Y-76946190D01*
X181310476Y-76422380D02*
X181120000Y-76422380D01*
X181024761Y-76470000D01*
X180977142Y-76517619D01*
X180881904Y-76660476D01*
X180834285Y-76850952D01*
X180834285Y-77231904D01*
X180881904Y-77327142D01*
X180929523Y-77374761D01*
X181024761Y-77422380D01*
X181215238Y-77422380D01*
X181310476Y-77374761D01*
X181358095Y-77327142D01*
X181405714Y-77231904D01*
X181405714Y-76993809D01*
X181358095Y-76898571D01*
X181310476Y-76850952D01*
X181215238Y-76803333D01*
X181024761Y-76803333D01*
X180929523Y-76850952D01*
X180881904Y-76898571D01*
X180834285Y-76993809D01*
X202779333Y-74282380D02*
X202446000Y-73806190D01*
X202207904Y-74282380D02*
X202207904Y-73282380D01*
X202588857Y-73282380D01*
X202684095Y-73330000D01*
X202731714Y-73377619D01*
X202779333Y-73472857D01*
X202779333Y-73615714D01*
X202731714Y-73710952D01*
X202684095Y-73758571D01*
X202588857Y-73806190D01*
X202207904Y-73806190D01*
X203112666Y-73282380D02*
X203779333Y-73282380D01*
X203350761Y-74282380D01*
X203287333Y-120170380D02*
X202954000Y-119694190D01*
X202715904Y-120170380D02*
X202715904Y-119170380D01*
X203096857Y-119170380D01*
X203192095Y-119218000D01*
X203239714Y-119265619D01*
X203287333Y-119360857D01*
X203287333Y-119503714D01*
X203239714Y-119598952D01*
X203192095Y-119646571D01*
X203096857Y-119694190D01*
X202715904Y-119694190D01*
X203763523Y-120170380D02*
X203954000Y-120170380D01*
X204049238Y-120122761D01*
X204096857Y-120075142D01*
X204192095Y-119932285D01*
X204239714Y-119741809D01*
X204239714Y-119360857D01*
X204192095Y-119265619D01*
X204144476Y-119218000D01*
X204049238Y-119170380D01*
X203858761Y-119170380D01*
X203763523Y-119218000D01*
X203715904Y-119265619D01*
X203668285Y-119360857D01*
X203668285Y-119598952D01*
X203715904Y-119694190D01*
X203763523Y-119741809D01*
X203858761Y-119789428D01*
X204049238Y-119789428D01*
X204144476Y-119741809D01*
X204192095Y-119694190D01*
X204239714Y-119598952D01*
X210939142Y-108232380D02*
X210605809Y-107756190D01*
X210367714Y-108232380D02*
X210367714Y-107232380D01*
X210748666Y-107232380D01*
X210843904Y-107280000D01*
X210891523Y-107327619D01*
X210939142Y-107422857D01*
X210939142Y-107565714D01*
X210891523Y-107660952D01*
X210843904Y-107708571D01*
X210748666Y-107756190D01*
X210367714Y-107756190D01*
X211891523Y-108232380D02*
X211320095Y-108232380D01*
X211605809Y-108232380D02*
X211605809Y-107232380D01*
X211510571Y-107375238D01*
X211415333Y-107470476D01*
X211320095Y-107518095D01*
X212510571Y-107232380D02*
X212605809Y-107232380D01*
X212701047Y-107280000D01*
X212748666Y-107327619D01*
X212796285Y-107422857D01*
X212843904Y-107613333D01*
X212843904Y-107851428D01*
X212796285Y-108041904D01*
X212748666Y-108137142D01*
X212701047Y-108184761D01*
X212605809Y-108232380D01*
X212510571Y-108232380D01*
X212415333Y-108184761D01*
X212367714Y-108137142D01*
X212320095Y-108041904D01*
X212272476Y-107851428D01*
X212272476Y-107613333D01*
X212320095Y-107422857D01*
X212367714Y-107327619D01*
X212415333Y-107280000D01*
X212510571Y-107232380D01*
M02*
