G04 #@! TF.GenerationSoftware,KiCad,Pcbnew,5.1.2-1.fc30*
G04 #@! TF.CreationDate,2019-08-07T12:15:18+02:00*
G04 #@! TF.ProjectId,term,7465726d-2e6b-4696-9361-645f70636258,rev?*
G04 #@! TF.SameCoordinates,Original*
G04 #@! TF.FileFunction,Copper,L1,Top*
G04 #@! TF.FilePolarity,Positive*
%FSLAX46Y46*%
G04 Gerber Fmt 4.6, Leading zero omitted, Abs format (unit mm)*
G04 Created by KiCad (PCBNEW 5.1.2-1.fc30) date 2019-08-07 12:15:18*
%MOMM*%
%LPD*%
G04 APERTURE LIST*
%ADD10C,0.300000*%
%ADD11O,1.600000X1.600000*%
%ADD12C,1.600000*%
%ADD13R,1.800000X1.800000*%
%ADD14C,1.800000*%
%ADD15C,1.300000*%
%ADD16R,1.300000X1.300000*%
%ADD17R,1.700000X1.700000*%
%ADD18O,1.700000X1.700000*%
%ADD19C,2.000000*%
%ADD20C,1.500000*%
%ADD21C,0.350000*%
%ADD22C,0.250000*%
%ADD23C,0.254000*%
G04 APERTURE END LIST*
D10*
X182904761Y-125733333D02*
X183857142Y-125733333D01*
X182714285Y-126304761D02*
X183380952Y-124304761D01*
X184047619Y-126304761D01*
X184714285Y-126304761D02*
X184714285Y-124304761D01*
X184904761Y-125542857D02*
X185476190Y-126304761D01*
X185476190Y-124971428D02*
X184714285Y-125733333D01*
X187190476Y-126304761D02*
X187190476Y-125257142D01*
X187095238Y-125066666D01*
X186904761Y-124971428D01*
X186523809Y-124971428D01*
X186333333Y-125066666D01*
X187190476Y-126209523D02*
X187000000Y-126304761D01*
X186523809Y-126304761D01*
X186333333Y-126209523D01*
X186238095Y-126019047D01*
X186238095Y-125828571D01*
X186333333Y-125638095D01*
X186523809Y-125542857D01*
X187000000Y-125542857D01*
X187190476Y-125447619D01*
X189000000Y-126304761D02*
X189000000Y-124304761D01*
X189000000Y-126209523D02*
X188809523Y-126304761D01*
X188428571Y-126304761D01*
X188238095Y-126209523D01*
X188142857Y-126114285D01*
X188047619Y-125923809D01*
X188047619Y-125352380D01*
X188142857Y-125161904D01*
X188238095Y-125066666D01*
X188428571Y-124971428D01*
X188809523Y-124971428D01*
X189000000Y-125066666D01*
X190714285Y-126209523D02*
X190523809Y-126304761D01*
X190142857Y-126304761D01*
X189952380Y-126209523D01*
X189857142Y-126019047D01*
X189857142Y-125257142D01*
X189952380Y-125066666D01*
X190142857Y-124971428D01*
X190523809Y-124971428D01*
X190714285Y-125066666D01*
X190809523Y-125257142D01*
X190809523Y-125447619D01*
X189857142Y-125638095D01*
X191666666Y-126304761D02*
X191666666Y-124971428D01*
X191666666Y-125161904D02*
X191761904Y-125066666D01*
X191952380Y-124971428D01*
X192238095Y-124971428D01*
X192428571Y-125066666D01*
X192523809Y-125257142D01*
X192523809Y-126304761D01*
X192523809Y-125257142D02*
X192619047Y-125066666D01*
X192809523Y-124971428D01*
X193095238Y-124971428D01*
X193285714Y-125066666D01*
X193380952Y-125257142D01*
X193380952Y-126304761D01*
X194333333Y-126304761D02*
X194333333Y-124971428D01*
X194333333Y-124304761D02*
X194238095Y-124400000D01*
X194333333Y-124495238D01*
X194428571Y-124400000D01*
X194333333Y-124304761D01*
X194333333Y-124495238D01*
X196142857Y-126304761D02*
X196142857Y-125257142D01*
X196047619Y-125066666D01*
X195857142Y-124971428D01*
X195476190Y-124971428D01*
X195285714Y-125066666D01*
X196142857Y-126209523D02*
X195952380Y-126304761D01*
X195476190Y-126304761D01*
X195285714Y-126209523D01*
X195190476Y-126019047D01*
X195190476Y-125828571D01*
X195285714Y-125638095D01*
X195476190Y-125542857D01*
X195952380Y-125542857D01*
X196142857Y-125447619D01*
X197095238Y-125257142D02*
X197761904Y-125257142D01*
X198047619Y-126304761D02*
X197095238Y-126304761D01*
X197095238Y-124304761D01*
X198047619Y-124304761D01*
X199190476Y-126304761D02*
X199000000Y-126209523D01*
X198904761Y-126019047D01*
X198904761Y-124304761D01*
X200714285Y-126209523D02*
X200523809Y-126304761D01*
X200142857Y-126304761D01*
X199952380Y-126209523D01*
X199857142Y-126019047D01*
X199857142Y-125257142D01*
X199952380Y-125066666D01*
X200142857Y-124971428D01*
X200523809Y-124971428D01*
X200714285Y-125066666D01*
X200809523Y-125257142D01*
X200809523Y-125447619D01*
X199857142Y-125638095D01*
X201666666Y-126304761D02*
X201666666Y-124304761D01*
X201857142Y-125542857D02*
X202428571Y-126304761D01*
X202428571Y-124971428D02*
X201666666Y-125733333D01*
X203000000Y-124971428D02*
X203761904Y-124971428D01*
X203285714Y-124304761D02*
X203285714Y-126019047D01*
X203380952Y-126209523D01*
X203571428Y-126304761D01*
X203761904Y-126304761D01*
X204428571Y-126304761D02*
X204428571Y-124971428D01*
X204428571Y-125352380D02*
X204523809Y-125161904D01*
X204619047Y-125066666D01*
X204809523Y-124971428D01*
X205000000Y-124971428D01*
X205952380Y-126304761D02*
X205761904Y-126209523D01*
X205666666Y-126114285D01*
X205571428Y-125923809D01*
X205571428Y-125352380D01*
X205666666Y-125161904D01*
X205761904Y-125066666D01*
X205952380Y-124971428D01*
X206238095Y-124971428D01*
X206428571Y-125066666D01*
X206523809Y-125161904D01*
X206619047Y-125352380D01*
X206619047Y-125923809D01*
X206523809Y-126114285D01*
X206428571Y-126209523D01*
X206238095Y-126304761D01*
X205952380Y-126304761D01*
X207476190Y-124971428D02*
X207476190Y-126304761D01*
X207476190Y-125161904D02*
X207571428Y-125066666D01*
X207761904Y-124971428D01*
X208047619Y-124971428D01*
X208238095Y-125066666D01*
X208333333Y-125257142D01*
X208333333Y-126304761D01*
X209285714Y-126304761D02*
X209285714Y-124971428D01*
X209285714Y-124304761D02*
X209190476Y-124400000D01*
X209285714Y-124495238D01*
X209380952Y-124400000D01*
X209285714Y-124304761D01*
X209285714Y-124495238D01*
X210238095Y-126304761D02*
X210238095Y-124304761D01*
X210428571Y-125542857D02*
X211000000Y-126304761D01*
X211000000Y-124971428D02*
X210238095Y-125733333D01*
X211857142Y-126304761D02*
X211857142Y-124971428D01*
X211857142Y-124304761D02*
X211761904Y-124400000D01*
X211857142Y-124495238D01*
X211952380Y-124400000D01*
X211857142Y-124304761D01*
X211857142Y-124495238D01*
X212809523Y-126114285D02*
X212904761Y-126209523D01*
X212809523Y-126304761D01*
X212714285Y-126209523D01*
X212809523Y-126114285D01*
X212809523Y-126304761D01*
X214619047Y-126209523D02*
X214428571Y-126304761D01*
X214047619Y-126304761D01*
X213857142Y-126209523D01*
X213761904Y-126114285D01*
X213666666Y-125923809D01*
X213666666Y-125352380D01*
X213761904Y-125161904D01*
X213857142Y-125066666D01*
X214047619Y-124971428D01*
X214428571Y-124971428D01*
X214619047Y-125066666D01*
X215761904Y-126304761D02*
X215571428Y-126209523D01*
X215476190Y-126114285D01*
X215380952Y-125923809D01*
X215380952Y-125352380D01*
X215476190Y-125161904D01*
X215571428Y-125066666D01*
X215761904Y-124971428D01*
X216047619Y-124971428D01*
X216238095Y-125066666D01*
X216333333Y-125161904D01*
X216428571Y-125352380D01*
X216428571Y-125923809D01*
X216333333Y-126114285D01*
X216238095Y-126209523D01*
X216047619Y-126304761D01*
X215761904Y-126304761D01*
X217285714Y-126304761D02*
X217285714Y-124971428D01*
X217285714Y-125161904D02*
X217380952Y-125066666D01*
X217571428Y-124971428D01*
X217857142Y-124971428D01*
X218047619Y-125066666D01*
X218142857Y-125257142D01*
X218142857Y-126304761D01*
X218142857Y-125257142D02*
X218238095Y-125066666D01*
X218428571Y-124971428D01*
X218714285Y-124971428D01*
X218904761Y-125066666D01*
X219000000Y-125257142D01*
X219000000Y-126304761D01*
D11*
X172760000Y-74600000D03*
D12*
X162600000Y-74600000D03*
D13*
X183134000Y-93980000D03*
D14*
X185674000Y-93980000D03*
X188214000Y-93980000D03*
X190754000Y-93980000D03*
X193294000Y-93980000D03*
X195834000Y-93980000D03*
X195834000Y-78740000D03*
X193294000Y-78740000D03*
X190754000Y-78740000D03*
X188214000Y-78740000D03*
X185674000Y-78740000D03*
X183134000Y-78740000D03*
D15*
X162870000Y-124330000D03*
X164140000Y-125600000D03*
D16*
X161600000Y-125600000D03*
D17*
X136144000Y-104648000D03*
D18*
X136144000Y-107188000D03*
D19*
X144272000Y-105156000D03*
X144272000Y-110156000D03*
X149218000Y-115570000D03*
X156718000Y-115570000D03*
X156718000Y-123444000D03*
X149218000Y-123444000D03*
D11*
X169672000Y-124206000D03*
D12*
X179832000Y-124206000D03*
X186944000Y-121158000D03*
D11*
X197104000Y-121158000D03*
X170942000Y-118110000D03*
D12*
X160782000Y-118110000D03*
X206502000Y-113030000D03*
D11*
X216662000Y-113030000D03*
X206502000Y-99568000D03*
D12*
X216662000Y-99568000D03*
X185700000Y-74600000D03*
D11*
X175540000Y-74600000D03*
D12*
X197866000Y-76200000D03*
D11*
X208026000Y-76200000D03*
X198374000Y-117348000D03*
D12*
X208534000Y-117348000D03*
X216662000Y-105410000D03*
D11*
X206502000Y-105410000D03*
D20*
X208280000Y-121158000D03*
X206248000Y-80772000D03*
X195326000Y-82296000D03*
X181356000Y-108966000D03*
X178562000Y-96774000D03*
X181102000Y-106172000D03*
X207264000Y-89916000D03*
X198628000Y-86106000D03*
X208788000Y-83820000D03*
X196596000Y-84836000D03*
X179578000Y-81534000D03*
X185420000Y-81788000D03*
X182372000Y-116078000D03*
X180848000Y-118364000D03*
X192278000Y-106426000D03*
X200660000Y-108204000D03*
D21*
X143764000Y-104648000D02*
X144272000Y-105156000D01*
X136144000Y-104648000D02*
X143764000Y-104648000D01*
X139446000Y-120346000D02*
X144700000Y-125600000D01*
X144700000Y-125600000D02*
X161600000Y-125600000D01*
X139446000Y-106750000D02*
X139446000Y-120346000D01*
X136144000Y-104648000D02*
X137344000Y-104648000D01*
X137344000Y-104648000D02*
X139446000Y-106750000D01*
X208280000Y-121158000D02*
X197104000Y-121158000D01*
X172760000Y-74600000D02*
X178160000Y-80000000D01*
X178160000Y-80000000D02*
X181700000Y-80000000D01*
X181700000Y-80000000D02*
X182100000Y-80400000D01*
X186554000Y-80400000D02*
X188214000Y-78740000D01*
X182100000Y-80400000D02*
X186554000Y-80400000D01*
X194265340Y-82296000D02*
X191725340Y-84836000D01*
X195326000Y-82296000D02*
X194265340Y-82296000D01*
X191725340Y-84836000D02*
X188214000Y-84836000D01*
X183134000Y-89916000D02*
X183134000Y-93980000D01*
X188214000Y-84836000D02*
X183134000Y-89916000D01*
X206248000Y-80772000D02*
X206248000Y-85598000D01*
X206248000Y-85598000D02*
X210820000Y-90170000D01*
X210820000Y-90170000D02*
X210820000Y-90678000D01*
X210820000Y-90678000D02*
X218694000Y-98552000D01*
X218694000Y-110998000D02*
X216662000Y-113030000D01*
X218694000Y-98552000D02*
X218694000Y-110998000D01*
X190754000Y-78740000D02*
X174498000Y-94996000D01*
X174498000Y-94996000D02*
X174498000Y-102108000D01*
X174498000Y-102108000D02*
X181356000Y-108966000D01*
X178562000Y-96774000D02*
X181102000Y-99314000D01*
X181102000Y-99314000D02*
X181102000Y-106172000D01*
X198628000Y-86106000D02*
X194056000Y-90678000D01*
X194056000Y-93218000D02*
X193294000Y-93980000D01*
X194056000Y-90678000D02*
X194056000Y-93218000D01*
X207264000Y-89916000D02*
X208280000Y-90932000D01*
X208280000Y-91186000D02*
X216662000Y-99568000D01*
X208280000Y-90932000D02*
X208280000Y-91186000D01*
D22*
X185700000Y-76174000D02*
X185700000Y-74600000D01*
X185674000Y-78740000D02*
X185674000Y-76200000D01*
X185674000Y-76200000D02*
X185700000Y-76174000D01*
D21*
X195834000Y-78232000D02*
X197866000Y-76200000D01*
X195834000Y-78740000D02*
X195834000Y-78232000D01*
X196596000Y-84836000D02*
X194056000Y-87376000D01*
X194056000Y-87376000D02*
X187706000Y-87376000D01*
X185674000Y-89408000D02*
X185674000Y-93980000D01*
X187706000Y-87376000D02*
X185674000Y-89408000D01*
X208788000Y-83820000D02*
X208788000Y-85090000D01*
X208534000Y-117348000D02*
X217424000Y-117348000D01*
X219710000Y-115062000D02*
X218948000Y-115824000D01*
X219710000Y-96012000D02*
X219710000Y-115062000D01*
X208788000Y-85090000D02*
X219710000Y-96012000D01*
X217424000Y-117348000D02*
X218948000Y-115824000D01*
X179578000Y-81534000D02*
X185166000Y-81534000D01*
X185166000Y-81534000D02*
X185420000Y-81788000D01*
X177038000Y-121412000D02*
X179832000Y-124206000D01*
X160782000Y-118110000D02*
X164084000Y-121412000D01*
X164084000Y-121412000D02*
X177038000Y-121412000D01*
X161984000Y-123444000D02*
X162870000Y-124330000D01*
X156718000Y-123444000D02*
X161984000Y-123444000D01*
X182372000Y-114046000D02*
X169926000Y-101600000D01*
X182372000Y-116078000D02*
X182372000Y-114046000D01*
X169926000Y-81926000D02*
X162600000Y-74600000D01*
X169926000Y-101600000D02*
X169926000Y-81926000D01*
X197104000Y-112268000D02*
X191008000Y-118364000D01*
X191008000Y-118364000D02*
X180848000Y-118364000D01*
X197104000Y-112268000D02*
X204724000Y-112268000D01*
X205702001Y-112230001D02*
X206502000Y-113030000D01*
X204761999Y-112230001D02*
X205702001Y-112230001D01*
X204724000Y-112268000D02*
X204761999Y-112230001D01*
X200152000Y-98552000D02*
X200152000Y-74422000D01*
X192278000Y-106426000D02*
X200152000Y-98552000D01*
X200152000Y-74422000D02*
X189484000Y-74422000D01*
X183731000Y-73269000D02*
X182400000Y-74600000D01*
X189484000Y-74422000D02*
X188331000Y-73269000D01*
X188331000Y-73269000D02*
X183731000Y-73269000D01*
X182400000Y-74600000D02*
X175540000Y-74600000D01*
X200660000Y-108204000D02*
X204216000Y-104648000D01*
X204216000Y-104648000D02*
X204216000Y-79684000D01*
X204216000Y-79684000D02*
X205600000Y-78300000D01*
X205926000Y-78300000D02*
X208026000Y-76200000D01*
X205600000Y-78300000D02*
X205926000Y-78300000D01*
D23*
G36*
X150110590Y-74756680D02*
G01*
X150836066Y-74826246D01*
X151469283Y-74905398D01*
X152140633Y-75043618D01*
X153021813Y-75281239D01*
X153842002Y-75577693D01*
X154515245Y-75884613D01*
X155071546Y-76162763D01*
X155603997Y-76448709D01*
X156257055Y-76893976D01*
X156792719Y-77280844D01*
X157108905Y-77537745D01*
X157495824Y-77865139D01*
X157889874Y-78229635D01*
X158314635Y-78693909D01*
X158752042Y-79210844D01*
X159118607Y-79666573D01*
X159453875Y-80139893D01*
X159780100Y-80673716D01*
X160166223Y-81376657D01*
X160512833Y-82149102D01*
X160740427Y-82732931D01*
X160987709Y-83484668D01*
X161205606Y-84395873D01*
X161344092Y-85177329D01*
X161403463Y-85780935D01*
X161453075Y-86445741D01*
X161462947Y-87067674D01*
X161433318Y-87630625D01*
X161374041Y-88253037D01*
X161264893Y-88878156D01*
X161264433Y-88880975D01*
X161215201Y-89205905D01*
X161057087Y-89877889D01*
X160849334Y-90600079D01*
X160582619Y-91311318D01*
X160176118Y-92203639D01*
X159879601Y-92757136D01*
X159592143Y-93232930D01*
X159275575Y-93727567D01*
X158889823Y-94241903D01*
X158424766Y-94815803D01*
X157900166Y-95360199D01*
X157346311Y-95894273D01*
X156634326Y-96457929D01*
X155890577Y-96973594D01*
X155277594Y-97349293D01*
X154684501Y-97655725D01*
X153794106Y-98061349D01*
X152992069Y-98318793D01*
X152278646Y-98536784D01*
X151409873Y-98714487D01*
X150816737Y-98783686D01*
X150070094Y-98853373D01*
X149445969Y-98893000D01*
X149323224Y-98893000D01*
X148738970Y-98863292D01*
X148082774Y-98803638D01*
X147460261Y-98734470D01*
X146668841Y-98566293D01*
X146045764Y-98408051D01*
X145452221Y-98210204D01*
X144679991Y-97923092D01*
X143987460Y-97586721D01*
X143483180Y-97319748D01*
X142729461Y-96853633D01*
X142284840Y-96547338D01*
X141810664Y-96181827D01*
X141255559Y-95696111D01*
X140870109Y-95330428D01*
X140424671Y-94855293D01*
X140078880Y-94450224D01*
X139823472Y-94115000D01*
X141390201Y-94115000D01*
X141390201Y-94440000D01*
X141392641Y-94464776D01*
X141399868Y-94488601D01*
X141411604Y-94510557D01*
X141427398Y-94529803D01*
X141652398Y-94754803D01*
X141671644Y-94770597D01*
X141693600Y-94782333D01*
X141717425Y-94789560D01*
X141742201Y-94792000D01*
X142017201Y-94792000D01*
X142041977Y-94789560D01*
X142065802Y-94782333D01*
X142087758Y-94770597D01*
X142107004Y-94754803D01*
X144417201Y-92444606D01*
X145227398Y-93254803D01*
X145246754Y-93270670D01*
X145321754Y-93320670D01*
X145324891Y-93322696D01*
X145524891Y-93447696D01*
X145545034Y-93457917D01*
X145795034Y-93557917D01*
X145822890Y-93565523D01*
X146147890Y-93615523D01*
X146167201Y-93617000D01*
X146467201Y-93617000D01*
X146488080Y-93615272D01*
X146788080Y-93565272D01*
X146812118Y-93558792D01*
X146823997Y-93553592D01*
X147023997Y-93453592D01*
X147037648Y-93445670D01*
X147412648Y-93195670D01*
X147432004Y-93179803D01*
X148457004Y-92154803D01*
X148472798Y-92135557D01*
X148484534Y-92113601D01*
X148491761Y-92089776D01*
X148494201Y-92065000D01*
X148491761Y-92040224D01*
X148484534Y-92016399D01*
X148472798Y-91994443D01*
X148457004Y-91975197D01*
X144232004Y-87750197D01*
X144212758Y-87734403D01*
X144190802Y-87722667D01*
X144166977Y-87715440D01*
X144142201Y-87713000D01*
X144117201Y-87713000D01*
X144092425Y-87715440D01*
X144068600Y-87722667D01*
X144046644Y-87734403D01*
X144027398Y-87750197D01*
X142852398Y-88925197D01*
X142836604Y-88944443D01*
X142828609Y-88958204D01*
X142703609Y-89208204D01*
X142696718Y-89224839D01*
X142596718Y-89524839D01*
X142590448Y-89557078D01*
X142565448Y-89957078D01*
X142565201Y-89965000D01*
X142565201Y-90215000D01*
X142570557Y-90251493D01*
X142645557Y-90501493D01*
X142655014Y-90524524D01*
X142662783Y-90537290D01*
X142887783Y-90862290D01*
X142902398Y-90879803D01*
X143737595Y-91715000D01*
X141427398Y-94025197D01*
X141411604Y-94044443D01*
X141399868Y-94066399D01*
X141392641Y-94090224D01*
X141390201Y-94115000D01*
X139823472Y-94115000D01*
X139602930Y-93825540D01*
X139257225Y-93321799D01*
X138960104Y-92816693D01*
X138644129Y-92253862D01*
X138416843Y-91720234D01*
X138415952Y-91718192D01*
X138207591Y-91251861D01*
X137990109Y-90668614D01*
X137802107Y-90074922D01*
X137653723Y-89501169D01*
X137545267Y-88978610D01*
X137456219Y-88315694D01*
X137406665Y-87780517D01*
X137390065Y-87490000D01*
X144440201Y-87490000D01*
X144442641Y-87514776D01*
X144449868Y-87538601D01*
X144461604Y-87560557D01*
X144477398Y-87579803D01*
X148652398Y-91754803D01*
X148671644Y-91770597D01*
X148693600Y-91782333D01*
X148717425Y-91789560D01*
X148742201Y-91792000D01*
X148766977Y-91789560D01*
X148790802Y-91782333D01*
X148812758Y-91770597D01*
X148832004Y-91754803D01*
X149307004Y-91279803D01*
X149322798Y-91260557D01*
X149334534Y-91238601D01*
X149339655Y-91223675D01*
X149605750Y-90256057D01*
X150357004Y-89504803D01*
X150372798Y-89485557D01*
X150384534Y-89463601D01*
X150391761Y-89439776D01*
X150394201Y-89415000D01*
X150391761Y-89390224D01*
X150384534Y-89366399D01*
X150372798Y-89344443D01*
X150357004Y-89325197D01*
X146882004Y-85850197D01*
X146862758Y-85834403D01*
X146840802Y-85822667D01*
X146816977Y-85815440D01*
X146792201Y-85813000D01*
X146767425Y-85815440D01*
X146743600Y-85822667D01*
X146721644Y-85834403D01*
X146702398Y-85850197D01*
X146052271Y-86500324D01*
X145186399Y-86716792D01*
X145162954Y-86725168D01*
X145141594Y-86737958D01*
X145127398Y-86750197D01*
X144477398Y-87400197D01*
X144461604Y-87419443D01*
X144449868Y-87441399D01*
X144442641Y-87465224D01*
X144440201Y-87490000D01*
X137390065Y-87490000D01*
X137367000Y-87086378D01*
X137367000Y-86174406D01*
X137414528Y-85490000D01*
X147090201Y-85490000D01*
X147092641Y-85514776D01*
X147099868Y-85538601D01*
X147111604Y-85560557D01*
X147127398Y-85579803D01*
X150552398Y-89004803D01*
X150571644Y-89020597D01*
X150593600Y-89032333D01*
X150617425Y-89039560D01*
X150642201Y-89042000D01*
X150666977Y-89039560D01*
X150690802Y-89032333D01*
X150712758Y-89020597D01*
X150732004Y-89004803D01*
X151982004Y-87754803D01*
X151997798Y-87735557D01*
X152009534Y-87713601D01*
X152016761Y-87689776D01*
X152019201Y-87665000D01*
X152016761Y-87640224D01*
X152009534Y-87616399D01*
X151997798Y-87594443D01*
X151982004Y-87575197D01*
X148557004Y-84150197D01*
X148537758Y-84134403D01*
X148515802Y-84122667D01*
X148491977Y-84115440D01*
X148467201Y-84113000D01*
X148442425Y-84115440D01*
X148418600Y-84122667D01*
X148396644Y-84134403D01*
X148377398Y-84150197D01*
X147127398Y-85400197D01*
X147111604Y-85419443D01*
X147099868Y-85441399D01*
X147092641Y-85465224D01*
X147090201Y-85490000D01*
X137414528Y-85490000D01*
X137416333Y-85464008D01*
X137525049Y-84752416D01*
X137663594Y-84079481D01*
X137740644Y-83795794D01*
X148765333Y-83795794D01*
X148768901Y-83820433D01*
X148777208Y-83843903D01*
X148789933Y-83865301D01*
X148802398Y-83879803D01*
X152302398Y-87379803D01*
X152321644Y-87395597D01*
X152343600Y-87407333D01*
X152367425Y-87414560D01*
X152392201Y-87417000D01*
X152416977Y-87414560D01*
X152440802Y-87407333D01*
X152464491Y-87394418D01*
X152768857Y-87183703D01*
X153544341Y-87014066D01*
X153568023Y-87006388D01*
X153589753Y-86994236D01*
X153607004Y-86979803D01*
X154682004Y-85904803D01*
X154697798Y-85885557D01*
X154709534Y-85863601D01*
X154716761Y-85839776D01*
X154719201Y-85815000D01*
X154716761Y-85790224D01*
X154709534Y-85766399D01*
X154697798Y-85744443D01*
X154682004Y-85725197D01*
X150457004Y-81500197D01*
X150437758Y-81484403D01*
X150415802Y-81472667D01*
X150391977Y-81465440D01*
X150367201Y-81463000D01*
X150342201Y-81463000D01*
X150317425Y-81465440D01*
X150293600Y-81472667D01*
X150271644Y-81484403D01*
X150252398Y-81500197D01*
X149227398Y-82525197D01*
X149211604Y-82544443D01*
X149197773Y-82571803D01*
X148772773Y-83746803D01*
X148766641Y-83770932D01*
X148765333Y-83795794D01*
X137740644Y-83795794D01*
X137881618Y-83276755D01*
X138159301Y-82443707D01*
X138276736Y-82150120D01*
X138444753Y-81784435D01*
X138673335Y-81317334D01*
X138739895Y-81190000D01*
X150665201Y-81190000D01*
X150667641Y-81214776D01*
X150674868Y-81238601D01*
X150686604Y-81260557D01*
X150702398Y-81279803D01*
X154877398Y-85454803D01*
X154896644Y-85470597D01*
X154918600Y-85482333D01*
X154942425Y-85489560D01*
X154967201Y-85492000D01*
X154991977Y-85489560D01*
X155015802Y-85482333D01*
X155037758Y-85470597D01*
X155057004Y-85454803D01*
X155582004Y-84929803D01*
X155597871Y-84910447D01*
X155697871Y-84760447D01*
X155702468Y-84753010D01*
X155802468Y-84578010D01*
X155809432Y-84563846D01*
X155934432Y-84263846D01*
X155941735Y-84239907D01*
X155991735Y-83989907D01*
X155994201Y-83965133D01*
X155992925Y-83947039D01*
X155968203Y-83773982D01*
X155943424Y-83550975D01*
X155941177Y-83537450D01*
X155891177Y-83312450D01*
X155881917Y-83285510D01*
X155786917Y-83085510D01*
X155774082Y-83064177D01*
X155762004Y-83050197D01*
X154751807Y-82040000D01*
X157062004Y-79729803D01*
X157077798Y-79710557D01*
X157089534Y-79688601D01*
X157096761Y-79664776D01*
X157099201Y-79640000D01*
X157099201Y-79390000D01*
X157096761Y-79365224D01*
X157089534Y-79341399D01*
X157077798Y-79319443D01*
X157062004Y-79300197D01*
X156832004Y-79070197D01*
X156812758Y-79054403D01*
X156790802Y-79042667D01*
X156766977Y-79035440D01*
X156742201Y-79033000D01*
X156492201Y-79033000D01*
X156467425Y-79035440D01*
X156443600Y-79042667D01*
X156421644Y-79054403D01*
X156402398Y-79070197D01*
X154112201Y-81360394D01*
X153249576Y-80497769D01*
X153247798Y-80494443D01*
X153232004Y-80475197D01*
X153212758Y-80459403D01*
X153193105Y-80448648D01*
X152793105Y-80273648D01*
X152773003Y-80266792D01*
X152473003Y-80191792D01*
X152451249Y-80188323D01*
X152101249Y-80163323D01*
X152069483Y-80165049D01*
X151794483Y-80215049D01*
X151770034Y-80222083D01*
X151520034Y-80322083D01*
X151497936Y-80333551D01*
X151485898Y-80342436D01*
X151335898Y-80467436D01*
X151327398Y-80475197D01*
X150702398Y-81100197D01*
X150686604Y-81119443D01*
X150674868Y-81141399D01*
X150667641Y-81165224D01*
X150665201Y-81190000D01*
X138739895Y-81190000D01*
X138900916Y-80881960D01*
X139178491Y-80416031D01*
X139405370Y-80051052D01*
X139671595Y-79686225D01*
X139940065Y-79338208D01*
X140276193Y-78913105D01*
X140602269Y-78567267D01*
X140989171Y-78160524D01*
X141374192Y-77805120D01*
X141701511Y-77527394D01*
X142097554Y-77200659D01*
X142413341Y-76973687D01*
X142869954Y-76656043D01*
X143264537Y-76409429D01*
X143709703Y-76162115D01*
X144214511Y-75904762D01*
X144888375Y-75607469D01*
X145351927Y-75429938D01*
X145946215Y-75241747D01*
X146549537Y-75073608D01*
X147343650Y-74914785D01*
X147897206Y-74815936D01*
X148726035Y-74737000D01*
X149736669Y-74737000D01*
X150110590Y-74756680D01*
X150110590Y-74756680D01*
G37*
X150110590Y-74756680D02*
X150836066Y-74826246D01*
X151469283Y-74905398D01*
X152140633Y-75043618D01*
X153021813Y-75281239D01*
X153842002Y-75577693D01*
X154515245Y-75884613D01*
X155071546Y-76162763D01*
X155603997Y-76448709D01*
X156257055Y-76893976D01*
X156792719Y-77280844D01*
X157108905Y-77537745D01*
X157495824Y-77865139D01*
X157889874Y-78229635D01*
X158314635Y-78693909D01*
X158752042Y-79210844D01*
X159118607Y-79666573D01*
X159453875Y-80139893D01*
X159780100Y-80673716D01*
X160166223Y-81376657D01*
X160512833Y-82149102D01*
X160740427Y-82732931D01*
X160987709Y-83484668D01*
X161205606Y-84395873D01*
X161344092Y-85177329D01*
X161403463Y-85780935D01*
X161453075Y-86445741D01*
X161462947Y-87067674D01*
X161433318Y-87630625D01*
X161374041Y-88253037D01*
X161264893Y-88878156D01*
X161264433Y-88880975D01*
X161215201Y-89205905D01*
X161057087Y-89877889D01*
X160849334Y-90600079D01*
X160582619Y-91311318D01*
X160176118Y-92203639D01*
X159879601Y-92757136D01*
X159592143Y-93232930D01*
X159275575Y-93727567D01*
X158889823Y-94241903D01*
X158424766Y-94815803D01*
X157900166Y-95360199D01*
X157346311Y-95894273D01*
X156634326Y-96457929D01*
X155890577Y-96973594D01*
X155277594Y-97349293D01*
X154684501Y-97655725D01*
X153794106Y-98061349D01*
X152992069Y-98318793D01*
X152278646Y-98536784D01*
X151409873Y-98714487D01*
X150816737Y-98783686D01*
X150070094Y-98853373D01*
X149445969Y-98893000D01*
X149323224Y-98893000D01*
X148738970Y-98863292D01*
X148082774Y-98803638D01*
X147460261Y-98734470D01*
X146668841Y-98566293D01*
X146045764Y-98408051D01*
X145452221Y-98210204D01*
X144679991Y-97923092D01*
X143987460Y-97586721D01*
X143483180Y-97319748D01*
X142729461Y-96853633D01*
X142284840Y-96547338D01*
X141810664Y-96181827D01*
X141255559Y-95696111D01*
X140870109Y-95330428D01*
X140424671Y-94855293D01*
X140078880Y-94450224D01*
X139823472Y-94115000D01*
X141390201Y-94115000D01*
X141390201Y-94440000D01*
X141392641Y-94464776D01*
X141399868Y-94488601D01*
X141411604Y-94510557D01*
X141427398Y-94529803D01*
X141652398Y-94754803D01*
X141671644Y-94770597D01*
X141693600Y-94782333D01*
X141717425Y-94789560D01*
X141742201Y-94792000D01*
X142017201Y-94792000D01*
X142041977Y-94789560D01*
X142065802Y-94782333D01*
X142087758Y-94770597D01*
X142107004Y-94754803D01*
X144417201Y-92444606D01*
X145227398Y-93254803D01*
X145246754Y-93270670D01*
X145321754Y-93320670D01*
X145324891Y-93322696D01*
X145524891Y-93447696D01*
X145545034Y-93457917D01*
X145795034Y-93557917D01*
X145822890Y-93565523D01*
X146147890Y-93615523D01*
X146167201Y-93617000D01*
X146467201Y-93617000D01*
X146488080Y-93615272D01*
X146788080Y-93565272D01*
X146812118Y-93558792D01*
X146823997Y-93553592D01*
X147023997Y-93453592D01*
X147037648Y-93445670D01*
X147412648Y-93195670D01*
X147432004Y-93179803D01*
X148457004Y-92154803D01*
X148472798Y-92135557D01*
X148484534Y-92113601D01*
X148491761Y-92089776D01*
X148494201Y-92065000D01*
X148491761Y-92040224D01*
X148484534Y-92016399D01*
X148472798Y-91994443D01*
X148457004Y-91975197D01*
X144232004Y-87750197D01*
X144212758Y-87734403D01*
X144190802Y-87722667D01*
X144166977Y-87715440D01*
X144142201Y-87713000D01*
X144117201Y-87713000D01*
X144092425Y-87715440D01*
X144068600Y-87722667D01*
X144046644Y-87734403D01*
X144027398Y-87750197D01*
X142852398Y-88925197D01*
X142836604Y-88944443D01*
X142828609Y-88958204D01*
X142703609Y-89208204D01*
X142696718Y-89224839D01*
X142596718Y-89524839D01*
X142590448Y-89557078D01*
X142565448Y-89957078D01*
X142565201Y-89965000D01*
X142565201Y-90215000D01*
X142570557Y-90251493D01*
X142645557Y-90501493D01*
X142655014Y-90524524D01*
X142662783Y-90537290D01*
X142887783Y-90862290D01*
X142902398Y-90879803D01*
X143737595Y-91715000D01*
X141427398Y-94025197D01*
X141411604Y-94044443D01*
X141399868Y-94066399D01*
X141392641Y-94090224D01*
X141390201Y-94115000D01*
X139823472Y-94115000D01*
X139602930Y-93825540D01*
X139257225Y-93321799D01*
X138960104Y-92816693D01*
X138644129Y-92253862D01*
X138416843Y-91720234D01*
X138415952Y-91718192D01*
X138207591Y-91251861D01*
X137990109Y-90668614D01*
X137802107Y-90074922D01*
X137653723Y-89501169D01*
X137545267Y-88978610D01*
X137456219Y-88315694D01*
X137406665Y-87780517D01*
X137390065Y-87490000D01*
X144440201Y-87490000D01*
X144442641Y-87514776D01*
X144449868Y-87538601D01*
X144461604Y-87560557D01*
X144477398Y-87579803D01*
X148652398Y-91754803D01*
X148671644Y-91770597D01*
X148693600Y-91782333D01*
X148717425Y-91789560D01*
X148742201Y-91792000D01*
X148766977Y-91789560D01*
X148790802Y-91782333D01*
X148812758Y-91770597D01*
X148832004Y-91754803D01*
X149307004Y-91279803D01*
X149322798Y-91260557D01*
X149334534Y-91238601D01*
X149339655Y-91223675D01*
X149605750Y-90256057D01*
X150357004Y-89504803D01*
X150372798Y-89485557D01*
X150384534Y-89463601D01*
X150391761Y-89439776D01*
X150394201Y-89415000D01*
X150391761Y-89390224D01*
X150384534Y-89366399D01*
X150372798Y-89344443D01*
X150357004Y-89325197D01*
X146882004Y-85850197D01*
X146862758Y-85834403D01*
X146840802Y-85822667D01*
X146816977Y-85815440D01*
X146792201Y-85813000D01*
X146767425Y-85815440D01*
X146743600Y-85822667D01*
X146721644Y-85834403D01*
X146702398Y-85850197D01*
X146052271Y-86500324D01*
X145186399Y-86716792D01*
X145162954Y-86725168D01*
X145141594Y-86737958D01*
X145127398Y-86750197D01*
X144477398Y-87400197D01*
X144461604Y-87419443D01*
X144449868Y-87441399D01*
X144442641Y-87465224D01*
X144440201Y-87490000D01*
X137390065Y-87490000D01*
X137367000Y-87086378D01*
X137367000Y-86174406D01*
X137414528Y-85490000D01*
X147090201Y-85490000D01*
X147092641Y-85514776D01*
X147099868Y-85538601D01*
X147111604Y-85560557D01*
X147127398Y-85579803D01*
X150552398Y-89004803D01*
X150571644Y-89020597D01*
X150593600Y-89032333D01*
X150617425Y-89039560D01*
X150642201Y-89042000D01*
X150666977Y-89039560D01*
X150690802Y-89032333D01*
X150712758Y-89020597D01*
X150732004Y-89004803D01*
X151982004Y-87754803D01*
X151997798Y-87735557D01*
X152009534Y-87713601D01*
X152016761Y-87689776D01*
X152019201Y-87665000D01*
X152016761Y-87640224D01*
X152009534Y-87616399D01*
X151997798Y-87594443D01*
X151982004Y-87575197D01*
X148557004Y-84150197D01*
X148537758Y-84134403D01*
X148515802Y-84122667D01*
X148491977Y-84115440D01*
X148467201Y-84113000D01*
X148442425Y-84115440D01*
X148418600Y-84122667D01*
X148396644Y-84134403D01*
X148377398Y-84150197D01*
X147127398Y-85400197D01*
X147111604Y-85419443D01*
X147099868Y-85441399D01*
X147092641Y-85465224D01*
X147090201Y-85490000D01*
X137414528Y-85490000D01*
X137416333Y-85464008D01*
X137525049Y-84752416D01*
X137663594Y-84079481D01*
X137740644Y-83795794D01*
X148765333Y-83795794D01*
X148768901Y-83820433D01*
X148777208Y-83843903D01*
X148789933Y-83865301D01*
X148802398Y-83879803D01*
X152302398Y-87379803D01*
X152321644Y-87395597D01*
X152343600Y-87407333D01*
X152367425Y-87414560D01*
X152392201Y-87417000D01*
X152416977Y-87414560D01*
X152440802Y-87407333D01*
X152464491Y-87394418D01*
X152768857Y-87183703D01*
X153544341Y-87014066D01*
X153568023Y-87006388D01*
X153589753Y-86994236D01*
X153607004Y-86979803D01*
X154682004Y-85904803D01*
X154697798Y-85885557D01*
X154709534Y-85863601D01*
X154716761Y-85839776D01*
X154719201Y-85815000D01*
X154716761Y-85790224D01*
X154709534Y-85766399D01*
X154697798Y-85744443D01*
X154682004Y-85725197D01*
X150457004Y-81500197D01*
X150437758Y-81484403D01*
X150415802Y-81472667D01*
X150391977Y-81465440D01*
X150367201Y-81463000D01*
X150342201Y-81463000D01*
X150317425Y-81465440D01*
X150293600Y-81472667D01*
X150271644Y-81484403D01*
X150252398Y-81500197D01*
X149227398Y-82525197D01*
X149211604Y-82544443D01*
X149197773Y-82571803D01*
X148772773Y-83746803D01*
X148766641Y-83770932D01*
X148765333Y-83795794D01*
X137740644Y-83795794D01*
X137881618Y-83276755D01*
X138159301Y-82443707D01*
X138276736Y-82150120D01*
X138444753Y-81784435D01*
X138673335Y-81317334D01*
X138739895Y-81190000D01*
X150665201Y-81190000D01*
X150667641Y-81214776D01*
X150674868Y-81238601D01*
X150686604Y-81260557D01*
X150702398Y-81279803D01*
X154877398Y-85454803D01*
X154896644Y-85470597D01*
X154918600Y-85482333D01*
X154942425Y-85489560D01*
X154967201Y-85492000D01*
X154991977Y-85489560D01*
X155015802Y-85482333D01*
X155037758Y-85470597D01*
X155057004Y-85454803D01*
X155582004Y-84929803D01*
X155597871Y-84910447D01*
X155697871Y-84760447D01*
X155702468Y-84753010D01*
X155802468Y-84578010D01*
X155809432Y-84563846D01*
X155934432Y-84263846D01*
X155941735Y-84239907D01*
X155991735Y-83989907D01*
X155994201Y-83965133D01*
X155992925Y-83947039D01*
X155968203Y-83773982D01*
X155943424Y-83550975D01*
X155941177Y-83537450D01*
X155891177Y-83312450D01*
X155881917Y-83285510D01*
X155786917Y-83085510D01*
X155774082Y-83064177D01*
X155762004Y-83050197D01*
X154751807Y-82040000D01*
X157062004Y-79729803D01*
X157077798Y-79710557D01*
X157089534Y-79688601D01*
X157096761Y-79664776D01*
X157099201Y-79640000D01*
X157099201Y-79390000D01*
X157096761Y-79365224D01*
X157089534Y-79341399D01*
X157077798Y-79319443D01*
X157062004Y-79300197D01*
X156832004Y-79070197D01*
X156812758Y-79054403D01*
X156790802Y-79042667D01*
X156766977Y-79035440D01*
X156742201Y-79033000D01*
X156492201Y-79033000D01*
X156467425Y-79035440D01*
X156443600Y-79042667D01*
X156421644Y-79054403D01*
X156402398Y-79070197D01*
X154112201Y-81360394D01*
X153249576Y-80497769D01*
X153247798Y-80494443D01*
X153232004Y-80475197D01*
X153212758Y-80459403D01*
X153193105Y-80448648D01*
X152793105Y-80273648D01*
X152773003Y-80266792D01*
X152473003Y-80191792D01*
X152451249Y-80188323D01*
X152101249Y-80163323D01*
X152069483Y-80165049D01*
X151794483Y-80215049D01*
X151770034Y-80222083D01*
X151520034Y-80322083D01*
X151497936Y-80333551D01*
X151485898Y-80342436D01*
X151335898Y-80467436D01*
X151327398Y-80475197D01*
X150702398Y-81100197D01*
X150686604Y-81119443D01*
X150674868Y-81141399D01*
X150667641Y-81165224D01*
X150665201Y-81190000D01*
X138739895Y-81190000D01*
X138900916Y-80881960D01*
X139178491Y-80416031D01*
X139405370Y-80051052D01*
X139671595Y-79686225D01*
X139940065Y-79338208D01*
X140276193Y-78913105D01*
X140602269Y-78567267D01*
X140989171Y-78160524D01*
X141374192Y-77805120D01*
X141701511Y-77527394D01*
X142097554Y-77200659D01*
X142413341Y-76973687D01*
X142869954Y-76656043D01*
X143264537Y-76409429D01*
X143709703Y-76162115D01*
X144214511Y-75904762D01*
X144888375Y-75607469D01*
X145351927Y-75429938D01*
X145946215Y-75241747D01*
X146549537Y-75073608D01*
X147343650Y-74914785D01*
X147897206Y-74815936D01*
X148726035Y-74737000D01*
X149736669Y-74737000D01*
X150110590Y-74756680D01*
G36*
X220015000Y-80152691D02*
G01*
X220015000Y-95171487D01*
X209705099Y-84861586D01*
X209863799Y-84702886D01*
X210015371Y-84476043D01*
X210119775Y-84223989D01*
X210173000Y-83956411D01*
X210173000Y-83683589D01*
X210119775Y-83416011D01*
X210015371Y-83163957D01*
X209863799Y-82937114D01*
X209670886Y-82744201D01*
X209444043Y-82592629D01*
X209191989Y-82488225D01*
X208924411Y-82435000D01*
X208651589Y-82435000D01*
X208384011Y-82488225D01*
X208131957Y-82592629D01*
X207905114Y-82744201D01*
X207712201Y-82937114D01*
X207560629Y-83163957D01*
X207456225Y-83416011D01*
X207403000Y-83683589D01*
X207403000Y-83956411D01*
X207456225Y-84223989D01*
X207560629Y-84476043D01*
X207712201Y-84702886D01*
X207905114Y-84895799D01*
X207978001Y-84944501D01*
X207978001Y-85050202D01*
X207974081Y-85090000D01*
X207980166Y-85151775D01*
X207989721Y-85248788D01*
X208021649Y-85354038D01*
X208036038Y-85401473D01*
X208111251Y-85542189D01*
X208166852Y-85609939D01*
X208212473Y-85665528D01*
X208243383Y-85690895D01*
X218900000Y-96347513D01*
X218900000Y-97612487D01*
X211630000Y-90342488D01*
X211630000Y-90209787D01*
X211633919Y-90169999D01*
X211630000Y-90130209D01*
X211618280Y-90011212D01*
X211571963Y-89858527D01*
X211496749Y-89717811D01*
X211395528Y-89594472D01*
X211364619Y-89569106D01*
X207058000Y-85262488D01*
X207058000Y-81896500D01*
X207130886Y-81847799D01*
X207323799Y-81654886D01*
X207475371Y-81428043D01*
X207579775Y-81175989D01*
X207633000Y-80908411D01*
X207633000Y-80635589D01*
X207579775Y-80368011D01*
X207475371Y-80115957D01*
X207323799Y-79889114D01*
X207130886Y-79696201D01*
X206904043Y-79544629D01*
X206651989Y-79440225D01*
X206384411Y-79387000D01*
X206111589Y-79387000D01*
X205844011Y-79440225D01*
X205591957Y-79544629D01*
X205365114Y-79696201D01*
X205172201Y-79889114D01*
X205026000Y-80107919D01*
X205026000Y-80019512D01*
X205932205Y-79113308D01*
X205965788Y-79110000D01*
X205965791Y-79110000D01*
X206084788Y-79098280D01*
X206237473Y-79051963D01*
X206378189Y-78976749D01*
X206501528Y-78875528D01*
X206526899Y-78844613D01*
X207756148Y-77615364D01*
X207955508Y-77635000D01*
X208096492Y-77635000D01*
X208307309Y-77614236D01*
X208577808Y-77532182D01*
X208827101Y-77398932D01*
X209045608Y-77219608D01*
X209224932Y-77001101D01*
X209358182Y-76751808D01*
X209440236Y-76481309D01*
X209467943Y-76200000D01*
X209440236Y-75918691D01*
X209358182Y-75648192D01*
X209224932Y-75398899D01*
X209045608Y-75180392D01*
X208827101Y-75001068D01*
X208577808Y-74867818D01*
X208307309Y-74785764D01*
X208096492Y-74765000D01*
X207955508Y-74765000D01*
X207744691Y-74785764D01*
X207474192Y-74867818D01*
X207224899Y-75001068D01*
X207006392Y-75180392D01*
X206827068Y-75398899D01*
X206693818Y-75648192D01*
X206611764Y-75918691D01*
X206584057Y-76200000D01*
X206610636Y-76469852D01*
X205593796Y-77486692D01*
X205441212Y-77501720D01*
X205288526Y-77548037D01*
X205229003Y-77579853D01*
X205147811Y-77623251D01*
X205024472Y-77724472D01*
X204999107Y-77755380D01*
X203671383Y-79083105D01*
X203640473Y-79108472D01*
X203615108Y-79139380D01*
X203539251Y-79231811D01*
X203494504Y-79315528D01*
X203464038Y-79372527D01*
X203448281Y-79424472D01*
X203417721Y-79525213D01*
X203402081Y-79684000D01*
X203406001Y-79723798D01*
X203406000Y-104312487D01*
X200882386Y-106836102D01*
X200796411Y-106819000D01*
X200523589Y-106819000D01*
X200256011Y-106872225D01*
X200003957Y-106976629D01*
X199777114Y-107128201D01*
X199584201Y-107321114D01*
X199432629Y-107547957D01*
X199328225Y-107800011D01*
X199275000Y-108067589D01*
X199275000Y-108340411D01*
X199328225Y-108607989D01*
X199432629Y-108860043D01*
X199584201Y-109086886D01*
X199777114Y-109279799D01*
X200003957Y-109431371D01*
X200256011Y-109535775D01*
X200523589Y-109589000D01*
X200796411Y-109589000D01*
X201063989Y-109535775D01*
X201316043Y-109431371D01*
X201542886Y-109279799D01*
X201735799Y-109086886D01*
X201887371Y-108860043D01*
X201991775Y-108607989D01*
X202045000Y-108340411D01*
X202045000Y-108067589D01*
X202027898Y-107981614D01*
X204599512Y-105410000D01*
X205060057Y-105410000D01*
X205087764Y-105691309D01*
X205169818Y-105961808D01*
X205303068Y-106211101D01*
X205482392Y-106429608D01*
X205700899Y-106608932D01*
X205950192Y-106742182D01*
X206220691Y-106824236D01*
X206431508Y-106845000D01*
X206572492Y-106845000D01*
X206783309Y-106824236D01*
X207053808Y-106742182D01*
X207303101Y-106608932D01*
X207521608Y-106429608D01*
X207700932Y-106211101D01*
X207834182Y-105961808D01*
X207916236Y-105691309D01*
X207943943Y-105410000D01*
X207916236Y-105128691D01*
X207834182Y-104858192D01*
X207700932Y-104608899D01*
X207521608Y-104390392D01*
X207303101Y-104211068D01*
X207053808Y-104077818D01*
X206783309Y-103995764D01*
X206572492Y-103975000D01*
X206431508Y-103975000D01*
X206220691Y-103995764D01*
X205950192Y-104077818D01*
X205700899Y-104211068D01*
X205482392Y-104390392D01*
X205303068Y-104608899D01*
X205169818Y-104858192D01*
X205087764Y-105128691D01*
X205060057Y-105410000D01*
X204599512Y-105410000D01*
X204760619Y-105248894D01*
X204791528Y-105223528D01*
X204892749Y-105100189D01*
X204967963Y-104959473D01*
X205014280Y-104806788D01*
X205026000Y-104687791D01*
X205026000Y-104687789D01*
X205029919Y-104648001D01*
X205026000Y-104608213D01*
X205026000Y-99568000D01*
X205060057Y-99568000D01*
X205087764Y-99849309D01*
X205169818Y-100119808D01*
X205303068Y-100369101D01*
X205482392Y-100587608D01*
X205700899Y-100766932D01*
X205950192Y-100900182D01*
X206220691Y-100982236D01*
X206431508Y-101003000D01*
X206572492Y-101003000D01*
X206783309Y-100982236D01*
X207053808Y-100900182D01*
X207303101Y-100766932D01*
X207521608Y-100587608D01*
X207700932Y-100369101D01*
X207834182Y-100119808D01*
X207916236Y-99849309D01*
X207943943Y-99568000D01*
X207916236Y-99286691D01*
X207834182Y-99016192D01*
X207700932Y-98766899D01*
X207521608Y-98548392D01*
X207303101Y-98369068D01*
X207053808Y-98235818D01*
X206783309Y-98153764D01*
X206572492Y-98133000D01*
X206431508Y-98133000D01*
X206220691Y-98153764D01*
X205950192Y-98235818D01*
X205700899Y-98369068D01*
X205482392Y-98548392D01*
X205303068Y-98766899D01*
X205169818Y-99016192D01*
X205087764Y-99286691D01*
X205060057Y-99568000D01*
X205026000Y-99568000D01*
X205026000Y-81436081D01*
X205172201Y-81654886D01*
X205365114Y-81847799D01*
X205438000Y-81896500D01*
X205438001Y-85558202D01*
X205434081Y-85598000D01*
X205449721Y-85756787D01*
X205496038Y-85909473D01*
X205571251Y-86050189D01*
X205617055Y-86106001D01*
X205672473Y-86173528D01*
X205703383Y-86198895D01*
X210010000Y-90505513D01*
X210010000Y-90638209D01*
X210006081Y-90678000D01*
X210010000Y-90717788D01*
X210010000Y-90717791D01*
X210021720Y-90836788D01*
X210068037Y-90989473D01*
X210088210Y-91027213D01*
X210143251Y-91130189D01*
X210198852Y-91197939D01*
X210244473Y-91253528D01*
X210275383Y-91278895D01*
X217258216Y-98261728D01*
X217080574Y-98188147D01*
X216803335Y-98133000D01*
X216520665Y-98133000D01*
X216397093Y-98157580D01*
X209085442Y-90845930D01*
X209078280Y-90773212D01*
X209031963Y-90620527D01*
X208972485Y-90509251D01*
X208956749Y-90479810D01*
X208919184Y-90434038D01*
X208855528Y-90356472D01*
X208824614Y-90331102D01*
X208631898Y-90138386D01*
X208649000Y-90052411D01*
X208649000Y-89779589D01*
X208595775Y-89512011D01*
X208491371Y-89259957D01*
X208339799Y-89033114D01*
X208146886Y-88840201D01*
X207920043Y-88688629D01*
X207667989Y-88584225D01*
X207400411Y-88531000D01*
X207127589Y-88531000D01*
X206860011Y-88584225D01*
X206607957Y-88688629D01*
X206381114Y-88840201D01*
X206188201Y-89033114D01*
X206036629Y-89259957D01*
X205932225Y-89512011D01*
X205879000Y-89779589D01*
X205879000Y-90052411D01*
X205932225Y-90319989D01*
X206036629Y-90572043D01*
X206188201Y-90798886D01*
X206381114Y-90991799D01*
X206607957Y-91143371D01*
X206860011Y-91247775D01*
X207127589Y-91301000D01*
X207400411Y-91301000D01*
X207475928Y-91285979D01*
X207481720Y-91344788D01*
X207528037Y-91497473D01*
X207603251Y-91638189D01*
X207704472Y-91761528D01*
X207735386Y-91786898D01*
X215251580Y-99303093D01*
X215227000Y-99426665D01*
X215227000Y-99709335D01*
X215282147Y-99986574D01*
X215390320Y-100247727D01*
X215547363Y-100482759D01*
X215747241Y-100682637D01*
X215982273Y-100839680D01*
X216243426Y-100947853D01*
X216520665Y-101003000D01*
X216803335Y-101003000D01*
X217080574Y-100947853D01*
X217341727Y-100839680D01*
X217576759Y-100682637D01*
X217776637Y-100482759D01*
X217884000Y-100322078D01*
X217884000Y-104655922D01*
X217776637Y-104495241D01*
X217576759Y-104295363D01*
X217341727Y-104138320D01*
X217080574Y-104030147D01*
X216803335Y-103975000D01*
X216520665Y-103975000D01*
X216243426Y-104030147D01*
X215982273Y-104138320D01*
X215747241Y-104295363D01*
X215547363Y-104495241D01*
X215390320Y-104730273D01*
X215282147Y-104991426D01*
X215227000Y-105268665D01*
X215227000Y-105551335D01*
X215282147Y-105828574D01*
X215390320Y-106089727D01*
X215547363Y-106324759D01*
X215747241Y-106524637D01*
X215982273Y-106681680D01*
X216243426Y-106789853D01*
X216520665Y-106845000D01*
X216803335Y-106845000D01*
X217080574Y-106789853D01*
X217341727Y-106681680D01*
X217576759Y-106524637D01*
X217776637Y-106324759D01*
X217884001Y-106164078D01*
X217884001Y-110662486D01*
X216931852Y-111614636D01*
X216732492Y-111595000D01*
X216591508Y-111595000D01*
X216380691Y-111615764D01*
X216110192Y-111697818D01*
X215860899Y-111831068D01*
X215642392Y-112010392D01*
X215463068Y-112228899D01*
X215329818Y-112478192D01*
X215247764Y-112748691D01*
X215220057Y-113030000D01*
X215247764Y-113311309D01*
X215329818Y-113581808D01*
X215463068Y-113831101D01*
X215642392Y-114049608D01*
X215860899Y-114228932D01*
X216110192Y-114362182D01*
X216380691Y-114444236D01*
X216591508Y-114465000D01*
X216732492Y-114465000D01*
X216943309Y-114444236D01*
X217213808Y-114362182D01*
X217463101Y-114228932D01*
X217681608Y-114049608D01*
X217860932Y-113831101D01*
X217994182Y-113581808D01*
X218076236Y-113311309D01*
X218103943Y-113030000D01*
X218077364Y-112760148D01*
X218900001Y-111937512D01*
X218900001Y-114726486D01*
X218403384Y-115223104D01*
X218403379Y-115223108D01*
X217088488Y-116538000D01*
X209718635Y-116538000D01*
X209648637Y-116433241D01*
X209448759Y-116233363D01*
X209213727Y-116076320D01*
X208952574Y-115968147D01*
X208675335Y-115913000D01*
X208392665Y-115913000D01*
X208115426Y-115968147D01*
X207854273Y-116076320D01*
X207619241Y-116233363D01*
X207419363Y-116433241D01*
X207262320Y-116668273D01*
X207154147Y-116929426D01*
X207099000Y-117206665D01*
X207099000Y-117489335D01*
X207154147Y-117766574D01*
X207262320Y-118027727D01*
X207419363Y-118262759D01*
X207619241Y-118462637D01*
X207854273Y-118619680D01*
X208115426Y-118727853D01*
X208392665Y-118783000D01*
X208675335Y-118783000D01*
X208952574Y-118727853D01*
X209213727Y-118619680D01*
X209448759Y-118462637D01*
X209648637Y-118262759D01*
X209718635Y-118158000D01*
X217384212Y-118158000D01*
X217424000Y-118161919D01*
X217463788Y-118158000D01*
X217463791Y-118158000D01*
X217582788Y-118146280D01*
X217735473Y-118099963D01*
X217876189Y-118024749D01*
X217999528Y-117923528D01*
X218024899Y-117892613D01*
X219548892Y-116368621D01*
X219548896Y-116368616D01*
X220015001Y-115902512D01*
X220015001Y-123250000D01*
X181738810Y-123250000D01*
X181738810Y-127715000D01*
X139260366Y-127715000D01*
X134289000Y-115403234D01*
X134289000Y-107544890D01*
X134702524Y-107544890D01*
X134747175Y-107692099D01*
X134872359Y-107954920D01*
X135046412Y-108188269D01*
X135262645Y-108383178D01*
X135512748Y-108532157D01*
X135787109Y-108629481D01*
X136017000Y-108508814D01*
X136017000Y-107315000D01*
X136271000Y-107315000D01*
X136271000Y-108508814D01*
X136500891Y-108629481D01*
X136775252Y-108532157D01*
X137025355Y-108383178D01*
X137241588Y-108188269D01*
X137415641Y-107954920D01*
X137540825Y-107692099D01*
X137585476Y-107544890D01*
X137464155Y-107315000D01*
X136271000Y-107315000D01*
X136017000Y-107315000D01*
X134823845Y-107315000D01*
X134702524Y-107544890D01*
X134289000Y-107544890D01*
X134289000Y-103798000D01*
X134655928Y-103798000D01*
X134655928Y-105498000D01*
X134668188Y-105622482D01*
X134704498Y-105742180D01*
X134763463Y-105852494D01*
X134842815Y-105949185D01*
X134939506Y-106028537D01*
X135049820Y-106087502D01*
X135130466Y-106111966D01*
X135046412Y-106187731D01*
X134872359Y-106421080D01*
X134747175Y-106683901D01*
X134702524Y-106831110D01*
X134823845Y-107061000D01*
X136017000Y-107061000D01*
X136017000Y-107041000D01*
X136271000Y-107041000D01*
X136271000Y-107061000D01*
X137464155Y-107061000D01*
X137585476Y-106831110D01*
X137540825Y-106683901D01*
X137415641Y-106421080D01*
X137241588Y-106187731D01*
X137157534Y-106111966D01*
X137238180Y-106087502D01*
X137348494Y-106028537D01*
X137445185Y-105949185D01*
X137469746Y-105919258D01*
X138636000Y-107085513D01*
X138636001Y-120306202D01*
X138632081Y-120346000D01*
X138646305Y-120490410D01*
X138647721Y-120504788D01*
X138677210Y-120602000D01*
X138694038Y-120657473D01*
X138769251Y-120798189D01*
X138824852Y-120865939D01*
X138870473Y-120921528D01*
X138901383Y-120946895D01*
X144099105Y-126144618D01*
X144124472Y-126175528D01*
X144192210Y-126231119D01*
X144247810Y-126276749D01*
X144302390Y-126305922D01*
X144388527Y-126351963D01*
X144541212Y-126398280D01*
X144660209Y-126410000D01*
X144660211Y-126410000D01*
X144699999Y-126413919D01*
X144739787Y-126410000D01*
X160334962Y-126410000D01*
X160360498Y-126494180D01*
X160419463Y-126604494D01*
X160498815Y-126701185D01*
X160595506Y-126780537D01*
X160705820Y-126839502D01*
X160825518Y-126875812D01*
X160950000Y-126888072D01*
X162250000Y-126888072D01*
X162374482Y-126875812D01*
X162494180Y-126839502D01*
X162604494Y-126780537D01*
X162701185Y-126701185D01*
X162780537Y-126604494D01*
X162839502Y-126494180D01*
X162842126Y-126485527D01*
X163434078Y-126485527D01*
X163487466Y-126714201D01*
X163717374Y-126820095D01*
X163963524Y-126879102D01*
X164216455Y-126888952D01*
X164466449Y-126849270D01*
X164703896Y-126761578D01*
X164792534Y-126714201D01*
X164845922Y-126485527D01*
X164140000Y-125779605D01*
X163434078Y-126485527D01*
X162842126Y-126485527D01*
X162875812Y-126374482D01*
X162888072Y-126250000D01*
X162888072Y-125909704D01*
X162890730Y-125926449D01*
X162978422Y-126163896D01*
X163025799Y-126252534D01*
X163254473Y-126305922D01*
X163960395Y-125600000D01*
X164319605Y-125600000D01*
X165025527Y-126305922D01*
X165254201Y-126252534D01*
X165360095Y-126022626D01*
X165419102Y-125776476D01*
X165428952Y-125523545D01*
X165389270Y-125273551D01*
X165301578Y-125036104D01*
X165254201Y-124947466D01*
X165025527Y-124894078D01*
X164319605Y-125600000D01*
X163960395Y-125600000D01*
X163946253Y-125585858D01*
X164125858Y-125406253D01*
X164140000Y-125420395D01*
X164845922Y-124714473D01*
X164792534Y-124485799D01*
X164562626Y-124379905D01*
X164316476Y-124320898D01*
X164155000Y-124314610D01*
X164155000Y-124206000D01*
X168230057Y-124206000D01*
X168257764Y-124487309D01*
X168339818Y-124757808D01*
X168473068Y-125007101D01*
X168652392Y-125225608D01*
X168870899Y-125404932D01*
X169120192Y-125538182D01*
X169390691Y-125620236D01*
X169601508Y-125641000D01*
X169742492Y-125641000D01*
X169953309Y-125620236D01*
X170223808Y-125538182D01*
X170473101Y-125404932D01*
X170691608Y-125225608D01*
X170870932Y-125007101D01*
X171004182Y-124757808D01*
X171086236Y-124487309D01*
X171113943Y-124206000D01*
X171086236Y-123924691D01*
X171004182Y-123654192D01*
X170870932Y-123404899D01*
X170691608Y-123186392D01*
X170473101Y-123007068D01*
X170223808Y-122873818D01*
X169953309Y-122791764D01*
X169742492Y-122771000D01*
X169601508Y-122771000D01*
X169390691Y-122791764D01*
X169120192Y-122873818D01*
X168870899Y-123007068D01*
X168652392Y-123186392D01*
X168473068Y-123404899D01*
X168339818Y-123654192D01*
X168257764Y-123924691D01*
X168230057Y-124206000D01*
X164155000Y-124206000D01*
X164155000Y-124203439D01*
X164105619Y-123955179D01*
X164008753Y-123721324D01*
X163868125Y-123510860D01*
X163689140Y-123331875D01*
X163478676Y-123191247D01*
X163244821Y-123094381D01*
X162996561Y-123045000D01*
X162743439Y-123045000D01*
X162732657Y-123047145D01*
X162584899Y-122899387D01*
X162559528Y-122868472D01*
X162436189Y-122767251D01*
X162295473Y-122692037D01*
X162142788Y-122645720D01*
X162023791Y-122634000D01*
X162023788Y-122634000D01*
X161984000Y-122630081D01*
X161944212Y-122634000D01*
X158143173Y-122634000D01*
X157987987Y-122401748D01*
X157760252Y-122174013D01*
X157492463Y-121995082D01*
X157194912Y-121871832D01*
X156879033Y-121809000D01*
X156556967Y-121809000D01*
X156241088Y-121871832D01*
X155943537Y-121995082D01*
X155675748Y-122174013D01*
X155448013Y-122401748D01*
X155269082Y-122669537D01*
X155145832Y-122967088D01*
X155083000Y-123282967D01*
X155083000Y-123605033D01*
X155145832Y-123920912D01*
X155269082Y-124218463D01*
X155448013Y-124486252D01*
X155675748Y-124713987D01*
X155789509Y-124790000D01*
X150097535Y-124790000D01*
X150173808Y-124579413D01*
X149218000Y-123623605D01*
X148262192Y-124579413D01*
X148338465Y-124790000D01*
X145035513Y-124790000D01*
X143752108Y-123506595D01*
X147576282Y-123506595D01*
X147620039Y-123825675D01*
X147725205Y-124130088D01*
X147818186Y-124304044D01*
X148082587Y-124399808D01*
X149038395Y-123444000D01*
X149397605Y-123444000D01*
X150353413Y-124399808D01*
X150617814Y-124304044D01*
X150758704Y-124014429D01*
X150840384Y-123702892D01*
X150859718Y-123381405D01*
X150815961Y-123062325D01*
X150710795Y-122757912D01*
X150617814Y-122583956D01*
X150353413Y-122488192D01*
X149397605Y-123444000D01*
X149038395Y-123444000D01*
X148082587Y-122488192D01*
X147818186Y-122583956D01*
X147677296Y-122873571D01*
X147595616Y-123185108D01*
X147576282Y-123506595D01*
X143752108Y-123506595D01*
X142554100Y-122308587D01*
X148262192Y-122308587D01*
X149218000Y-123264395D01*
X150173808Y-122308587D01*
X150078044Y-122044186D01*
X149788429Y-121903296D01*
X149476892Y-121821616D01*
X149155405Y-121802282D01*
X148836325Y-121846039D01*
X148531912Y-121951205D01*
X148357956Y-122044186D01*
X148262192Y-122308587D01*
X142554100Y-122308587D01*
X140256000Y-120010488D01*
X140256000Y-117968665D01*
X159347000Y-117968665D01*
X159347000Y-118251335D01*
X159402147Y-118528574D01*
X159510320Y-118789727D01*
X159667363Y-119024759D01*
X159867241Y-119224637D01*
X160102273Y-119381680D01*
X160363426Y-119489853D01*
X160640665Y-119545000D01*
X160923335Y-119545000D01*
X161046907Y-119520420D01*
X163483105Y-121956618D01*
X163508472Y-121987528D01*
X163576210Y-122043119D01*
X163631810Y-122088749D01*
X163692923Y-122121414D01*
X163772527Y-122163963D01*
X163925212Y-122210280D01*
X164044209Y-122222000D01*
X164044211Y-122222000D01*
X164083999Y-122225919D01*
X164123787Y-122222000D01*
X176702488Y-122222000D01*
X178421580Y-123941093D01*
X178397000Y-124064665D01*
X178397000Y-124347335D01*
X178452147Y-124624574D01*
X178560320Y-124885727D01*
X178717363Y-125120759D01*
X178917241Y-125320637D01*
X179152273Y-125477680D01*
X179413426Y-125585853D01*
X179690665Y-125641000D01*
X179973335Y-125641000D01*
X180250574Y-125585853D01*
X180511727Y-125477680D01*
X180746759Y-125320637D01*
X180946637Y-125120759D01*
X181103680Y-124885727D01*
X181211853Y-124624574D01*
X181267000Y-124347335D01*
X181267000Y-124064665D01*
X181211853Y-123787426D01*
X181103680Y-123526273D01*
X180946637Y-123291241D01*
X180746759Y-123091363D01*
X180511727Y-122934320D01*
X180250574Y-122826147D01*
X179973335Y-122771000D01*
X179690665Y-122771000D01*
X179567093Y-122795580D01*
X177788178Y-121016665D01*
X185509000Y-121016665D01*
X185509000Y-121299335D01*
X185564147Y-121576574D01*
X185672320Y-121837727D01*
X185829363Y-122072759D01*
X186029241Y-122272637D01*
X186264273Y-122429680D01*
X186525426Y-122537853D01*
X186802665Y-122593000D01*
X187085335Y-122593000D01*
X187362574Y-122537853D01*
X187623727Y-122429680D01*
X187858759Y-122272637D01*
X188058637Y-122072759D01*
X188215680Y-121837727D01*
X188323853Y-121576574D01*
X188337684Y-121507039D01*
X195712096Y-121507039D01*
X195752754Y-121641087D01*
X195872963Y-121895420D01*
X196040481Y-122121414D01*
X196248869Y-122310385D01*
X196490119Y-122455070D01*
X196754960Y-122549909D01*
X196977000Y-122428624D01*
X196977000Y-121285000D01*
X197231000Y-121285000D01*
X197231000Y-122428624D01*
X197453040Y-122549909D01*
X197717881Y-122455070D01*
X197959131Y-122310385D01*
X198167519Y-122121414D01*
X198335037Y-121895420D01*
X198455246Y-121641087D01*
X198495904Y-121507039D01*
X198373915Y-121285000D01*
X197231000Y-121285000D01*
X196977000Y-121285000D01*
X195834085Y-121285000D01*
X195712096Y-121507039D01*
X188337684Y-121507039D01*
X188379000Y-121299335D01*
X188379000Y-121016665D01*
X188337685Y-120808961D01*
X195712096Y-120808961D01*
X195834085Y-121031000D01*
X196977000Y-121031000D01*
X196977000Y-119887376D01*
X197231000Y-119887376D01*
X197231000Y-121031000D01*
X198373915Y-121031000D01*
X198495904Y-120808961D01*
X198455246Y-120674913D01*
X198335037Y-120420580D01*
X198167519Y-120194586D01*
X197959131Y-120005615D01*
X197717881Y-119860930D01*
X197453040Y-119766091D01*
X197231000Y-119887376D01*
X196977000Y-119887376D01*
X196754960Y-119766091D01*
X196490119Y-119860930D01*
X196248869Y-120005615D01*
X196040481Y-120194586D01*
X195872963Y-120420580D01*
X195752754Y-120674913D01*
X195712096Y-120808961D01*
X188337685Y-120808961D01*
X188323853Y-120739426D01*
X188215680Y-120478273D01*
X188058637Y-120243241D01*
X187858759Y-120043363D01*
X187623727Y-119886320D01*
X187362574Y-119778147D01*
X187085335Y-119723000D01*
X186802665Y-119723000D01*
X186525426Y-119778147D01*
X186264273Y-119886320D01*
X186029241Y-120043363D01*
X185829363Y-120243241D01*
X185672320Y-120478273D01*
X185564147Y-120739426D01*
X185509000Y-121016665D01*
X177788178Y-121016665D01*
X177638900Y-120867387D01*
X177613528Y-120836472D01*
X177490189Y-120735251D01*
X177349473Y-120660037D01*
X177196788Y-120613720D01*
X177077791Y-120602000D01*
X177077788Y-120602000D01*
X177038000Y-120598081D01*
X176998212Y-120602000D01*
X164419513Y-120602000D01*
X162192420Y-118374907D01*
X162217000Y-118251335D01*
X162217000Y-118110000D01*
X169500057Y-118110000D01*
X169527764Y-118391309D01*
X169609818Y-118661808D01*
X169743068Y-118911101D01*
X169922392Y-119129608D01*
X170140899Y-119308932D01*
X170390192Y-119442182D01*
X170660691Y-119524236D01*
X170871508Y-119545000D01*
X171012492Y-119545000D01*
X171223309Y-119524236D01*
X171493808Y-119442182D01*
X171743101Y-119308932D01*
X171961608Y-119129608D01*
X172140932Y-118911101D01*
X172274182Y-118661808D01*
X172356236Y-118391309D01*
X172383943Y-118110000D01*
X172356236Y-117828691D01*
X172274182Y-117558192D01*
X172140932Y-117308899D01*
X171961608Y-117090392D01*
X171743101Y-116911068D01*
X171493808Y-116777818D01*
X171223309Y-116695764D01*
X171012492Y-116675000D01*
X170871508Y-116675000D01*
X170660691Y-116695764D01*
X170390192Y-116777818D01*
X170140899Y-116911068D01*
X169922392Y-117090392D01*
X169743068Y-117308899D01*
X169609818Y-117558192D01*
X169527764Y-117828691D01*
X169500057Y-118110000D01*
X162217000Y-118110000D01*
X162217000Y-117968665D01*
X162161853Y-117691426D01*
X162053680Y-117430273D01*
X161896637Y-117195241D01*
X161696759Y-116995363D01*
X161461727Y-116838320D01*
X161200574Y-116730147D01*
X160923335Y-116675000D01*
X160640665Y-116675000D01*
X160363426Y-116730147D01*
X160102273Y-116838320D01*
X159867241Y-116995363D01*
X159667363Y-117195241D01*
X159510320Y-117430273D01*
X159402147Y-117691426D01*
X159347000Y-117968665D01*
X140256000Y-117968665D01*
X140256000Y-116705413D01*
X148262192Y-116705413D01*
X148357956Y-116969814D01*
X148647571Y-117110704D01*
X148959108Y-117192384D01*
X149280595Y-117211718D01*
X149599675Y-117167961D01*
X149904088Y-117062795D01*
X150078044Y-116969814D01*
X150173808Y-116705413D01*
X149218000Y-115749605D01*
X148262192Y-116705413D01*
X140256000Y-116705413D01*
X140256000Y-115632595D01*
X147576282Y-115632595D01*
X147620039Y-115951675D01*
X147725205Y-116256088D01*
X147818186Y-116430044D01*
X148082587Y-116525808D01*
X149038395Y-115570000D01*
X149397605Y-115570000D01*
X150353413Y-116525808D01*
X150617814Y-116430044D01*
X150758704Y-116140429D01*
X150840384Y-115828892D01*
X150859718Y-115507405D01*
X150846219Y-115408967D01*
X155083000Y-115408967D01*
X155083000Y-115731033D01*
X155145832Y-116046912D01*
X155269082Y-116344463D01*
X155448013Y-116612252D01*
X155675748Y-116839987D01*
X155943537Y-117018918D01*
X156241088Y-117142168D01*
X156556967Y-117205000D01*
X156879033Y-117205000D01*
X157194912Y-117142168D01*
X157492463Y-117018918D01*
X157760252Y-116839987D01*
X157987987Y-116612252D01*
X158166918Y-116344463D01*
X158290168Y-116046912D01*
X158353000Y-115731033D01*
X158353000Y-115408967D01*
X158290168Y-115093088D01*
X158166918Y-114795537D01*
X157987987Y-114527748D01*
X157760252Y-114300013D01*
X157492463Y-114121082D01*
X157194912Y-113997832D01*
X156879033Y-113935000D01*
X156556967Y-113935000D01*
X156241088Y-113997832D01*
X155943537Y-114121082D01*
X155675748Y-114300013D01*
X155448013Y-114527748D01*
X155269082Y-114795537D01*
X155145832Y-115093088D01*
X155083000Y-115408967D01*
X150846219Y-115408967D01*
X150815961Y-115188325D01*
X150710795Y-114883912D01*
X150617814Y-114709956D01*
X150353413Y-114614192D01*
X149397605Y-115570000D01*
X149038395Y-115570000D01*
X148082587Y-114614192D01*
X147818186Y-114709956D01*
X147677296Y-114999571D01*
X147595616Y-115311108D01*
X147576282Y-115632595D01*
X140256000Y-115632595D01*
X140256000Y-114434587D01*
X148262192Y-114434587D01*
X149218000Y-115390395D01*
X150173808Y-114434587D01*
X150078044Y-114170186D01*
X149788429Y-114029296D01*
X149476892Y-113947616D01*
X149155405Y-113928282D01*
X148836325Y-113972039D01*
X148531912Y-114077205D01*
X148357956Y-114170186D01*
X148262192Y-114434587D01*
X140256000Y-114434587D01*
X140256000Y-111291413D01*
X143316192Y-111291413D01*
X143411956Y-111555814D01*
X143701571Y-111696704D01*
X144013108Y-111778384D01*
X144334595Y-111797718D01*
X144653675Y-111753961D01*
X144958088Y-111648795D01*
X145132044Y-111555814D01*
X145227808Y-111291413D01*
X144272000Y-110335605D01*
X143316192Y-111291413D01*
X140256000Y-111291413D01*
X140256000Y-110218595D01*
X142630282Y-110218595D01*
X142674039Y-110537675D01*
X142779205Y-110842088D01*
X142872186Y-111016044D01*
X143136587Y-111111808D01*
X144092395Y-110156000D01*
X144451605Y-110156000D01*
X145407413Y-111111808D01*
X145671814Y-111016044D01*
X145812704Y-110726429D01*
X145894384Y-110414892D01*
X145913718Y-110093405D01*
X145869961Y-109774325D01*
X145764795Y-109469912D01*
X145671814Y-109295956D01*
X145407413Y-109200192D01*
X144451605Y-110156000D01*
X144092395Y-110156000D01*
X143136587Y-109200192D01*
X142872186Y-109295956D01*
X142731296Y-109585571D01*
X142649616Y-109897108D01*
X142630282Y-110218595D01*
X140256000Y-110218595D01*
X140256000Y-109020587D01*
X143316192Y-109020587D01*
X144272000Y-109976395D01*
X145227808Y-109020587D01*
X145132044Y-108756186D01*
X144842429Y-108615296D01*
X144530892Y-108533616D01*
X144209405Y-108514282D01*
X143890325Y-108558039D01*
X143585912Y-108663205D01*
X143411956Y-108756186D01*
X143316192Y-109020587D01*
X140256000Y-109020587D01*
X140256000Y-106789788D01*
X140259919Y-106750000D01*
X140253190Y-106681680D01*
X140244280Y-106591212D01*
X140197963Y-106438527D01*
X140122750Y-106297812D01*
X140122749Y-106297810D01*
X140070214Y-106233796D01*
X140021528Y-106174472D01*
X139990619Y-106149106D01*
X139299513Y-105458000D01*
X142665040Y-105458000D01*
X142699832Y-105632912D01*
X142823082Y-105930463D01*
X143002013Y-106198252D01*
X143229748Y-106425987D01*
X143497537Y-106604918D01*
X143795088Y-106728168D01*
X144110967Y-106791000D01*
X144433033Y-106791000D01*
X144748912Y-106728168D01*
X145046463Y-106604918D01*
X145314252Y-106425987D01*
X145541987Y-106198252D01*
X145720918Y-105930463D01*
X145844168Y-105632912D01*
X145907000Y-105317033D01*
X145907000Y-104994967D01*
X145844168Y-104679088D01*
X145720918Y-104381537D01*
X145541987Y-104113748D01*
X145314252Y-103886013D01*
X145046463Y-103707082D01*
X144748912Y-103583832D01*
X144433033Y-103521000D01*
X144110967Y-103521000D01*
X143795088Y-103583832D01*
X143497537Y-103707082D01*
X143301604Y-103838000D01*
X137632072Y-103838000D01*
X137632072Y-103798000D01*
X137619812Y-103673518D01*
X137583502Y-103553820D01*
X137524537Y-103443506D01*
X137445185Y-103346815D01*
X137348494Y-103267463D01*
X137238180Y-103208498D01*
X137118482Y-103172188D01*
X136994000Y-103159928D01*
X135294000Y-103159928D01*
X135169518Y-103172188D01*
X135049820Y-103208498D01*
X134939506Y-103267463D01*
X134842815Y-103346815D01*
X134763463Y-103443506D01*
X134704498Y-103553820D01*
X134668188Y-103673518D01*
X134655928Y-103798000D01*
X134289000Y-103798000D01*
X134289000Y-79248000D01*
X135255000Y-79248000D01*
X135255000Y-93472000D01*
X135257440Y-93496776D01*
X135264667Y-93520601D01*
X135276403Y-93542557D01*
X135292197Y-93561803D01*
X142404197Y-100673803D01*
X142423443Y-100689597D01*
X142445399Y-100701333D01*
X142469224Y-100708560D01*
X142494000Y-100711000D01*
X156718000Y-100711000D01*
X156742776Y-100708560D01*
X156766601Y-100701333D01*
X156788557Y-100689597D01*
X156807803Y-100673803D01*
X163919803Y-93561803D01*
X163935597Y-93542557D01*
X163947333Y-93520601D01*
X163954560Y-93496776D01*
X163957000Y-93472000D01*
X163957000Y-79248000D01*
X163954560Y-79223224D01*
X163947333Y-79199399D01*
X163935597Y-79177443D01*
X163919803Y-79158197D01*
X159220271Y-74458665D01*
X161165000Y-74458665D01*
X161165000Y-74741335D01*
X161220147Y-75018574D01*
X161328320Y-75279727D01*
X161485363Y-75514759D01*
X161685241Y-75714637D01*
X161920273Y-75871680D01*
X162181426Y-75979853D01*
X162458665Y-76035000D01*
X162741335Y-76035000D01*
X162864907Y-76010420D01*
X169116001Y-82261514D01*
X169116000Y-101560212D01*
X169112081Y-101600000D01*
X169116000Y-101639788D01*
X169116000Y-101639790D01*
X169127720Y-101758787D01*
X169174037Y-101911472D01*
X169174038Y-101911473D01*
X169249251Y-102052189D01*
X169280703Y-102090513D01*
X169350472Y-102175528D01*
X169381388Y-102200900D01*
X181562001Y-114381514D01*
X181562001Y-114953500D01*
X181489114Y-115002201D01*
X181296201Y-115195114D01*
X181144629Y-115421957D01*
X181040225Y-115674011D01*
X180987000Y-115941589D01*
X180987000Y-116214411D01*
X181040225Y-116481989D01*
X181144629Y-116734043D01*
X181296201Y-116960886D01*
X181449247Y-117113932D01*
X181251989Y-117032225D01*
X180984411Y-116979000D01*
X180711589Y-116979000D01*
X180444011Y-117032225D01*
X180191957Y-117136629D01*
X179965114Y-117288201D01*
X179772201Y-117481114D01*
X179620629Y-117707957D01*
X179516225Y-117960011D01*
X179463000Y-118227589D01*
X179463000Y-118500411D01*
X179516225Y-118767989D01*
X179620629Y-119020043D01*
X179772201Y-119246886D01*
X179965114Y-119439799D01*
X180191957Y-119591371D01*
X180444011Y-119695775D01*
X180711589Y-119749000D01*
X180984411Y-119749000D01*
X181251989Y-119695775D01*
X181504043Y-119591371D01*
X181730886Y-119439799D01*
X181923799Y-119246886D01*
X181972500Y-119174000D01*
X190968212Y-119174000D01*
X191008000Y-119177919D01*
X191047788Y-119174000D01*
X191047791Y-119174000D01*
X191166788Y-119162280D01*
X191319473Y-119115963D01*
X191460189Y-119040749D01*
X191583528Y-118939528D01*
X191608900Y-118908612D01*
X193169512Y-117348000D01*
X196932057Y-117348000D01*
X196959764Y-117629309D01*
X197041818Y-117899808D01*
X197175068Y-118149101D01*
X197354392Y-118367608D01*
X197572899Y-118546932D01*
X197822192Y-118680182D01*
X198092691Y-118762236D01*
X198303508Y-118783000D01*
X198444492Y-118783000D01*
X198655309Y-118762236D01*
X198925808Y-118680182D01*
X199175101Y-118546932D01*
X199393608Y-118367608D01*
X199572932Y-118149101D01*
X199706182Y-117899808D01*
X199788236Y-117629309D01*
X199815943Y-117348000D01*
X199788236Y-117066691D01*
X199706182Y-116796192D01*
X199572932Y-116546899D01*
X199393608Y-116328392D01*
X199175101Y-116149068D01*
X198925808Y-116015818D01*
X198655309Y-115933764D01*
X198444492Y-115913000D01*
X198303508Y-115913000D01*
X198092691Y-115933764D01*
X197822192Y-116015818D01*
X197572899Y-116149068D01*
X197354392Y-116328392D01*
X197175068Y-116546899D01*
X197041818Y-116796192D01*
X196959764Y-117066691D01*
X196932057Y-117348000D01*
X193169512Y-117348000D01*
X197439513Y-113078000D01*
X204684212Y-113078000D01*
X204724000Y-113081919D01*
X204763788Y-113078000D01*
X204763791Y-113078000D01*
X204882788Y-113066280D01*
X204969417Y-113040001D01*
X205067000Y-113040001D01*
X205067000Y-113171335D01*
X205122147Y-113448574D01*
X205230320Y-113709727D01*
X205387363Y-113944759D01*
X205587241Y-114144637D01*
X205822273Y-114301680D01*
X206083426Y-114409853D01*
X206360665Y-114465000D01*
X206643335Y-114465000D01*
X206920574Y-114409853D01*
X207181727Y-114301680D01*
X207416759Y-114144637D01*
X207616637Y-113944759D01*
X207773680Y-113709727D01*
X207881853Y-113448574D01*
X207937000Y-113171335D01*
X207937000Y-112888665D01*
X207881853Y-112611426D01*
X207773680Y-112350273D01*
X207616637Y-112115241D01*
X207416759Y-111915363D01*
X207181727Y-111758320D01*
X206920574Y-111650147D01*
X206643335Y-111595000D01*
X206360665Y-111595000D01*
X206235418Y-111619914D01*
X206154190Y-111553252D01*
X206013474Y-111478038D01*
X205860789Y-111431721D01*
X205741792Y-111420001D01*
X205741789Y-111420001D01*
X205702001Y-111416082D01*
X205662213Y-111420001D01*
X204801787Y-111420001D01*
X204761999Y-111416082D01*
X204722211Y-111420001D01*
X204722208Y-111420001D01*
X204603211Y-111431721D01*
X204516582Y-111458000D01*
X197143788Y-111458000D01*
X197104000Y-111454081D01*
X197064212Y-111458000D01*
X197064209Y-111458000D01*
X196945212Y-111469720D01*
X196792527Y-111516037D01*
X196742794Y-111542620D01*
X196651810Y-111591251D01*
X196587796Y-111643786D01*
X196528472Y-111692472D01*
X196503107Y-111723380D01*
X190672488Y-117554000D01*
X181972500Y-117554000D01*
X181923799Y-117481114D01*
X181770753Y-117328068D01*
X181968011Y-117409775D01*
X182235589Y-117463000D01*
X182508411Y-117463000D01*
X182775989Y-117409775D01*
X183028043Y-117305371D01*
X183254886Y-117153799D01*
X183447799Y-116960886D01*
X183599371Y-116734043D01*
X183703775Y-116481989D01*
X183757000Y-116214411D01*
X183757000Y-115941589D01*
X183703775Y-115674011D01*
X183599371Y-115421957D01*
X183447799Y-115195114D01*
X183254886Y-115002201D01*
X183182000Y-114953500D01*
X183182000Y-114085788D01*
X183185919Y-114046000D01*
X183181175Y-113997832D01*
X183170280Y-113887212D01*
X183123963Y-113734527D01*
X183068569Y-113630892D01*
X183048749Y-113593810D01*
X183003119Y-113538210D01*
X182947528Y-113470472D01*
X182916618Y-113445105D01*
X170736000Y-101264488D01*
X170736000Y-81965791D01*
X170739919Y-81926000D01*
X170724280Y-81767212D01*
X170677963Y-81614526D01*
X170602749Y-81473811D01*
X170565188Y-81428043D01*
X170501528Y-81350472D01*
X170470618Y-81325105D01*
X164010420Y-74864907D01*
X164035000Y-74741335D01*
X164035000Y-74600000D01*
X171318057Y-74600000D01*
X171345764Y-74881309D01*
X171427818Y-75151808D01*
X171561068Y-75401101D01*
X171740392Y-75619608D01*
X171958899Y-75798932D01*
X172208192Y-75932182D01*
X172478691Y-76014236D01*
X172689508Y-76035000D01*
X172830492Y-76035000D01*
X173029852Y-76015364D01*
X177559105Y-80544618D01*
X177584472Y-80575528D01*
X177630392Y-80613213D01*
X177707810Y-80676749D01*
X177772775Y-80711473D01*
X177848527Y-80751963D01*
X178001212Y-80798280D01*
X178120209Y-80810000D01*
X178120211Y-80810000D01*
X178159999Y-80813919D01*
X178199787Y-80810000D01*
X178396037Y-80810000D01*
X178350629Y-80877957D01*
X178246225Y-81130011D01*
X178193000Y-81397589D01*
X178193000Y-81670411D01*
X178246225Y-81937989D01*
X178350629Y-82190043D01*
X178502201Y-82416886D01*
X178695114Y-82609799D01*
X178921957Y-82761371D01*
X179174011Y-82865775D01*
X179441589Y-82919000D01*
X179714411Y-82919000D01*
X179981989Y-82865775D01*
X180234043Y-82761371D01*
X180460886Y-82609799D01*
X180653799Y-82416886D01*
X180702500Y-82344000D01*
X184151190Y-82344000D01*
X184192629Y-82444043D01*
X184344201Y-82670886D01*
X184537114Y-82863799D01*
X184763957Y-83015371D01*
X185016011Y-83119775D01*
X185193423Y-83155065D01*
X173953388Y-94395100D01*
X173922472Y-94420472D01*
X173852703Y-94505487D01*
X173821251Y-94543811D01*
X173801431Y-94580892D01*
X173746037Y-94684528D01*
X173699720Y-94837213D01*
X173688000Y-94956209D01*
X173684081Y-94996000D01*
X173688000Y-95035788D01*
X173688001Y-102068202D01*
X173684081Y-102108000D01*
X173699721Y-102266787D01*
X173746038Y-102419473D01*
X173821251Y-102560189D01*
X173876852Y-102627939D01*
X173922473Y-102683528D01*
X173953383Y-102708895D01*
X179988102Y-108743614D01*
X179971000Y-108829589D01*
X179971000Y-109102411D01*
X180024225Y-109369989D01*
X180128629Y-109622043D01*
X180280201Y-109848886D01*
X180473114Y-110041799D01*
X180699957Y-110193371D01*
X180952011Y-110297775D01*
X181219589Y-110351000D01*
X181492411Y-110351000D01*
X181759989Y-110297775D01*
X182012043Y-110193371D01*
X182238886Y-110041799D01*
X182431799Y-109848886D01*
X182583371Y-109622043D01*
X182687775Y-109369989D01*
X182741000Y-109102411D01*
X182741000Y-108829589D01*
X182687775Y-108562011D01*
X182583371Y-108309957D01*
X182431799Y-108083114D01*
X182238886Y-107890201D01*
X182012043Y-107738629D01*
X181759989Y-107634225D01*
X181492411Y-107581000D01*
X181219589Y-107581000D01*
X181133614Y-107598102D01*
X181092513Y-107557000D01*
X181238411Y-107557000D01*
X181505989Y-107503775D01*
X181758043Y-107399371D01*
X181984886Y-107247799D01*
X182177799Y-107054886D01*
X182329371Y-106828043D01*
X182433775Y-106575989D01*
X182487000Y-106308411D01*
X182487000Y-106035589D01*
X182433775Y-105768011D01*
X182329371Y-105515957D01*
X182177799Y-105289114D01*
X181984886Y-105096201D01*
X181912000Y-105047500D01*
X181912000Y-99353787D01*
X181915919Y-99313999D01*
X181910258Y-99256526D01*
X181900280Y-99155212D01*
X181853963Y-99002527D01*
X181778749Y-98861811D01*
X181677528Y-98738472D01*
X181646619Y-98713106D01*
X179929898Y-96996386D01*
X179947000Y-96910411D01*
X179947000Y-96637589D01*
X179893775Y-96370011D01*
X179789371Y-96117957D01*
X179637799Y-95891114D01*
X179444886Y-95698201D01*
X179218043Y-95546629D01*
X178965989Y-95442225D01*
X178698411Y-95389000D01*
X178425589Y-95389000D01*
X178158011Y-95442225D01*
X177905957Y-95546629D01*
X177679114Y-95698201D01*
X177486201Y-95891114D01*
X177334629Y-96117957D01*
X177230225Y-96370011D01*
X177177000Y-96637589D01*
X177177000Y-96910411D01*
X177230225Y-97177989D01*
X177334629Y-97430043D01*
X177486201Y-97656886D01*
X177679114Y-97849799D01*
X177905957Y-98001371D01*
X178158011Y-98105775D01*
X178425589Y-98159000D01*
X178698411Y-98159000D01*
X178784386Y-98141898D01*
X180292000Y-99649513D01*
X180292001Y-105047499D01*
X180219114Y-105096201D01*
X180026201Y-105289114D01*
X179874629Y-105515957D01*
X179770225Y-105768011D01*
X179717000Y-106035589D01*
X179717000Y-106181487D01*
X175308000Y-101772488D01*
X175308000Y-95331512D01*
X190404050Y-80235463D01*
X190602816Y-80275000D01*
X190905184Y-80275000D01*
X191201743Y-80216011D01*
X191481095Y-80100299D01*
X191732505Y-79932312D01*
X191946312Y-79718505D01*
X192024000Y-79602237D01*
X192101688Y-79718505D01*
X192315495Y-79932312D01*
X192566905Y-80100299D01*
X192846257Y-80216011D01*
X193142816Y-80275000D01*
X193445184Y-80275000D01*
X193741743Y-80216011D01*
X194021095Y-80100299D01*
X194272505Y-79932312D01*
X194486312Y-79718505D01*
X194564000Y-79602237D01*
X194641688Y-79718505D01*
X194855495Y-79932312D01*
X195106905Y-80100299D01*
X195386257Y-80216011D01*
X195682816Y-80275000D01*
X195985184Y-80275000D01*
X196281743Y-80216011D01*
X196561095Y-80100299D01*
X196812505Y-79932312D01*
X197026312Y-79718505D01*
X197194299Y-79467095D01*
X197310011Y-79187743D01*
X197369000Y-78891184D01*
X197369000Y-78588816D01*
X197310011Y-78292257D01*
X197195561Y-78015951D01*
X197601093Y-77610420D01*
X197724665Y-77635000D01*
X198007335Y-77635000D01*
X198284574Y-77579853D01*
X198545727Y-77471680D01*
X198780759Y-77314637D01*
X198980637Y-77114759D01*
X199137680Y-76879727D01*
X199245853Y-76618574D01*
X199301000Y-76341335D01*
X199301000Y-76058665D01*
X199245853Y-75781426D01*
X199137680Y-75520273D01*
X198980637Y-75285241D01*
X198927396Y-75232000D01*
X199342001Y-75232000D01*
X199342001Y-84917355D01*
X199284043Y-84878629D01*
X199031989Y-84774225D01*
X198764411Y-84721000D01*
X198491589Y-84721000D01*
X198224011Y-84774225D01*
X197981000Y-84874883D01*
X197981000Y-84699589D01*
X197927775Y-84432011D01*
X197823371Y-84179957D01*
X197671799Y-83953114D01*
X197478886Y-83760201D01*
X197252043Y-83608629D01*
X196999989Y-83504225D01*
X196732411Y-83451000D01*
X196459589Y-83451000D01*
X196192011Y-83504225D01*
X195939957Y-83608629D01*
X195713114Y-83760201D01*
X195520201Y-83953114D01*
X195368629Y-84179957D01*
X195264225Y-84432011D01*
X195211000Y-84699589D01*
X195211000Y-84972411D01*
X195228102Y-85058386D01*
X193720488Y-86566000D01*
X187745788Y-86566000D01*
X187706000Y-86562081D01*
X187666212Y-86566000D01*
X187666209Y-86566000D01*
X187625504Y-86570009D01*
X188549513Y-85646000D01*
X191685552Y-85646000D01*
X191725340Y-85649919D01*
X191765128Y-85646000D01*
X191765131Y-85646000D01*
X191884128Y-85634280D01*
X192036813Y-85587963D01*
X192177529Y-85512749D01*
X192300868Y-85411528D01*
X192326240Y-85380613D01*
X194389084Y-83317769D01*
X194443114Y-83371799D01*
X194669957Y-83523371D01*
X194922011Y-83627775D01*
X195189589Y-83681000D01*
X195462411Y-83681000D01*
X195729989Y-83627775D01*
X195982043Y-83523371D01*
X196208886Y-83371799D01*
X196401799Y-83178886D01*
X196553371Y-82952043D01*
X196657775Y-82699989D01*
X196711000Y-82432411D01*
X196711000Y-82159589D01*
X196657775Y-81892011D01*
X196553371Y-81639957D01*
X196401799Y-81413114D01*
X196208886Y-81220201D01*
X195982043Y-81068629D01*
X195729989Y-80964225D01*
X195462411Y-80911000D01*
X195189589Y-80911000D01*
X194922011Y-80964225D01*
X194669957Y-81068629D01*
X194443114Y-81220201D01*
X194250201Y-81413114D01*
X194199806Y-81488535D01*
X194106552Y-81497720D01*
X193953867Y-81544037D01*
X193813151Y-81619251D01*
X193689812Y-81720472D01*
X193664445Y-81751382D01*
X191389828Y-84026000D01*
X188253788Y-84026000D01*
X188214000Y-84022081D01*
X188174212Y-84026000D01*
X188174209Y-84026000D01*
X188055212Y-84037720D01*
X187902527Y-84084037D01*
X187837024Y-84119049D01*
X187761810Y-84159251D01*
X187736580Y-84179957D01*
X187638472Y-84260472D01*
X187613107Y-84291380D01*
X182589388Y-89315100D01*
X182558472Y-89340472D01*
X182503054Y-89408000D01*
X182457251Y-89463811D01*
X182431488Y-89512011D01*
X182382037Y-89604528D01*
X182335720Y-89757213D01*
X182325578Y-89860189D01*
X182320081Y-89916000D01*
X182324000Y-89955788D01*
X182324001Y-92441928D01*
X182234000Y-92441928D01*
X182109518Y-92454188D01*
X181989820Y-92490498D01*
X181879506Y-92549463D01*
X181782815Y-92628815D01*
X181703463Y-92725506D01*
X181644498Y-92835820D01*
X181608188Y-92955518D01*
X181595928Y-93080000D01*
X181595928Y-94880000D01*
X181608188Y-95004482D01*
X181644498Y-95124180D01*
X181703463Y-95234494D01*
X181782815Y-95331185D01*
X181879506Y-95410537D01*
X181989820Y-95469502D01*
X182109518Y-95505812D01*
X182234000Y-95518072D01*
X184034000Y-95518072D01*
X184158482Y-95505812D01*
X184278180Y-95469502D01*
X184388494Y-95410537D01*
X184485185Y-95331185D01*
X184564537Y-95234494D01*
X184623502Y-95124180D01*
X184629056Y-95105873D01*
X184695495Y-95172312D01*
X184946905Y-95340299D01*
X185226257Y-95456011D01*
X185522816Y-95515000D01*
X185825184Y-95515000D01*
X186121743Y-95456011D01*
X186401095Y-95340299D01*
X186652505Y-95172312D01*
X186866312Y-94958505D01*
X186944000Y-94842237D01*
X187021688Y-94958505D01*
X187235495Y-95172312D01*
X187486905Y-95340299D01*
X187766257Y-95456011D01*
X188062816Y-95515000D01*
X188365184Y-95515000D01*
X188661743Y-95456011D01*
X188941095Y-95340299D01*
X189192505Y-95172312D01*
X189406312Y-94958505D01*
X189484000Y-94842237D01*
X189561688Y-94958505D01*
X189775495Y-95172312D01*
X190026905Y-95340299D01*
X190306257Y-95456011D01*
X190602816Y-95515000D01*
X190905184Y-95515000D01*
X191201743Y-95456011D01*
X191481095Y-95340299D01*
X191732505Y-95172312D01*
X191946312Y-94958505D01*
X192024000Y-94842237D01*
X192101688Y-94958505D01*
X192315495Y-95172312D01*
X192566905Y-95340299D01*
X192846257Y-95456011D01*
X193142816Y-95515000D01*
X193445184Y-95515000D01*
X193741743Y-95456011D01*
X194021095Y-95340299D01*
X194272505Y-95172312D01*
X194486312Y-94958505D01*
X194564000Y-94842237D01*
X194641688Y-94958505D01*
X194855495Y-95172312D01*
X195106905Y-95340299D01*
X195386257Y-95456011D01*
X195682816Y-95515000D01*
X195985184Y-95515000D01*
X196281743Y-95456011D01*
X196561095Y-95340299D01*
X196812505Y-95172312D01*
X197026312Y-94958505D01*
X197194299Y-94707095D01*
X197310011Y-94427743D01*
X197369000Y-94131184D01*
X197369000Y-93828816D01*
X197310011Y-93532257D01*
X197194299Y-93252905D01*
X197026312Y-93001495D01*
X196812505Y-92787688D01*
X196561095Y-92619701D01*
X196281743Y-92503989D01*
X195985184Y-92445000D01*
X195682816Y-92445000D01*
X195386257Y-92503989D01*
X195106905Y-92619701D01*
X194866000Y-92780669D01*
X194866000Y-91013512D01*
X198405614Y-87473898D01*
X198491589Y-87491000D01*
X198764411Y-87491000D01*
X199031989Y-87437775D01*
X199284043Y-87333371D01*
X199342000Y-87294645D01*
X199342000Y-98216487D01*
X192500386Y-105058102D01*
X192414411Y-105041000D01*
X192141589Y-105041000D01*
X191874011Y-105094225D01*
X191621957Y-105198629D01*
X191395114Y-105350201D01*
X191202201Y-105543114D01*
X191050629Y-105769957D01*
X190946225Y-106022011D01*
X190893000Y-106289589D01*
X190893000Y-106562411D01*
X190946225Y-106829989D01*
X191050629Y-107082043D01*
X191202201Y-107308886D01*
X191395114Y-107501799D01*
X191621957Y-107653371D01*
X191874011Y-107757775D01*
X192141589Y-107811000D01*
X192414411Y-107811000D01*
X192681989Y-107757775D01*
X192934043Y-107653371D01*
X193160886Y-107501799D01*
X193353799Y-107308886D01*
X193505371Y-107082043D01*
X193609775Y-106829989D01*
X193663000Y-106562411D01*
X193663000Y-106289589D01*
X193645898Y-106203614D01*
X200696620Y-99152893D01*
X200727528Y-99127528D01*
X200828749Y-99004189D01*
X200829638Y-99002526D01*
X200903963Y-98863474D01*
X200950280Y-98710788D01*
X200965919Y-98552000D01*
X200962000Y-98512209D01*
X200962000Y-74461791D01*
X200965919Y-74422000D01*
X200950280Y-74263212D01*
X200903963Y-74110527D01*
X200828749Y-73969811D01*
X200727528Y-73846472D01*
X200604189Y-73745251D01*
X200463473Y-73670037D01*
X200310788Y-73623720D01*
X200191791Y-73612000D01*
X200152000Y-73608081D01*
X200112209Y-73612000D01*
X189819513Y-73612000D01*
X188931899Y-72724387D01*
X188906528Y-72693472D01*
X188783189Y-72592251D01*
X188642473Y-72517037D01*
X188489788Y-72470720D01*
X188370791Y-72459000D01*
X188370788Y-72459000D01*
X188331000Y-72455081D01*
X188291212Y-72459000D01*
X183770787Y-72459000D01*
X183730999Y-72455081D01*
X183691211Y-72459000D01*
X183691209Y-72459000D01*
X183572212Y-72470720D01*
X183419527Y-72517037D01*
X183354024Y-72552049D01*
X183278810Y-72592251D01*
X183223210Y-72637881D01*
X183155472Y-72693472D01*
X183130105Y-72724382D01*
X182064488Y-73790000D01*
X176731629Y-73790000D01*
X176559608Y-73580392D01*
X176341101Y-73401068D01*
X176091808Y-73267818D01*
X175821309Y-73185764D01*
X175610492Y-73165000D01*
X175469508Y-73165000D01*
X175258691Y-73185764D01*
X174988192Y-73267818D01*
X174738899Y-73401068D01*
X174520392Y-73580392D01*
X174341068Y-73798899D01*
X174207818Y-74048192D01*
X174150000Y-74238795D01*
X174092182Y-74048192D01*
X173958932Y-73798899D01*
X173779608Y-73580392D01*
X173561101Y-73401068D01*
X173311808Y-73267818D01*
X173041309Y-73185764D01*
X172830492Y-73165000D01*
X172689508Y-73165000D01*
X172478691Y-73185764D01*
X172208192Y-73267818D01*
X171958899Y-73401068D01*
X171740392Y-73580392D01*
X171561068Y-73798899D01*
X171427818Y-74048192D01*
X171345764Y-74318691D01*
X171318057Y-74600000D01*
X164035000Y-74600000D01*
X164035000Y-74458665D01*
X163979853Y-74181426D01*
X163871680Y-73920273D01*
X163714637Y-73685241D01*
X163514759Y-73485363D01*
X163279727Y-73328320D01*
X163018574Y-73220147D01*
X162741335Y-73165000D01*
X162458665Y-73165000D01*
X162181426Y-73220147D01*
X161920273Y-73328320D01*
X161685241Y-73485363D01*
X161485363Y-73685241D01*
X161328320Y-73920273D01*
X161220147Y-74181426D01*
X161165000Y-74458665D01*
X159220271Y-74458665D01*
X156807803Y-72046197D01*
X156788557Y-72030403D01*
X156766601Y-72018667D01*
X156742776Y-72011440D01*
X156718000Y-72009000D01*
X142494000Y-72009000D01*
X142469224Y-72011440D01*
X142445399Y-72018667D01*
X142423443Y-72030403D01*
X142404197Y-72046197D01*
X135292197Y-79158197D01*
X135276403Y-79177443D01*
X135264667Y-79199399D01*
X135257440Y-79223224D01*
X135255000Y-79248000D01*
X134289000Y-79248000D01*
X134289000Y-71685000D01*
X213748909Y-71685000D01*
X220015000Y-80152691D01*
X220015000Y-80152691D01*
G37*
X220015000Y-80152691D02*
X220015000Y-95171487D01*
X209705099Y-84861586D01*
X209863799Y-84702886D01*
X210015371Y-84476043D01*
X210119775Y-84223989D01*
X210173000Y-83956411D01*
X210173000Y-83683589D01*
X210119775Y-83416011D01*
X210015371Y-83163957D01*
X209863799Y-82937114D01*
X209670886Y-82744201D01*
X209444043Y-82592629D01*
X209191989Y-82488225D01*
X208924411Y-82435000D01*
X208651589Y-82435000D01*
X208384011Y-82488225D01*
X208131957Y-82592629D01*
X207905114Y-82744201D01*
X207712201Y-82937114D01*
X207560629Y-83163957D01*
X207456225Y-83416011D01*
X207403000Y-83683589D01*
X207403000Y-83956411D01*
X207456225Y-84223989D01*
X207560629Y-84476043D01*
X207712201Y-84702886D01*
X207905114Y-84895799D01*
X207978001Y-84944501D01*
X207978001Y-85050202D01*
X207974081Y-85090000D01*
X207980166Y-85151775D01*
X207989721Y-85248788D01*
X208021649Y-85354038D01*
X208036038Y-85401473D01*
X208111251Y-85542189D01*
X208166852Y-85609939D01*
X208212473Y-85665528D01*
X208243383Y-85690895D01*
X218900000Y-96347513D01*
X218900000Y-97612487D01*
X211630000Y-90342488D01*
X211630000Y-90209787D01*
X211633919Y-90169999D01*
X211630000Y-90130209D01*
X211618280Y-90011212D01*
X211571963Y-89858527D01*
X211496749Y-89717811D01*
X211395528Y-89594472D01*
X211364619Y-89569106D01*
X207058000Y-85262488D01*
X207058000Y-81896500D01*
X207130886Y-81847799D01*
X207323799Y-81654886D01*
X207475371Y-81428043D01*
X207579775Y-81175989D01*
X207633000Y-80908411D01*
X207633000Y-80635589D01*
X207579775Y-80368011D01*
X207475371Y-80115957D01*
X207323799Y-79889114D01*
X207130886Y-79696201D01*
X206904043Y-79544629D01*
X206651989Y-79440225D01*
X206384411Y-79387000D01*
X206111589Y-79387000D01*
X205844011Y-79440225D01*
X205591957Y-79544629D01*
X205365114Y-79696201D01*
X205172201Y-79889114D01*
X205026000Y-80107919D01*
X205026000Y-80019512D01*
X205932205Y-79113308D01*
X205965788Y-79110000D01*
X205965791Y-79110000D01*
X206084788Y-79098280D01*
X206237473Y-79051963D01*
X206378189Y-78976749D01*
X206501528Y-78875528D01*
X206526899Y-78844613D01*
X207756148Y-77615364D01*
X207955508Y-77635000D01*
X208096492Y-77635000D01*
X208307309Y-77614236D01*
X208577808Y-77532182D01*
X208827101Y-77398932D01*
X209045608Y-77219608D01*
X209224932Y-77001101D01*
X209358182Y-76751808D01*
X209440236Y-76481309D01*
X209467943Y-76200000D01*
X209440236Y-75918691D01*
X209358182Y-75648192D01*
X209224932Y-75398899D01*
X209045608Y-75180392D01*
X208827101Y-75001068D01*
X208577808Y-74867818D01*
X208307309Y-74785764D01*
X208096492Y-74765000D01*
X207955508Y-74765000D01*
X207744691Y-74785764D01*
X207474192Y-74867818D01*
X207224899Y-75001068D01*
X207006392Y-75180392D01*
X206827068Y-75398899D01*
X206693818Y-75648192D01*
X206611764Y-75918691D01*
X206584057Y-76200000D01*
X206610636Y-76469852D01*
X205593796Y-77486692D01*
X205441212Y-77501720D01*
X205288526Y-77548037D01*
X205229003Y-77579853D01*
X205147811Y-77623251D01*
X205024472Y-77724472D01*
X204999107Y-77755380D01*
X203671383Y-79083105D01*
X203640473Y-79108472D01*
X203615108Y-79139380D01*
X203539251Y-79231811D01*
X203494504Y-79315528D01*
X203464038Y-79372527D01*
X203448281Y-79424472D01*
X203417721Y-79525213D01*
X203402081Y-79684000D01*
X203406001Y-79723798D01*
X203406000Y-104312487D01*
X200882386Y-106836102D01*
X200796411Y-106819000D01*
X200523589Y-106819000D01*
X200256011Y-106872225D01*
X200003957Y-106976629D01*
X199777114Y-107128201D01*
X199584201Y-107321114D01*
X199432629Y-107547957D01*
X199328225Y-107800011D01*
X199275000Y-108067589D01*
X199275000Y-108340411D01*
X199328225Y-108607989D01*
X199432629Y-108860043D01*
X199584201Y-109086886D01*
X199777114Y-109279799D01*
X200003957Y-109431371D01*
X200256011Y-109535775D01*
X200523589Y-109589000D01*
X200796411Y-109589000D01*
X201063989Y-109535775D01*
X201316043Y-109431371D01*
X201542886Y-109279799D01*
X201735799Y-109086886D01*
X201887371Y-108860043D01*
X201991775Y-108607989D01*
X202045000Y-108340411D01*
X202045000Y-108067589D01*
X202027898Y-107981614D01*
X204599512Y-105410000D01*
X205060057Y-105410000D01*
X205087764Y-105691309D01*
X205169818Y-105961808D01*
X205303068Y-106211101D01*
X205482392Y-106429608D01*
X205700899Y-106608932D01*
X205950192Y-106742182D01*
X206220691Y-106824236D01*
X206431508Y-106845000D01*
X206572492Y-106845000D01*
X206783309Y-106824236D01*
X207053808Y-106742182D01*
X207303101Y-106608932D01*
X207521608Y-106429608D01*
X207700932Y-106211101D01*
X207834182Y-105961808D01*
X207916236Y-105691309D01*
X207943943Y-105410000D01*
X207916236Y-105128691D01*
X207834182Y-104858192D01*
X207700932Y-104608899D01*
X207521608Y-104390392D01*
X207303101Y-104211068D01*
X207053808Y-104077818D01*
X206783309Y-103995764D01*
X206572492Y-103975000D01*
X206431508Y-103975000D01*
X206220691Y-103995764D01*
X205950192Y-104077818D01*
X205700899Y-104211068D01*
X205482392Y-104390392D01*
X205303068Y-104608899D01*
X205169818Y-104858192D01*
X205087764Y-105128691D01*
X205060057Y-105410000D01*
X204599512Y-105410000D01*
X204760619Y-105248894D01*
X204791528Y-105223528D01*
X204892749Y-105100189D01*
X204967963Y-104959473D01*
X205014280Y-104806788D01*
X205026000Y-104687791D01*
X205026000Y-104687789D01*
X205029919Y-104648001D01*
X205026000Y-104608213D01*
X205026000Y-99568000D01*
X205060057Y-99568000D01*
X205087764Y-99849309D01*
X205169818Y-100119808D01*
X205303068Y-100369101D01*
X205482392Y-100587608D01*
X205700899Y-100766932D01*
X205950192Y-100900182D01*
X206220691Y-100982236D01*
X206431508Y-101003000D01*
X206572492Y-101003000D01*
X206783309Y-100982236D01*
X207053808Y-100900182D01*
X207303101Y-100766932D01*
X207521608Y-100587608D01*
X207700932Y-100369101D01*
X207834182Y-100119808D01*
X207916236Y-99849309D01*
X207943943Y-99568000D01*
X207916236Y-99286691D01*
X207834182Y-99016192D01*
X207700932Y-98766899D01*
X207521608Y-98548392D01*
X207303101Y-98369068D01*
X207053808Y-98235818D01*
X206783309Y-98153764D01*
X206572492Y-98133000D01*
X206431508Y-98133000D01*
X206220691Y-98153764D01*
X205950192Y-98235818D01*
X205700899Y-98369068D01*
X205482392Y-98548392D01*
X205303068Y-98766899D01*
X205169818Y-99016192D01*
X205087764Y-99286691D01*
X205060057Y-99568000D01*
X205026000Y-99568000D01*
X205026000Y-81436081D01*
X205172201Y-81654886D01*
X205365114Y-81847799D01*
X205438000Y-81896500D01*
X205438001Y-85558202D01*
X205434081Y-85598000D01*
X205449721Y-85756787D01*
X205496038Y-85909473D01*
X205571251Y-86050189D01*
X205617055Y-86106001D01*
X205672473Y-86173528D01*
X205703383Y-86198895D01*
X210010000Y-90505513D01*
X210010000Y-90638209D01*
X210006081Y-90678000D01*
X210010000Y-90717788D01*
X210010000Y-90717791D01*
X210021720Y-90836788D01*
X210068037Y-90989473D01*
X210088210Y-91027213D01*
X210143251Y-91130189D01*
X210198852Y-91197939D01*
X210244473Y-91253528D01*
X210275383Y-91278895D01*
X217258216Y-98261728D01*
X217080574Y-98188147D01*
X216803335Y-98133000D01*
X216520665Y-98133000D01*
X216397093Y-98157580D01*
X209085442Y-90845930D01*
X209078280Y-90773212D01*
X209031963Y-90620527D01*
X208972485Y-90509251D01*
X208956749Y-90479810D01*
X208919184Y-90434038D01*
X208855528Y-90356472D01*
X208824614Y-90331102D01*
X208631898Y-90138386D01*
X208649000Y-90052411D01*
X208649000Y-89779589D01*
X208595775Y-89512011D01*
X208491371Y-89259957D01*
X208339799Y-89033114D01*
X208146886Y-88840201D01*
X207920043Y-88688629D01*
X207667989Y-88584225D01*
X207400411Y-88531000D01*
X207127589Y-88531000D01*
X206860011Y-88584225D01*
X206607957Y-88688629D01*
X206381114Y-88840201D01*
X206188201Y-89033114D01*
X206036629Y-89259957D01*
X205932225Y-89512011D01*
X205879000Y-89779589D01*
X205879000Y-90052411D01*
X205932225Y-90319989D01*
X206036629Y-90572043D01*
X206188201Y-90798886D01*
X206381114Y-90991799D01*
X206607957Y-91143371D01*
X206860011Y-91247775D01*
X207127589Y-91301000D01*
X207400411Y-91301000D01*
X207475928Y-91285979D01*
X207481720Y-91344788D01*
X207528037Y-91497473D01*
X207603251Y-91638189D01*
X207704472Y-91761528D01*
X207735386Y-91786898D01*
X215251580Y-99303093D01*
X215227000Y-99426665D01*
X215227000Y-99709335D01*
X215282147Y-99986574D01*
X215390320Y-100247727D01*
X215547363Y-100482759D01*
X215747241Y-100682637D01*
X215982273Y-100839680D01*
X216243426Y-100947853D01*
X216520665Y-101003000D01*
X216803335Y-101003000D01*
X217080574Y-100947853D01*
X217341727Y-100839680D01*
X217576759Y-100682637D01*
X217776637Y-100482759D01*
X217884000Y-100322078D01*
X217884000Y-104655922D01*
X217776637Y-104495241D01*
X217576759Y-104295363D01*
X217341727Y-104138320D01*
X217080574Y-104030147D01*
X216803335Y-103975000D01*
X216520665Y-103975000D01*
X216243426Y-104030147D01*
X215982273Y-104138320D01*
X215747241Y-104295363D01*
X215547363Y-104495241D01*
X215390320Y-104730273D01*
X215282147Y-104991426D01*
X215227000Y-105268665D01*
X215227000Y-105551335D01*
X215282147Y-105828574D01*
X215390320Y-106089727D01*
X215547363Y-106324759D01*
X215747241Y-106524637D01*
X215982273Y-106681680D01*
X216243426Y-106789853D01*
X216520665Y-106845000D01*
X216803335Y-106845000D01*
X217080574Y-106789853D01*
X217341727Y-106681680D01*
X217576759Y-106524637D01*
X217776637Y-106324759D01*
X217884001Y-106164078D01*
X217884001Y-110662486D01*
X216931852Y-111614636D01*
X216732492Y-111595000D01*
X216591508Y-111595000D01*
X216380691Y-111615764D01*
X216110192Y-111697818D01*
X215860899Y-111831068D01*
X215642392Y-112010392D01*
X215463068Y-112228899D01*
X215329818Y-112478192D01*
X215247764Y-112748691D01*
X215220057Y-113030000D01*
X215247764Y-113311309D01*
X215329818Y-113581808D01*
X215463068Y-113831101D01*
X215642392Y-114049608D01*
X215860899Y-114228932D01*
X216110192Y-114362182D01*
X216380691Y-114444236D01*
X216591508Y-114465000D01*
X216732492Y-114465000D01*
X216943309Y-114444236D01*
X217213808Y-114362182D01*
X217463101Y-114228932D01*
X217681608Y-114049608D01*
X217860932Y-113831101D01*
X217994182Y-113581808D01*
X218076236Y-113311309D01*
X218103943Y-113030000D01*
X218077364Y-112760148D01*
X218900001Y-111937512D01*
X218900001Y-114726486D01*
X218403384Y-115223104D01*
X218403379Y-115223108D01*
X217088488Y-116538000D01*
X209718635Y-116538000D01*
X209648637Y-116433241D01*
X209448759Y-116233363D01*
X209213727Y-116076320D01*
X208952574Y-115968147D01*
X208675335Y-115913000D01*
X208392665Y-115913000D01*
X208115426Y-115968147D01*
X207854273Y-116076320D01*
X207619241Y-116233363D01*
X207419363Y-116433241D01*
X207262320Y-116668273D01*
X207154147Y-116929426D01*
X207099000Y-117206665D01*
X207099000Y-117489335D01*
X207154147Y-117766574D01*
X207262320Y-118027727D01*
X207419363Y-118262759D01*
X207619241Y-118462637D01*
X207854273Y-118619680D01*
X208115426Y-118727853D01*
X208392665Y-118783000D01*
X208675335Y-118783000D01*
X208952574Y-118727853D01*
X209213727Y-118619680D01*
X209448759Y-118462637D01*
X209648637Y-118262759D01*
X209718635Y-118158000D01*
X217384212Y-118158000D01*
X217424000Y-118161919D01*
X217463788Y-118158000D01*
X217463791Y-118158000D01*
X217582788Y-118146280D01*
X217735473Y-118099963D01*
X217876189Y-118024749D01*
X217999528Y-117923528D01*
X218024899Y-117892613D01*
X219548892Y-116368621D01*
X219548896Y-116368616D01*
X220015001Y-115902512D01*
X220015001Y-123250000D01*
X181738810Y-123250000D01*
X181738810Y-127715000D01*
X139260366Y-127715000D01*
X134289000Y-115403234D01*
X134289000Y-107544890D01*
X134702524Y-107544890D01*
X134747175Y-107692099D01*
X134872359Y-107954920D01*
X135046412Y-108188269D01*
X135262645Y-108383178D01*
X135512748Y-108532157D01*
X135787109Y-108629481D01*
X136017000Y-108508814D01*
X136017000Y-107315000D01*
X136271000Y-107315000D01*
X136271000Y-108508814D01*
X136500891Y-108629481D01*
X136775252Y-108532157D01*
X137025355Y-108383178D01*
X137241588Y-108188269D01*
X137415641Y-107954920D01*
X137540825Y-107692099D01*
X137585476Y-107544890D01*
X137464155Y-107315000D01*
X136271000Y-107315000D01*
X136017000Y-107315000D01*
X134823845Y-107315000D01*
X134702524Y-107544890D01*
X134289000Y-107544890D01*
X134289000Y-103798000D01*
X134655928Y-103798000D01*
X134655928Y-105498000D01*
X134668188Y-105622482D01*
X134704498Y-105742180D01*
X134763463Y-105852494D01*
X134842815Y-105949185D01*
X134939506Y-106028537D01*
X135049820Y-106087502D01*
X135130466Y-106111966D01*
X135046412Y-106187731D01*
X134872359Y-106421080D01*
X134747175Y-106683901D01*
X134702524Y-106831110D01*
X134823845Y-107061000D01*
X136017000Y-107061000D01*
X136017000Y-107041000D01*
X136271000Y-107041000D01*
X136271000Y-107061000D01*
X137464155Y-107061000D01*
X137585476Y-106831110D01*
X137540825Y-106683901D01*
X137415641Y-106421080D01*
X137241588Y-106187731D01*
X137157534Y-106111966D01*
X137238180Y-106087502D01*
X137348494Y-106028537D01*
X137445185Y-105949185D01*
X137469746Y-105919258D01*
X138636000Y-107085513D01*
X138636001Y-120306202D01*
X138632081Y-120346000D01*
X138646305Y-120490410D01*
X138647721Y-120504788D01*
X138677210Y-120602000D01*
X138694038Y-120657473D01*
X138769251Y-120798189D01*
X138824852Y-120865939D01*
X138870473Y-120921528D01*
X138901383Y-120946895D01*
X144099105Y-126144618D01*
X144124472Y-126175528D01*
X144192210Y-126231119D01*
X144247810Y-126276749D01*
X144302390Y-126305922D01*
X144388527Y-126351963D01*
X144541212Y-126398280D01*
X144660209Y-126410000D01*
X144660211Y-126410000D01*
X144699999Y-126413919D01*
X144739787Y-126410000D01*
X160334962Y-126410000D01*
X160360498Y-126494180D01*
X160419463Y-126604494D01*
X160498815Y-126701185D01*
X160595506Y-126780537D01*
X160705820Y-126839502D01*
X160825518Y-126875812D01*
X160950000Y-126888072D01*
X162250000Y-126888072D01*
X162374482Y-126875812D01*
X162494180Y-126839502D01*
X162604494Y-126780537D01*
X162701185Y-126701185D01*
X162780537Y-126604494D01*
X162839502Y-126494180D01*
X162842126Y-126485527D01*
X163434078Y-126485527D01*
X163487466Y-126714201D01*
X163717374Y-126820095D01*
X163963524Y-126879102D01*
X164216455Y-126888952D01*
X164466449Y-126849270D01*
X164703896Y-126761578D01*
X164792534Y-126714201D01*
X164845922Y-126485527D01*
X164140000Y-125779605D01*
X163434078Y-126485527D01*
X162842126Y-126485527D01*
X162875812Y-126374482D01*
X162888072Y-126250000D01*
X162888072Y-125909704D01*
X162890730Y-125926449D01*
X162978422Y-126163896D01*
X163025799Y-126252534D01*
X163254473Y-126305922D01*
X163960395Y-125600000D01*
X164319605Y-125600000D01*
X165025527Y-126305922D01*
X165254201Y-126252534D01*
X165360095Y-126022626D01*
X165419102Y-125776476D01*
X165428952Y-125523545D01*
X165389270Y-125273551D01*
X165301578Y-125036104D01*
X165254201Y-124947466D01*
X165025527Y-124894078D01*
X164319605Y-125600000D01*
X163960395Y-125600000D01*
X163946253Y-125585858D01*
X164125858Y-125406253D01*
X164140000Y-125420395D01*
X164845922Y-124714473D01*
X164792534Y-124485799D01*
X164562626Y-124379905D01*
X164316476Y-124320898D01*
X164155000Y-124314610D01*
X164155000Y-124206000D01*
X168230057Y-124206000D01*
X168257764Y-124487309D01*
X168339818Y-124757808D01*
X168473068Y-125007101D01*
X168652392Y-125225608D01*
X168870899Y-125404932D01*
X169120192Y-125538182D01*
X169390691Y-125620236D01*
X169601508Y-125641000D01*
X169742492Y-125641000D01*
X169953309Y-125620236D01*
X170223808Y-125538182D01*
X170473101Y-125404932D01*
X170691608Y-125225608D01*
X170870932Y-125007101D01*
X171004182Y-124757808D01*
X171086236Y-124487309D01*
X171113943Y-124206000D01*
X171086236Y-123924691D01*
X171004182Y-123654192D01*
X170870932Y-123404899D01*
X170691608Y-123186392D01*
X170473101Y-123007068D01*
X170223808Y-122873818D01*
X169953309Y-122791764D01*
X169742492Y-122771000D01*
X169601508Y-122771000D01*
X169390691Y-122791764D01*
X169120192Y-122873818D01*
X168870899Y-123007068D01*
X168652392Y-123186392D01*
X168473068Y-123404899D01*
X168339818Y-123654192D01*
X168257764Y-123924691D01*
X168230057Y-124206000D01*
X164155000Y-124206000D01*
X164155000Y-124203439D01*
X164105619Y-123955179D01*
X164008753Y-123721324D01*
X163868125Y-123510860D01*
X163689140Y-123331875D01*
X163478676Y-123191247D01*
X163244821Y-123094381D01*
X162996561Y-123045000D01*
X162743439Y-123045000D01*
X162732657Y-123047145D01*
X162584899Y-122899387D01*
X162559528Y-122868472D01*
X162436189Y-122767251D01*
X162295473Y-122692037D01*
X162142788Y-122645720D01*
X162023791Y-122634000D01*
X162023788Y-122634000D01*
X161984000Y-122630081D01*
X161944212Y-122634000D01*
X158143173Y-122634000D01*
X157987987Y-122401748D01*
X157760252Y-122174013D01*
X157492463Y-121995082D01*
X157194912Y-121871832D01*
X156879033Y-121809000D01*
X156556967Y-121809000D01*
X156241088Y-121871832D01*
X155943537Y-121995082D01*
X155675748Y-122174013D01*
X155448013Y-122401748D01*
X155269082Y-122669537D01*
X155145832Y-122967088D01*
X155083000Y-123282967D01*
X155083000Y-123605033D01*
X155145832Y-123920912D01*
X155269082Y-124218463D01*
X155448013Y-124486252D01*
X155675748Y-124713987D01*
X155789509Y-124790000D01*
X150097535Y-124790000D01*
X150173808Y-124579413D01*
X149218000Y-123623605D01*
X148262192Y-124579413D01*
X148338465Y-124790000D01*
X145035513Y-124790000D01*
X143752108Y-123506595D01*
X147576282Y-123506595D01*
X147620039Y-123825675D01*
X147725205Y-124130088D01*
X147818186Y-124304044D01*
X148082587Y-124399808D01*
X149038395Y-123444000D01*
X149397605Y-123444000D01*
X150353413Y-124399808D01*
X150617814Y-124304044D01*
X150758704Y-124014429D01*
X150840384Y-123702892D01*
X150859718Y-123381405D01*
X150815961Y-123062325D01*
X150710795Y-122757912D01*
X150617814Y-122583956D01*
X150353413Y-122488192D01*
X149397605Y-123444000D01*
X149038395Y-123444000D01*
X148082587Y-122488192D01*
X147818186Y-122583956D01*
X147677296Y-122873571D01*
X147595616Y-123185108D01*
X147576282Y-123506595D01*
X143752108Y-123506595D01*
X142554100Y-122308587D01*
X148262192Y-122308587D01*
X149218000Y-123264395D01*
X150173808Y-122308587D01*
X150078044Y-122044186D01*
X149788429Y-121903296D01*
X149476892Y-121821616D01*
X149155405Y-121802282D01*
X148836325Y-121846039D01*
X148531912Y-121951205D01*
X148357956Y-122044186D01*
X148262192Y-122308587D01*
X142554100Y-122308587D01*
X140256000Y-120010488D01*
X140256000Y-117968665D01*
X159347000Y-117968665D01*
X159347000Y-118251335D01*
X159402147Y-118528574D01*
X159510320Y-118789727D01*
X159667363Y-119024759D01*
X159867241Y-119224637D01*
X160102273Y-119381680D01*
X160363426Y-119489853D01*
X160640665Y-119545000D01*
X160923335Y-119545000D01*
X161046907Y-119520420D01*
X163483105Y-121956618D01*
X163508472Y-121987528D01*
X163576210Y-122043119D01*
X163631810Y-122088749D01*
X163692923Y-122121414D01*
X163772527Y-122163963D01*
X163925212Y-122210280D01*
X164044209Y-122222000D01*
X164044211Y-122222000D01*
X164083999Y-122225919D01*
X164123787Y-122222000D01*
X176702488Y-122222000D01*
X178421580Y-123941093D01*
X178397000Y-124064665D01*
X178397000Y-124347335D01*
X178452147Y-124624574D01*
X178560320Y-124885727D01*
X178717363Y-125120759D01*
X178917241Y-125320637D01*
X179152273Y-125477680D01*
X179413426Y-125585853D01*
X179690665Y-125641000D01*
X179973335Y-125641000D01*
X180250574Y-125585853D01*
X180511727Y-125477680D01*
X180746759Y-125320637D01*
X180946637Y-125120759D01*
X181103680Y-124885727D01*
X181211853Y-124624574D01*
X181267000Y-124347335D01*
X181267000Y-124064665D01*
X181211853Y-123787426D01*
X181103680Y-123526273D01*
X180946637Y-123291241D01*
X180746759Y-123091363D01*
X180511727Y-122934320D01*
X180250574Y-122826147D01*
X179973335Y-122771000D01*
X179690665Y-122771000D01*
X179567093Y-122795580D01*
X177788178Y-121016665D01*
X185509000Y-121016665D01*
X185509000Y-121299335D01*
X185564147Y-121576574D01*
X185672320Y-121837727D01*
X185829363Y-122072759D01*
X186029241Y-122272637D01*
X186264273Y-122429680D01*
X186525426Y-122537853D01*
X186802665Y-122593000D01*
X187085335Y-122593000D01*
X187362574Y-122537853D01*
X187623727Y-122429680D01*
X187858759Y-122272637D01*
X188058637Y-122072759D01*
X188215680Y-121837727D01*
X188323853Y-121576574D01*
X188337684Y-121507039D01*
X195712096Y-121507039D01*
X195752754Y-121641087D01*
X195872963Y-121895420D01*
X196040481Y-122121414D01*
X196248869Y-122310385D01*
X196490119Y-122455070D01*
X196754960Y-122549909D01*
X196977000Y-122428624D01*
X196977000Y-121285000D01*
X197231000Y-121285000D01*
X197231000Y-122428624D01*
X197453040Y-122549909D01*
X197717881Y-122455070D01*
X197959131Y-122310385D01*
X198167519Y-122121414D01*
X198335037Y-121895420D01*
X198455246Y-121641087D01*
X198495904Y-121507039D01*
X198373915Y-121285000D01*
X197231000Y-121285000D01*
X196977000Y-121285000D01*
X195834085Y-121285000D01*
X195712096Y-121507039D01*
X188337684Y-121507039D01*
X188379000Y-121299335D01*
X188379000Y-121016665D01*
X188337685Y-120808961D01*
X195712096Y-120808961D01*
X195834085Y-121031000D01*
X196977000Y-121031000D01*
X196977000Y-119887376D01*
X197231000Y-119887376D01*
X197231000Y-121031000D01*
X198373915Y-121031000D01*
X198495904Y-120808961D01*
X198455246Y-120674913D01*
X198335037Y-120420580D01*
X198167519Y-120194586D01*
X197959131Y-120005615D01*
X197717881Y-119860930D01*
X197453040Y-119766091D01*
X197231000Y-119887376D01*
X196977000Y-119887376D01*
X196754960Y-119766091D01*
X196490119Y-119860930D01*
X196248869Y-120005615D01*
X196040481Y-120194586D01*
X195872963Y-120420580D01*
X195752754Y-120674913D01*
X195712096Y-120808961D01*
X188337685Y-120808961D01*
X188323853Y-120739426D01*
X188215680Y-120478273D01*
X188058637Y-120243241D01*
X187858759Y-120043363D01*
X187623727Y-119886320D01*
X187362574Y-119778147D01*
X187085335Y-119723000D01*
X186802665Y-119723000D01*
X186525426Y-119778147D01*
X186264273Y-119886320D01*
X186029241Y-120043363D01*
X185829363Y-120243241D01*
X185672320Y-120478273D01*
X185564147Y-120739426D01*
X185509000Y-121016665D01*
X177788178Y-121016665D01*
X177638900Y-120867387D01*
X177613528Y-120836472D01*
X177490189Y-120735251D01*
X177349473Y-120660037D01*
X177196788Y-120613720D01*
X177077791Y-120602000D01*
X177077788Y-120602000D01*
X177038000Y-120598081D01*
X176998212Y-120602000D01*
X164419513Y-120602000D01*
X162192420Y-118374907D01*
X162217000Y-118251335D01*
X162217000Y-118110000D01*
X169500057Y-118110000D01*
X169527764Y-118391309D01*
X169609818Y-118661808D01*
X169743068Y-118911101D01*
X169922392Y-119129608D01*
X170140899Y-119308932D01*
X170390192Y-119442182D01*
X170660691Y-119524236D01*
X170871508Y-119545000D01*
X171012492Y-119545000D01*
X171223309Y-119524236D01*
X171493808Y-119442182D01*
X171743101Y-119308932D01*
X171961608Y-119129608D01*
X172140932Y-118911101D01*
X172274182Y-118661808D01*
X172356236Y-118391309D01*
X172383943Y-118110000D01*
X172356236Y-117828691D01*
X172274182Y-117558192D01*
X172140932Y-117308899D01*
X171961608Y-117090392D01*
X171743101Y-116911068D01*
X171493808Y-116777818D01*
X171223309Y-116695764D01*
X171012492Y-116675000D01*
X170871508Y-116675000D01*
X170660691Y-116695764D01*
X170390192Y-116777818D01*
X170140899Y-116911068D01*
X169922392Y-117090392D01*
X169743068Y-117308899D01*
X169609818Y-117558192D01*
X169527764Y-117828691D01*
X169500057Y-118110000D01*
X162217000Y-118110000D01*
X162217000Y-117968665D01*
X162161853Y-117691426D01*
X162053680Y-117430273D01*
X161896637Y-117195241D01*
X161696759Y-116995363D01*
X161461727Y-116838320D01*
X161200574Y-116730147D01*
X160923335Y-116675000D01*
X160640665Y-116675000D01*
X160363426Y-116730147D01*
X160102273Y-116838320D01*
X159867241Y-116995363D01*
X159667363Y-117195241D01*
X159510320Y-117430273D01*
X159402147Y-117691426D01*
X159347000Y-117968665D01*
X140256000Y-117968665D01*
X140256000Y-116705413D01*
X148262192Y-116705413D01*
X148357956Y-116969814D01*
X148647571Y-117110704D01*
X148959108Y-117192384D01*
X149280595Y-117211718D01*
X149599675Y-117167961D01*
X149904088Y-117062795D01*
X150078044Y-116969814D01*
X150173808Y-116705413D01*
X149218000Y-115749605D01*
X148262192Y-116705413D01*
X140256000Y-116705413D01*
X140256000Y-115632595D01*
X147576282Y-115632595D01*
X147620039Y-115951675D01*
X147725205Y-116256088D01*
X147818186Y-116430044D01*
X148082587Y-116525808D01*
X149038395Y-115570000D01*
X149397605Y-115570000D01*
X150353413Y-116525808D01*
X150617814Y-116430044D01*
X150758704Y-116140429D01*
X150840384Y-115828892D01*
X150859718Y-115507405D01*
X150846219Y-115408967D01*
X155083000Y-115408967D01*
X155083000Y-115731033D01*
X155145832Y-116046912D01*
X155269082Y-116344463D01*
X155448013Y-116612252D01*
X155675748Y-116839987D01*
X155943537Y-117018918D01*
X156241088Y-117142168D01*
X156556967Y-117205000D01*
X156879033Y-117205000D01*
X157194912Y-117142168D01*
X157492463Y-117018918D01*
X157760252Y-116839987D01*
X157987987Y-116612252D01*
X158166918Y-116344463D01*
X158290168Y-116046912D01*
X158353000Y-115731033D01*
X158353000Y-115408967D01*
X158290168Y-115093088D01*
X158166918Y-114795537D01*
X157987987Y-114527748D01*
X157760252Y-114300013D01*
X157492463Y-114121082D01*
X157194912Y-113997832D01*
X156879033Y-113935000D01*
X156556967Y-113935000D01*
X156241088Y-113997832D01*
X155943537Y-114121082D01*
X155675748Y-114300013D01*
X155448013Y-114527748D01*
X155269082Y-114795537D01*
X155145832Y-115093088D01*
X155083000Y-115408967D01*
X150846219Y-115408967D01*
X150815961Y-115188325D01*
X150710795Y-114883912D01*
X150617814Y-114709956D01*
X150353413Y-114614192D01*
X149397605Y-115570000D01*
X149038395Y-115570000D01*
X148082587Y-114614192D01*
X147818186Y-114709956D01*
X147677296Y-114999571D01*
X147595616Y-115311108D01*
X147576282Y-115632595D01*
X140256000Y-115632595D01*
X140256000Y-114434587D01*
X148262192Y-114434587D01*
X149218000Y-115390395D01*
X150173808Y-114434587D01*
X150078044Y-114170186D01*
X149788429Y-114029296D01*
X149476892Y-113947616D01*
X149155405Y-113928282D01*
X148836325Y-113972039D01*
X148531912Y-114077205D01*
X148357956Y-114170186D01*
X148262192Y-114434587D01*
X140256000Y-114434587D01*
X140256000Y-111291413D01*
X143316192Y-111291413D01*
X143411956Y-111555814D01*
X143701571Y-111696704D01*
X144013108Y-111778384D01*
X144334595Y-111797718D01*
X144653675Y-111753961D01*
X144958088Y-111648795D01*
X145132044Y-111555814D01*
X145227808Y-111291413D01*
X144272000Y-110335605D01*
X143316192Y-111291413D01*
X140256000Y-111291413D01*
X140256000Y-110218595D01*
X142630282Y-110218595D01*
X142674039Y-110537675D01*
X142779205Y-110842088D01*
X142872186Y-111016044D01*
X143136587Y-111111808D01*
X144092395Y-110156000D01*
X144451605Y-110156000D01*
X145407413Y-111111808D01*
X145671814Y-111016044D01*
X145812704Y-110726429D01*
X145894384Y-110414892D01*
X145913718Y-110093405D01*
X145869961Y-109774325D01*
X145764795Y-109469912D01*
X145671814Y-109295956D01*
X145407413Y-109200192D01*
X144451605Y-110156000D01*
X144092395Y-110156000D01*
X143136587Y-109200192D01*
X142872186Y-109295956D01*
X142731296Y-109585571D01*
X142649616Y-109897108D01*
X142630282Y-110218595D01*
X140256000Y-110218595D01*
X140256000Y-109020587D01*
X143316192Y-109020587D01*
X144272000Y-109976395D01*
X145227808Y-109020587D01*
X145132044Y-108756186D01*
X144842429Y-108615296D01*
X144530892Y-108533616D01*
X144209405Y-108514282D01*
X143890325Y-108558039D01*
X143585912Y-108663205D01*
X143411956Y-108756186D01*
X143316192Y-109020587D01*
X140256000Y-109020587D01*
X140256000Y-106789788D01*
X140259919Y-106750000D01*
X140253190Y-106681680D01*
X140244280Y-106591212D01*
X140197963Y-106438527D01*
X140122750Y-106297812D01*
X140122749Y-106297810D01*
X140070214Y-106233796D01*
X140021528Y-106174472D01*
X139990619Y-106149106D01*
X139299513Y-105458000D01*
X142665040Y-105458000D01*
X142699832Y-105632912D01*
X142823082Y-105930463D01*
X143002013Y-106198252D01*
X143229748Y-106425987D01*
X143497537Y-106604918D01*
X143795088Y-106728168D01*
X144110967Y-106791000D01*
X144433033Y-106791000D01*
X144748912Y-106728168D01*
X145046463Y-106604918D01*
X145314252Y-106425987D01*
X145541987Y-106198252D01*
X145720918Y-105930463D01*
X145844168Y-105632912D01*
X145907000Y-105317033D01*
X145907000Y-104994967D01*
X145844168Y-104679088D01*
X145720918Y-104381537D01*
X145541987Y-104113748D01*
X145314252Y-103886013D01*
X145046463Y-103707082D01*
X144748912Y-103583832D01*
X144433033Y-103521000D01*
X144110967Y-103521000D01*
X143795088Y-103583832D01*
X143497537Y-103707082D01*
X143301604Y-103838000D01*
X137632072Y-103838000D01*
X137632072Y-103798000D01*
X137619812Y-103673518D01*
X137583502Y-103553820D01*
X137524537Y-103443506D01*
X137445185Y-103346815D01*
X137348494Y-103267463D01*
X137238180Y-103208498D01*
X137118482Y-103172188D01*
X136994000Y-103159928D01*
X135294000Y-103159928D01*
X135169518Y-103172188D01*
X135049820Y-103208498D01*
X134939506Y-103267463D01*
X134842815Y-103346815D01*
X134763463Y-103443506D01*
X134704498Y-103553820D01*
X134668188Y-103673518D01*
X134655928Y-103798000D01*
X134289000Y-103798000D01*
X134289000Y-79248000D01*
X135255000Y-79248000D01*
X135255000Y-93472000D01*
X135257440Y-93496776D01*
X135264667Y-93520601D01*
X135276403Y-93542557D01*
X135292197Y-93561803D01*
X142404197Y-100673803D01*
X142423443Y-100689597D01*
X142445399Y-100701333D01*
X142469224Y-100708560D01*
X142494000Y-100711000D01*
X156718000Y-100711000D01*
X156742776Y-100708560D01*
X156766601Y-100701333D01*
X156788557Y-100689597D01*
X156807803Y-100673803D01*
X163919803Y-93561803D01*
X163935597Y-93542557D01*
X163947333Y-93520601D01*
X163954560Y-93496776D01*
X163957000Y-93472000D01*
X163957000Y-79248000D01*
X163954560Y-79223224D01*
X163947333Y-79199399D01*
X163935597Y-79177443D01*
X163919803Y-79158197D01*
X159220271Y-74458665D01*
X161165000Y-74458665D01*
X161165000Y-74741335D01*
X161220147Y-75018574D01*
X161328320Y-75279727D01*
X161485363Y-75514759D01*
X161685241Y-75714637D01*
X161920273Y-75871680D01*
X162181426Y-75979853D01*
X162458665Y-76035000D01*
X162741335Y-76035000D01*
X162864907Y-76010420D01*
X169116001Y-82261514D01*
X169116000Y-101560212D01*
X169112081Y-101600000D01*
X169116000Y-101639788D01*
X169116000Y-101639790D01*
X169127720Y-101758787D01*
X169174037Y-101911472D01*
X169174038Y-101911473D01*
X169249251Y-102052189D01*
X169280703Y-102090513D01*
X169350472Y-102175528D01*
X169381388Y-102200900D01*
X181562001Y-114381514D01*
X181562001Y-114953500D01*
X181489114Y-115002201D01*
X181296201Y-115195114D01*
X181144629Y-115421957D01*
X181040225Y-115674011D01*
X180987000Y-115941589D01*
X180987000Y-116214411D01*
X181040225Y-116481989D01*
X181144629Y-116734043D01*
X181296201Y-116960886D01*
X181449247Y-117113932D01*
X181251989Y-117032225D01*
X180984411Y-116979000D01*
X180711589Y-116979000D01*
X180444011Y-117032225D01*
X180191957Y-117136629D01*
X179965114Y-117288201D01*
X179772201Y-117481114D01*
X179620629Y-117707957D01*
X179516225Y-117960011D01*
X179463000Y-118227589D01*
X179463000Y-118500411D01*
X179516225Y-118767989D01*
X179620629Y-119020043D01*
X179772201Y-119246886D01*
X179965114Y-119439799D01*
X180191957Y-119591371D01*
X180444011Y-119695775D01*
X180711589Y-119749000D01*
X180984411Y-119749000D01*
X181251989Y-119695775D01*
X181504043Y-119591371D01*
X181730886Y-119439799D01*
X181923799Y-119246886D01*
X181972500Y-119174000D01*
X190968212Y-119174000D01*
X191008000Y-119177919D01*
X191047788Y-119174000D01*
X191047791Y-119174000D01*
X191166788Y-119162280D01*
X191319473Y-119115963D01*
X191460189Y-119040749D01*
X191583528Y-118939528D01*
X191608900Y-118908612D01*
X193169512Y-117348000D01*
X196932057Y-117348000D01*
X196959764Y-117629309D01*
X197041818Y-117899808D01*
X197175068Y-118149101D01*
X197354392Y-118367608D01*
X197572899Y-118546932D01*
X197822192Y-118680182D01*
X198092691Y-118762236D01*
X198303508Y-118783000D01*
X198444492Y-118783000D01*
X198655309Y-118762236D01*
X198925808Y-118680182D01*
X199175101Y-118546932D01*
X199393608Y-118367608D01*
X199572932Y-118149101D01*
X199706182Y-117899808D01*
X199788236Y-117629309D01*
X199815943Y-117348000D01*
X199788236Y-117066691D01*
X199706182Y-116796192D01*
X199572932Y-116546899D01*
X199393608Y-116328392D01*
X199175101Y-116149068D01*
X198925808Y-116015818D01*
X198655309Y-115933764D01*
X198444492Y-115913000D01*
X198303508Y-115913000D01*
X198092691Y-115933764D01*
X197822192Y-116015818D01*
X197572899Y-116149068D01*
X197354392Y-116328392D01*
X197175068Y-116546899D01*
X197041818Y-116796192D01*
X196959764Y-117066691D01*
X196932057Y-117348000D01*
X193169512Y-117348000D01*
X197439513Y-113078000D01*
X204684212Y-113078000D01*
X204724000Y-113081919D01*
X204763788Y-113078000D01*
X204763791Y-113078000D01*
X204882788Y-113066280D01*
X204969417Y-113040001D01*
X205067000Y-113040001D01*
X205067000Y-113171335D01*
X205122147Y-113448574D01*
X205230320Y-113709727D01*
X205387363Y-113944759D01*
X205587241Y-114144637D01*
X205822273Y-114301680D01*
X206083426Y-114409853D01*
X206360665Y-114465000D01*
X206643335Y-114465000D01*
X206920574Y-114409853D01*
X207181727Y-114301680D01*
X207416759Y-114144637D01*
X207616637Y-113944759D01*
X207773680Y-113709727D01*
X207881853Y-113448574D01*
X207937000Y-113171335D01*
X207937000Y-112888665D01*
X207881853Y-112611426D01*
X207773680Y-112350273D01*
X207616637Y-112115241D01*
X207416759Y-111915363D01*
X207181727Y-111758320D01*
X206920574Y-111650147D01*
X206643335Y-111595000D01*
X206360665Y-111595000D01*
X206235418Y-111619914D01*
X206154190Y-111553252D01*
X206013474Y-111478038D01*
X205860789Y-111431721D01*
X205741792Y-111420001D01*
X205741789Y-111420001D01*
X205702001Y-111416082D01*
X205662213Y-111420001D01*
X204801787Y-111420001D01*
X204761999Y-111416082D01*
X204722211Y-111420001D01*
X204722208Y-111420001D01*
X204603211Y-111431721D01*
X204516582Y-111458000D01*
X197143788Y-111458000D01*
X197104000Y-111454081D01*
X197064212Y-111458000D01*
X197064209Y-111458000D01*
X196945212Y-111469720D01*
X196792527Y-111516037D01*
X196742794Y-111542620D01*
X196651810Y-111591251D01*
X196587796Y-111643786D01*
X196528472Y-111692472D01*
X196503107Y-111723380D01*
X190672488Y-117554000D01*
X181972500Y-117554000D01*
X181923799Y-117481114D01*
X181770753Y-117328068D01*
X181968011Y-117409775D01*
X182235589Y-117463000D01*
X182508411Y-117463000D01*
X182775989Y-117409775D01*
X183028043Y-117305371D01*
X183254886Y-117153799D01*
X183447799Y-116960886D01*
X183599371Y-116734043D01*
X183703775Y-116481989D01*
X183757000Y-116214411D01*
X183757000Y-115941589D01*
X183703775Y-115674011D01*
X183599371Y-115421957D01*
X183447799Y-115195114D01*
X183254886Y-115002201D01*
X183182000Y-114953500D01*
X183182000Y-114085788D01*
X183185919Y-114046000D01*
X183181175Y-113997832D01*
X183170280Y-113887212D01*
X183123963Y-113734527D01*
X183068569Y-113630892D01*
X183048749Y-113593810D01*
X183003119Y-113538210D01*
X182947528Y-113470472D01*
X182916618Y-113445105D01*
X170736000Y-101264488D01*
X170736000Y-81965791D01*
X170739919Y-81926000D01*
X170724280Y-81767212D01*
X170677963Y-81614526D01*
X170602749Y-81473811D01*
X170565188Y-81428043D01*
X170501528Y-81350472D01*
X170470618Y-81325105D01*
X164010420Y-74864907D01*
X164035000Y-74741335D01*
X164035000Y-74600000D01*
X171318057Y-74600000D01*
X171345764Y-74881309D01*
X171427818Y-75151808D01*
X171561068Y-75401101D01*
X171740392Y-75619608D01*
X171958899Y-75798932D01*
X172208192Y-75932182D01*
X172478691Y-76014236D01*
X172689508Y-76035000D01*
X172830492Y-76035000D01*
X173029852Y-76015364D01*
X177559105Y-80544618D01*
X177584472Y-80575528D01*
X177630392Y-80613213D01*
X177707810Y-80676749D01*
X177772775Y-80711473D01*
X177848527Y-80751963D01*
X178001212Y-80798280D01*
X178120209Y-80810000D01*
X178120211Y-80810000D01*
X178159999Y-80813919D01*
X178199787Y-80810000D01*
X178396037Y-80810000D01*
X178350629Y-80877957D01*
X178246225Y-81130011D01*
X178193000Y-81397589D01*
X178193000Y-81670411D01*
X178246225Y-81937989D01*
X178350629Y-82190043D01*
X178502201Y-82416886D01*
X178695114Y-82609799D01*
X178921957Y-82761371D01*
X179174011Y-82865775D01*
X179441589Y-82919000D01*
X179714411Y-82919000D01*
X179981989Y-82865775D01*
X180234043Y-82761371D01*
X180460886Y-82609799D01*
X180653799Y-82416886D01*
X180702500Y-82344000D01*
X184151190Y-82344000D01*
X184192629Y-82444043D01*
X184344201Y-82670886D01*
X184537114Y-82863799D01*
X184763957Y-83015371D01*
X185016011Y-83119775D01*
X185193423Y-83155065D01*
X173953388Y-94395100D01*
X173922472Y-94420472D01*
X173852703Y-94505487D01*
X173821251Y-94543811D01*
X173801431Y-94580892D01*
X173746037Y-94684528D01*
X173699720Y-94837213D01*
X173688000Y-94956209D01*
X173684081Y-94996000D01*
X173688000Y-95035788D01*
X173688001Y-102068202D01*
X173684081Y-102108000D01*
X173699721Y-102266787D01*
X173746038Y-102419473D01*
X173821251Y-102560189D01*
X173876852Y-102627939D01*
X173922473Y-102683528D01*
X173953383Y-102708895D01*
X179988102Y-108743614D01*
X179971000Y-108829589D01*
X179971000Y-109102411D01*
X180024225Y-109369989D01*
X180128629Y-109622043D01*
X180280201Y-109848886D01*
X180473114Y-110041799D01*
X180699957Y-110193371D01*
X180952011Y-110297775D01*
X181219589Y-110351000D01*
X181492411Y-110351000D01*
X181759989Y-110297775D01*
X182012043Y-110193371D01*
X182238886Y-110041799D01*
X182431799Y-109848886D01*
X182583371Y-109622043D01*
X182687775Y-109369989D01*
X182741000Y-109102411D01*
X182741000Y-108829589D01*
X182687775Y-108562011D01*
X182583371Y-108309957D01*
X182431799Y-108083114D01*
X182238886Y-107890201D01*
X182012043Y-107738629D01*
X181759989Y-107634225D01*
X181492411Y-107581000D01*
X181219589Y-107581000D01*
X181133614Y-107598102D01*
X181092513Y-107557000D01*
X181238411Y-107557000D01*
X181505989Y-107503775D01*
X181758043Y-107399371D01*
X181984886Y-107247799D01*
X182177799Y-107054886D01*
X182329371Y-106828043D01*
X182433775Y-106575989D01*
X182487000Y-106308411D01*
X182487000Y-106035589D01*
X182433775Y-105768011D01*
X182329371Y-105515957D01*
X182177799Y-105289114D01*
X181984886Y-105096201D01*
X181912000Y-105047500D01*
X181912000Y-99353787D01*
X181915919Y-99313999D01*
X181910258Y-99256526D01*
X181900280Y-99155212D01*
X181853963Y-99002527D01*
X181778749Y-98861811D01*
X181677528Y-98738472D01*
X181646619Y-98713106D01*
X179929898Y-96996386D01*
X179947000Y-96910411D01*
X179947000Y-96637589D01*
X179893775Y-96370011D01*
X179789371Y-96117957D01*
X179637799Y-95891114D01*
X179444886Y-95698201D01*
X179218043Y-95546629D01*
X178965989Y-95442225D01*
X178698411Y-95389000D01*
X178425589Y-95389000D01*
X178158011Y-95442225D01*
X177905957Y-95546629D01*
X177679114Y-95698201D01*
X177486201Y-95891114D01*
X177334629Y-96117957D01*
X177230225Y-96370011D01*
X177177000Y-96637589D01*
X177177000Y-96910411D01*
X177230225Y-97177989D01*
X177334629Y-97430043D01*
X177486201Y-97656886D01*
X177679114Y-97849799D01*
X177905957Y-98001371D01*
X178158011Y-98105775D01*
X178425589Y-98159000D01*
X178698411Y-98159000D01*
X178784386Y-98141898D01*
X180292000Y-99649513D01*
X180292001Y-105047499D01*
X180219114Y-105096201D01*
X180026201Y-105289114D01*
X179874629Y-105515957D01*
X179770225Y-105768011D01*
X179717000Y-106035589D01*
X179717000Y-106181487D01*
X175308000Y-101772488D01*
X175308000Y-95331512D01*
X190404050Y-80235463D01*
X190602816Y-80275000D01*
X190905184Y-80275000D01*
X191201743Y-80216011D01*
X191481095Y-80100299D01*
X191732505Y-79932312D01*
X191946312Y-79718505D01*
X192024000Y-79602237D01*
X192101688Y-79718505D01*
X192315495Y-79932312D01*
X192566905Y-80100299D01*
X192846257Y-80216011D01*
X193142816Y-80275000D01*
X193445184Y-80275000D01*
X193741743Y-80216011D01*
X194021095Y-80100299D01*
X194272505Y-79932312D01*
X194486312Y-79718505D01*
X194564000Y-79602237D01*
X194641688Y-79718505D01*
X194855495Y-79932312D01*
X195106905Y-80100299D01*
X195386257Y-80216011D01*
X195682816Y-80275000D01*
X195985184Y-80275000D01*
X196281743Y-80216011D01*
X196561095Y-80100299D01*
X196812505Y-79932312D01*
X197026312Y-79718505D01*
X197194299Y-79467095D01*
X197310011Y-79187743D01*
X197369000Y-78891184D01*
X197369000Y-78588816D01*
X197310011Y-78292257D01*
X197195561Y-78015951D01*
X197601093Y-77610420D01*
X197724665Y-77635000D01*
X198007335Y-77635000D01*
X198284574Y-77579853D01*
X198545727Y-77471680D01*
X198780759Y-77314637D01*
X198980637Y-77114759D01*
X199137680Y-76879727D01*
X199245853Y-76618574D01*
X199301000Y-76341335D01*
X199301000Y-76058665D01*
X199245853Y-75781426D01*
X199137680Y-75520273D01*
X198980637Y-75285241D01*
X198927396Y-75232000D01*
X199342001Y-75232000D01*
X199342001Y-84917355D01*
X199284043Y-84878629D01*
X199031989Y-84774225D01*
X198764411Y-84721000D01*
X198491589Y-84721000D01*
X198224011Y-84774225D01*
X197981000Y-84874883D01*
X197981000Y-84699589D01*
X197927775Y-84432011D01*
X197823371Y-84179957D01*
X197671799Y-83953114D01*
X197478886Y-83760201D01*
X197252043Y-83608629D01*
X196999989Y-83504225D01*
X196732411Y-83451000D01*
X196459589Y-83451000D01*
X196192011Y-83504225D01*
X195939957Y-83608629D01*
X195713114Y-83760201D01*
X195520201Y-83953114D01*
X195368629Y-84179957D01*
X195264225Y-84432011D01*
X195211000Y-84699589D01*
X195211000Y-84972411D01*
X195228102Y-85058386D01*
X193720488Y-86566000D01*
X187745788Y-86566000D01*
X187706000Y-86562081D01*
X187666212Y-86566000D01*
X187666209Y-86566000D01*
X187625504Y-86570009D01*
X188549513Y-85646000D01*
X191685552Y-85646000D01*
X191725340Y-85649919D01*
X191765128Y-85646000D01*
X191765131Y-85646000D01*
X191884128Y-85634280D01*
X192036813Y-85587963D01*
X192177529Y-85512749D01*
X192300868Y-85411528D01*
X192326240Y-85380613D01*
X194389084Y-83317769D01*
X194443114Y-83371799D01*
X194669957Y-83523371D01*
X194922011Y-83627775D01*
X195189589Y-83681000D01*
X195462411Y-83681000D01*
X195729989Y-83627775D01*
X195982043Y-83523371D01*
X196208886Y-83371799D01*
X196401799Y-83178886D01*
X196553371Y-82952043D01*
X196657775Y-82699989D01*
X196711000Y-82432411D01*
X196711000Y-82159589D01*
X196657775Y-81892011D01*
X196553371Y-81639957D01*
X196401799Y-81413114D01*
X196208886Y-81220201D01*
X195982043Y-81068629D01*
X195729989Y-80964225D01*
X195462411Y-80911000D01*
X195189589Y-80911000D01*
X194922011Y-80964225D01*
X194669957Y-81068629D01*
X194443114Y-81220201D01*
X194250201Y-81413114D01*
X194199806Y-81488535D01*
X194106552Y-81497720D01*
X193953867Y-81544037D01*
X193813151Y-81619251D01*
X193689812Y-81720472D01*
X193664445Y-81751382D01*
X191389828Y-84026000D01*
X188253788Y-84026000D01*
X188214000Y-84022081D01*
X188174212Y-84026000D01*
X188174209Y-84026000D01*
X188055212Y-84037720D01*
X187902527Y-84084037D01*
X187837024Y-84119049D01*
X187761810Y-84159251D01*
X187736580Y-84179957D01*
X187638472Y-84260472D01*
X187613107Y-84291380D01*
X182589388Y-89315100D01*
X182558472Y-89340472D01*
X182503054Y-89408000D01*
X182457251Y-89463811D01*
X182431488Y-89512011D01*
X182382037Y-89604528D01*
X182335720Y-89757213D01*
X182325578Y-89860189D01*
X182320081Y-89916000D01*
X182324000Y-89955788D01*
X182324001Y-92441928D01*
X182234000Y-92441928D01*
X182109518Y-92454188D01*
X181989820Y-92490498D01*
X181879506Y-92549463D01*
X181782815Y-92628815D01*
X181703463Y-92725506D01*
X181644498Y-92835820D01*
X181608188Y-92955518D01*
X181595928Y-93080000D01*
X181595928Y-94880000D01*
X181608188Y-95004482D01*
X181644498Y-95124180D01*
X181703463Y-95234494D01*
X181782815Y-95331185D01*
X181879506Y-95410537D01*
X181989820Y-95469502D01*
X182109518Y-95505812D01*
X182234000Y-95518072D01*
X184034000Y-95518072D01*
X184158482Y-95505812D01*
X184278180Y-95469502D01*
X184388494Y-95410537D01*
X184485185Y-95331185D01*
X184564537Y-95234494D01*
X184623502Y-95124180D01*
X184629056Y-95105873D01*
X184695495Y-95172312D01*
X184946905Y-95340299D01*
X185226257Y-95456011D01*
X185522816Y-95515000D01*
X185825184Y-95515000D01*
X186121743Y-95456011D01*
X186401095Y-95340299D01*
X186652505Y-95172312D01*
X186866312Y-94958505D01*
X186944000Y-94842237D01*
X187021688Y-94958505D01*
X187235495Y-95172312D01*
X187486905Y-95340299D01*
X187766257Y-95456011D01*
X188062816Y-95515000D01*
X188365184Y-95515000D01*
X188661743Y-95456011D01*
X188941095Y-95340299D01*
X189192505Y-95172312D01*
X189406312Y-94958505D01*
X189484000Y-94842237D01*
X189561688Y-94958505D01*
X189775495Y-95172312D01*
X190026905Y-95340299D01*
X190306257Y-95456011D01*
X190602816Y-95515000D01*
X190905184Y-95515000D01*
X191201743Y-95456011D01*
X191481095Y-95340299D01*
X191732505Y-95172312D01*
X191946312Y-94958505D01*
X192024000Y-94842237D01*
X192101688Y-94958505D01*
X192315495Y-95172312D01*
X192566905Y-95340299D01*
X192846257Y-95456011D01*
X193142816Y-95515000D01*
X193445184Y-95515000D01*
X193741743Y-95456011D01*
X194021095Y-95340299D01*
X194272505Y-95172312D01*
X194486312Y-94958505D01*
X194564000Y-94842237D01*
X194641688Y-94958505D01*
X194855495Y-95172312D01*
X195106905Y-95340299D01*
X195386257Y-95456011D01*
X195682816Y-95515000D01*
X195985184Y-95515000D01*
X196281743Y-95456011D01*
X196561095Y-95340299D01*
X196812505Y-95172312D01*
X197026312Y-94958505D01*
X197194299Y-94707095D01*
X197310011Y-94427743D01*
X197369000Y-94131184D01*
X197369000Y-93828816D01*
X197310011Y-93532257D01*
X197194299Y-93252905D01*
X197026312Y-93001495D01*
X196812505Y-92787688D01*
X196561095Y-92619701D01*
X196281743Y-92503989D01*
X195985184Y-92445000D01*
X195682816Y-92445000D01*
X195386257Y-92503989D01*
X195106905Y-92619701D01*
X194866000Y-92780669D01*
X194866000Y-91013512D01*
X198405614Y-87473898D01*
X198491589Y-87491000D01*
X198764411Y-87491000D01*
X199031989Y-87437775D01*
X199284043Y-87333371D01*
X199342000Y-87294645D01*
X199342000Y-98216487D01*
X192500386Y-105058102D01*
X192414411Y-105041000D01*
X192141589Y-105041000D01*
X191874011Y-105094225D01*
X191621957Y-105198629D01*
X191395114Y-105350201D01*
X191202201Y-105543114D01*
X191050629Y-105769957D01*
X190946225Y-106022011D01*
X190893000Y-106289589D01*
X190893000Y-106562411D01*
X190946225Y-106829989D01*
X191050629Y-107082043D01*
X191202201Y-107308886D01*
X191395114Y-107501799D01*
X191621957Y-107653371D01*
X191874011Y-107757775D01*
X192141589Y-107811000D01*
X192414411Y-107811000D01*
X192681989Y-107757775D01*
X192934043Y-107653371D01*
X193160886Y-107501799D01*
X193353799Y-107308886D01*
X193505371Y-107082043D01*
X193609775Y-106829989D01*
X193663000Y-106562411D01*
X193663000Y-106289589D01*
X193645898Y-106203614D01*
X200696620Y-99152893D01*
X200727528Y-99127528D01*
X200828749Y-99004189D01*
X200829638Y-99002526D01*
X200903963Y-98863474D01*
X200950280Y-98710788D01*
X200965919Y-98552000D01*
X200962000Y-98512209D01*
X200962000Y-74461791D01*
X200965919Y-74422000D01*
X200950280Y-74263212D01*
X200903963Y-74110527D01*
X200828749Y-73969811D01*
X200727528Y-73846472D01*
X200604189Y-73745251D01*
X200463473Y-73670037D01*
X200310788Y-73623720D01*
X200191791Y-73612000D01*
X200152000Y-73608081D01*
X200112209Y-73612000D01*
X189819513Y-73612000D01*
X188931899Y-72724387D01*
X188906528Y-72693472D01*
X188783189Y-72592251D01*
X188642473Y-72517037D01*
X188489788Y-72470720D01*
X188370791Y-72459000D01*
X188370788Y-72459000D01*
X188331000Y-72455081D01*
X188291212Y-72459000D01*
X183770787Y-72459000D01*
X183730999Y-72455081D01*
X183691211Y-72459000D01*
X183691209Y-72459000D01*
X183572212Y-72470720D01*
X183419527Y-72517037D01*
X183354024Y-72552049D01*
X183278810Y-72592251D01*
X183223210Y-72637881D01*
X183155472Y-72693472D01*
X183130105Y-72724382D01*
X182064488Y-73790000D01*
X176731629Y-73790000D01*
X176559608Y-73580392D01*
X176341101Y-73401068D01*
X176091808Y-73267818D01*
X175821309Y-73185764D01*
X175610492Y-73165000D01*
X175469508Y-73165000D01*
X175258691Y-73185764D01*
X174988192Y-73267818D01*
X174738899Y-73401068D01*
X174520392Y-73580392D01*
X174341068Y-73798899D01*
X174207818Y-74048192D01*
X174150000Y-74238795D01*
X174092182Y-74048192D01*
X173958932Y-73798899D01*
X173779608Y-73580392D01*
X173561101Y-73401068D01*
X173311808Y-73267818D01*
X173041309Y-73185764D01*
X172830492Y-73165000D01*
X172689508Y-73165000D01*
X172478691Y-73185764D01*
X172208192Y-73267818D01*
X171958899Y-73401068D01*
X171740392Y-73580392D01*
X171561068Y-73798899D01*
X171427818Y-74048192D01*
X171345764Y-74318691D01*
X171318057Y-74600000D01*
X164035000Y-74600000D01*
X164035000Y-74458665D01*
X163979853Y-74181426D01*
X163871680Y-73920273D01*
X163714637Y-73685241D01*
X163514759Y-73485363D01*
X163279727Y-73328320D01*
X163018574Y-73220147D01*
X162741335Y-73165000D01*
X162458665Y-73165000D01*
X162181426Y-73220147D01*
X161920273Y-73328320D01*
X161685241Y-73485363D01*
X161485363Y-73685241D01*
X161328320Y-73920273D01*
X161220147Y-74181426D01*
X161165000Y-74458665D01*
X159220271Y-74458665D01*
X156807803Y-72046197D01*
X156788557Y-72030403D01*
X156766601Y-72018667D01*
X156742776Y-72011440D01*
X156718000Y-72009000D01*
X142494000Y-72009000D01*
X142469224Y-72011440D01*
X142445399Y-72018667D01*
X142423443Y-72030403D01*
X142404197Y-72046197D01*
X135292197Y-79158197D01*
X135276403Y-79177443D01*
X135264667Y-79199399D01*
X135257440Y-79223224D01*
X135255000Y-79248000D01*
X134289000Y-79248000D01*
X134289000Y-71685000D01*
X213748909Y-71685000D01*
X220015000Y-80152691D01*
M02*
